<svg width="82" height="102" viewBox="0 0 82 102" fill="none" xmlns="http://www.w3.org/2000/svg">
<path d="M70.75 101.75H11.25C8.46523 101.75 5.79451 100.644 3.82538 98.6746C1.85625 96.7055 0.75 94.0348 0.75 91.25V10.75C0.75 7.96523 1.85625 5.29451 3.82538 3.32538C5.79451 1.35625 8.46523 0.25 11.25 0.25H60.25L81.25 21.25V91.25C81.25 94.0348 80.1438 96.7055 78.1746 98.6746C76.2055 100.644 73.5348 101.75 70.75 101.75Z" fill="#F6F5F3"/>
<path d="M0.75 73.75H81.25V91.25C81.25 94.0348 80.1438 96.7055 78.1746 98.6746C76.2055 100.644 73.5348 101.75 70.75 101.75H11.25C8.46523 101.75 5.79451 100.644 3.82538 98.6746C1.85625 96.7055 0.75 94.0348 0.75 91.25V73.75Z" fill="#ADA496"/>
<path d="M81.25 21.25H70.75C67.9652 21.25 65.2945 20.1438 63.3254 18.1746C61.3562 16.2055 60.25 13.5348 60.25 10.75V0.25L81.25 21.25Z" fill="#ADA496"/>
<path d="M18.25 24.75H63.75V59.75H18.25V24.75Z" fill="#F6F5F3"/>
<path d="M32.25 42.25L41 52.75L51.5 49.25L63.75 59.75H18.25L32.25 42.25Z" fill="#ADA496"/>
<path d="M48 42.25C49.933 42.25 51.5 40.683 51.5 38.75C51.5 36.817 49.933 35.25 48 35.25C46.067 35.25 44.5 36.817 44.5 38.75C44.5 40.683 46.067 42.25 48 42.25Z" fill="#ADA496"/>
<path d="M39.25 79H35.75C35.2859 79 34.8408 79.1844 34.5126 79.5126C34.1844 79.8408 34 80.2859 34 80.75V94.75C34 95.2141 34.1844 95.6593 34.5126 95.9874C34.8408 96.3156 35.2859 96.5 35.75 96.5C36.2141 96.5 36.6592 96.3156 36.9874 95.9874C37.3156 95.6593 37.5 95.2141 37.5 94.75V89.5H39.25C40.6424 89.5 41.9777 88.9469 42.9623 87.9623C43.9469 86.9777 44.5 85.6424 44.5 84.25C44.5 82.8576 43.9469 81.5223 42.9623 80.5377C41.9777 79.5531 40.6424 79 39.25 79ZM39.25 86H37.5V82.5H39.25C39.7141 82.5 40.1592 82.6844 40.4874 83.0126C40.8156 83.3408 41 83.7859 41 84.25C41 84.7141 40.8156 85.1592 40.4874 85.4874C40.1592 85.8156 39.7141 86 39.25 86Z" fill="#F6F5F3"/>
<path d="M28.75 79C28.2859 79 27.8408 79.1844 27.5126 79.5126C27.1844 79.8408 27 80.2859 27 80.75V91.25C27 91.7141 26.8156 92.1592 26.4874 92.4874C26.1592 92.8156 25.7141 93 25.25 93C24.7859 93 24.3408 92.8156 24.0126 92.4874C23.6844 92.1592 23.5 91.7141 23.5 91.25C23.5 90.7859 23.3156 90.3408 22.9874 90.0126C22.6592 89.6844 22.2141 89.5 21.75 89.5C21.2859 89.5 20.8408 89.6844 20.5126 90.0126C20.1844 90.3408 20 90.7859 20 91.25C20 92.6424 20.5531 93.9777 21.5377 94.9623C22.5223 95.9469 23.8576 96.5 25.25 96.5C26.6424 96.5 27.9777 95.9469 28.9623 94.9623C29.9469 93.9777 30.5 92.6424 30.5 91.25V80.75C30.5 80.2859 30.3156 79.8408 29.9874 79.5126C29.6592 79.1844 29.2141 79 28.75 79Z" fill="#F6F5F3"/>
<path d="M60.25 86H56.75C56.2859 86 55.8408 86.1844 55.5126 86.5126C55.1844 86.8408 55 87.2859 55 87.75C55 88.2141 55.1844 88.6592 55.5126 88.9874C55.8408 89.3156 56.2859 89.5 56.75 89.5H58.292C57.7993 91.5162 56.4903 93 55 93C53.1028 93 51.5 90.5957 51.5 87.75C51.5 84.9043 53.1028 82.5 55 82.5C55.3476 82.5016 55.6905 82.5806 56.0038 82.7312C56.4237 82.9291 56.9049 82.9521 57.3417 82.7952C57.558 82.7175 57.7569 82.5979 57.9269 82.4434C58.097 82.2888 58.235 82.1023 58.333 81.8944C58.431 81.6865 58.4871 81.4614 58.498 81.2318C58.509 81.0023 58.4747 80.7728 58.397 80.5565C58.3192 80.3402 58.1997 80.1414 58.0451 79.9713C57.8906 79.8012 57.704 79.6632 57.4962 79.5653C56.7164 79.1939 55.8637 79.0008 55 79C51.1402 79 48 82.9253 48 87.75C48 92.5747 51.1402 96.5 55 96.5C58.8598 96.5 62 92.5747 62 87.75C62 87.2859 61.8156 86.8408 61.4874 86.5126C61.1592 86.1844 60.7141 86 60.25 86Z" fill="#F6F5F3"/>
</svg>
