<svg width="16" height="17" viewBox="0 0 16 17" fill="none" xmlns="http://www.w3.org/2000/svg">
<path d="M14.0471 3.98634C12.9738 3.87967 11.9004 3.79967 10.8204 3.73967V3.73301L10.6738 2.86634C10.5738 2.25301 10.4271 1.33301 8.8671 1.33301H7.12043C5.5671 1.33301 5.42043 2.21301 5.31376 2.85967L5.17376 3.71301C4.55376 3.75301 3.93376 3.79301 3.31376 3.85301L1.95376 3.98634C1.67376 4.01301 1.47376 4.25967 1.50043 4.53301C1.5271 4.80634 1.7671 5.00634 2.0471 4.97967L3.4071 4.84634C6.90043 4.49967 10.4204 4.63301 13.9538 4.98634C13.9738 4.98634 13.9871 4.98634 14.0071 4.98634C14.2604 4.98634 14.4804 4.79301 14.5071 4.53301C14.5271 4.25967 14.3271 4.01301 14.0471 3.98634Z" fill="#000"/>
<path d="M12.8202 5.92699C12.6602 5.76033 12.4402 5.66699 12.2135 5.66699H3.78683C3.56016 5.66699 3.33349 5.76033 3.18016 5.92699C3.02683 6.09366 2.94016 6.32033 2.95349 6.55366L3.36683 13.3937C3.44016 14.407 3.53349 15.6737 5.86016 15.6737H10.1402C12.4668 15.6737 12.5602 14.4137 12.6335 13.3937L13.0468 6.56033C13.0602 6.32033 12.9735 6.09366 12.8202 5.92699ZM9.10682 12.3337H6.88683C6.61349 12.3337 6.38683 12.107 6.38683 11.8337C6.38683 11.5603 6.61349 11.3337 6.88683 11.3337H9.10682C9.38016 11.3337 9.60682 11.5603 9.60682 11.8337C9.60682 12.107 9.38016 12.3337 9.10682 12.3337ZM9.66683 9.66699H6.33349C6.06016 9.66699 5.83349 9.44033 5.83349 9.16699C5.83349 8.89366 6.06016 8.66699 6.33349 8.66699H9.66683C9.94016 8.66699 10.1668 8.89366 10.1668 9.16699C10.1668 9.44033 9.94016 9.66699 9.66683 9.66699Z" fill="#000"/>
</svg>
