<svg width="21" height="20" viewBox="0 0 21 20" fill="none" xmlns="http://www.w3.org/2000/svg">
<path d="M12.525 15.6834C12.3667 15.6834 12.2083 15.6251 12.0833 15.5001C11.8417 15.2584 11.8417 14.8584 12.0833 14.6168L16.7 10.0001L12.0833 5.38343C11.8417 5.14176 11.8417 4.74176 12.0833 4.5001C12.325 4.25843 12.725 4.25843 12.9667 4.5001L18.025 9.55843C18.2667 9.8001 18.2667 10.2001 18.025 10.4418L12.9667 15.5001C12.8417 15.6251 12.6834 15.6834 12.525 15.6834Z" fill="white"/>
<path d="M17.4416 10.625H3.41663C3.07496 10.625 2.79163 10.3417 2.79163 10C2.79163 9.65833 3.07496 9.375 3.41663 9.375H17.4416C17.7833 9.375 18.0666 9.65833 18.0666 10C18.0666 10.3417 17.7833 10.625 17.4416 10.625Z" fill="white"/>
</svg>
