<svg width="435" height="284" viewBox="0 0 435 284" fill="none" xmlns="http://www.w3.org/2000/svg">
<g clip-path="url(#clip0_1772_3611)">
<mask id="mask0_1772_3611" style="mask-type:luminance" maskUnits="userSpaceOnUse" x="190" y="0" width="246" height="174">
<path d="M200.062 0H425.287C430.629 0 435.001 5.11359 435.001 11.3611V161.98C435.001 168.23 430.629 173.342 425.287 173.342H200.062C194.72 173.342 190.348 168.23 190.348 161.98V11.3611C190.348 5.11359 194.72 0 200.062 0Z" fill="white"/>
</mask>
<g mask="url(#mask0_1772_3611)">
<path d="M435.001 0H190.348V173.342H435.001V0Z" fill="url(#paint0_linear_1772_3611)"/>
</g>
<path fill-rule="evenodd" clip-rule="evenodd" d="M198.218 5.22998H427.131C428.373 5.22998 429.389 6.2456 429.389 7.48801V160.803C429.389 162.046 428.373 163.061 427.131 163.061H198.218C196.976 163.061 195.96 162.046 195.96 160.803V7.48801C195.96 6.2456 196.976 5.22998 198.218 5.22998Z" fill="#022FA0"/>
<path fill-rule="evenodd" clip-rule="evenodd" d="M412.274 166.897C412.915 166.897 413.433 167.418 413.433 168.057C413.433 168.696 412.915 169.216 412.274 169.216C411.633 169.216 411.114 168.697 411.114 168.057C411.114 167.416 411.633 166.897 412.274 166.897Z" fill="#C2E5F9"/>
<path fill-rule="evenodd" clip-rule="evenodd" d="M416.448 166.897C417.089 166.897 417.607 167.418 417.607 168.057C417.607 168.696 417.089 169.216 416.448 169.216C415.807 169.216 415.288 168.697 415.288 168.057C415.288 167.416 415.807 166.897 416.448 166.897Z" fill="#C2E5F9"/>
<path fill-rule="evenodd" clip-rule="evenodd" d="M420.623 166.897C421.264 166.897 421.783 167.418 421.783 168.057C421.783 168.696 421.264 169.216 420.623 169.216C419.983 169.216 419.464 168.697 419.464 168.057C419.464 167.416 419.983 166.897 420.623 166.897Z" fill="#C2E5F9"/>
<path fill-rule="evenodd" clip-rule="evenodd" d="M1.01018 282.425H283.51C283.871 282.425 284.163 282.719 284.163 283.078C284.163 283.437 283.871 283.729 283.51 283.729H1.01018C0.649289 283.729 0.357422 283.435 0.357422 283.078C0.357422 282.719 0.649289 282.425 1.01018 282.425Z" fill="#0F4884"/>
<path fill-rule="evenodd" clip-rule="evenodd" d="M121.307 199.16C126.592 210.759 131.732 208.748 140.653 222.621C150.447 237.852 157.021 251.28 160.321 269.224L164.778 268.934C167.262 268.827 166.661 276.021 167.055 270.367L165.097 251.224C154.464 201.79 155.219 162.943 124.082 151.581C121.28 149.775 113.111 186.816 121.307 199.16Z" fill="#000446"/>
<path fill-rule="evenodd" clip-rule="evenodd" d="M68.2334 151.641C79.2218 177.664 83.231 239.252 84.8659 282.421H135.69C134.454 240.984 129.983 185.525 121.105 157.242C119.058 150.72 117.421 150.783 114.784 148.651C100.739 146.147 89.0881 144.642 69.3338 148.626L68.2354 151.643L68.2334 151.641Z" fill="white"/>
<path fill-rule="evenodd" clip-rule="evenodd" d="M152.44 282.419C152.452 223.448 145.265 155.95 119.411 149.824C117.834 149.383 116.294 148.992 114.781 148.647C123.257 167.297 115.16 230.961 106.366 282.419H152.44Z" fill="#000446"/>
<path fill-rule="evenodd" clip-rule="evenodd" d="M113.164 282.419C104.457 229.672 78.1024 167.27 70.1786 148.503C56.5042 150.369 48.4483 153.698 40.8242 161.217C27.8913 173.356 28.2207 192.597 36.9372 216.084L45.2831 206.354C49.4106 225.663 51.0494 255.001 51.8816 282.423H113.164V282.419Z" fill="#000446"/>
<path fill-rule="evenodd" clip-rule="evenodd" d="M118.733 125.617C115.533 131.991 112.085 136.647 107.082 139.043L107.047 148.931C110.196 155.181 110.009 161.062 101.399 162.564C77.7633 163.73 80.6583 147.283 80.8654 146.516L83.155 132.758C82.3681 132.713 75.7873 129.274 74.0874 128.753C72.3894 128.228 69.8947 124.957 69.7271 121.5C69.5615 118.045 74.9018 119.163 74.9018 119.163C68.4315 110.308 61.1052 103.077 70.6047 95.1055C80.1022 87.1324 101.923 82.4822 101.923 82.4822L115.057 77.9307C113.385 82.4625 115.619 97.5785 118.992 107.021C122.015 115.489 123.03 117.063 118.733 125.621" fill="#F4B1B1"/>
<path fill-rule="evenodd" clip-rule="evenodd" d="M99.8047 162.617C96.7086 165.785 91.9598 170.196 88.8637 173.365C82.3262 166.477 78.8021 156.045 75.7158 147.48C78.2204 145.754 79.1216 144.973 81.4289 143.131C84.4265 149.099 89.3784 158.048 99.8028 162.617" fill="#C9DBF5"/>
<path fill-rule="evenodd" clip-rule="evenodd" d="M99.8027 162.617C102.859 165.737 107.969 168.34 111.024 171.46C112.489 165.564 111.507 154.78 110.257 147.87C109.01 146.701 108.519 146.758 107.058 145.778C107.711 152.191 102.999 159.02 99.8027 162.617Z" fill="#C9DBF5"/>
<path fill-rule="evenodd" clip-rule="evenodd" d="M88.4668 134.381C91.5886 140.765 97.5995 150.055 107.046 148.931L107.081 139.043C102.877 139.718 98.763 139.386 88.4668 134.381Z" fill="#E06B6C"/>
<path fill-rule="evenodd" clip-rule="evenodd" d="M64.2403 98.2545C62.0217 91.0407 64.3843 83.4482 71.4975 77.8909C86.2427 66.372 98.9035 72.7398 104.372 74.0808C108.153 75.0077 110.704 74.9091 114.422 75.6861C123.716 77.6286 124.507 96.9608 117.808 103.311C117.141 103.942 116.112 95.0874 115.364 95.6533C114.58 96.3416 113.712 96.9687 112.753 97.5229C101.836 103.118 92.3089 97.2231 85.9489 104.711C82.8015 108.421 83.117 113.767 86.6431 122.024C87.6824 124.457 89.0707 126.25 84.9589 124.347C83.0716 123.473 76.9188 121.509 75.8598 122.367C73.4992 124.274 74.6903 128.287 76.5737 129.579C77.4138 130.155 79.0052 131.017 79.0052 131.017C61.649 127.725 57.5924 103.402 64.2383 98.2545" fill="#022FA0"/>
<path fill-rule="evenodd" clip-rule="evenodd" d="M61.187 185.013C57.1205 175.984 58.5542 144.315 35.5421 167.702C27.8845 178.595 8.98806 233.64 12.7547 259.318C14.4764 271.046 24.5576 273.383 35.122 275.779C48.9818 278.921 69.8641 282.77 80.036 282.419C85.9878 282.214 90.7858 282.449 93.1208 280.698C101.238 274.61 88.6323 267.572 88.6323 267.572C88.6323 267.572 46.3609 251.332 41.3084 248.738C38.9202 247.332 64.151 191.593 61.187 185.013Z" fill="#000446"/>
<path fill-rule="evenodd" clip-rule="evenodd" d="M152.574 190.603C148.506 181.575 145.494 145.178 122.482 168.565C114.823 179.459 128.012 233.639 131.781 259.318C133.502 271.048 143.582 273.385 154.148 275.781C168.008 278.922 177.401 282.772 187.575 282.421C193.526 282.216 198.324 282.45 200.659 280.699C208.776 274.611 196.169 267.573 196.169 267.573C196.169 267.573 165.387 251.333 160.334 248.74C157.946 247.334 155.54 197.184 152.578 190.603" fill="#000446"/>
<path fill-rule="evenodd" clip-rule="evenodd" d="M191.583 282.415C202.538 282.36 214.779 282.504 218.021 282.366C214.813 272.809 204.025 270.442 195.021 270.963C192.857 272.44 190.82 279.814 191.583 282.417" fill="#F6C0C5"/>
<path fill-rule="evenodd" clip-rule="evenodd" d="M266.076 158.52H143.75C139.009 158.52 138.108 162.533 137.221 167.242L121.653 249.888C121.012 253.893 119.275 260.665 129.869 260.697L255.18 260.787L273.501 166.031C274.284 161.977 270.16 158.518 266.078 158.518" fill="#70B5EA"/>
<path fill-rule="evenodd" clip-rule="evenodd" d="M272.928 158.522H147.65C142.909 158.522 142.008 162.531 141.121 167.244L125.553 249.888H125.569L124.709 254.802C124.143 258.044 127.405 260.789 130.696 260.789H254.961C258.252 260.789 260.467 258.06 260.948 254.802L261.674 249.888H261.831L277.401 166.031C278.154 161.971 277.012 158.52 272.93 158.52" fill="#9ED7FB"/>
<path fill-rule="evenodd" clip-rule="evenodd" d="M125.684 258.385C126.825 259.833 128.754 260.787 130.695 260.787H254.959C256.486 260.787 257.779 260.202 258.777 259.245L240.543 245.979L159.201 246.943L125.682 258.387L125.684 258.385Z" fill="#70B5EA"/>
<path fill-rule="evenodd" clip-rule="evenodd" d="M258.778 259.245C259.931 258.141 260.689 256.547 260.947 254.8L261.673 249.886H261.833L277.4 166.029C277.933 163.158 277.518 160.592 275.787 159.336L251.627 182.867L240.546 245.977L258.78 259.243L258.778 259.245Z" fill="#8BC5F1"/>
<path fill-rule="evenodd" clip-rule="evenodd" d="M145.85 158.754C142.653 159.675 141.882 163.201 141.121 167.244L125.553 249.888H125.567L124.709 254.802C124.478 256.132 124.891 257.38 125.683 258.388L159.203 246.944L169.964 182.869L145.85 158.754Z" fill="#B7E3FF"/>
<path fill-rule="evenodd" clip-rule="evenodd" d="M272.928 158.52H147.65C146.976 158.52 146.378 158.6 145.85 158.754L169.964 182.869H251.626L276.383 159.88C275.624 159.026 274.492 158.522 272.93 158.522" fill="#CEE9FF"/>
<path fill-rule="evenodd" clip-rule="evenodd" d="M228.802 202.195H191.247C189.826 202.195 189.557 203.398 189.289 204.81L184.623 229.584H184.627L184.371 231.057C184.201 232.029 185.179 232.851 186.165 232.851H223.416C224.402 232.851 225.067 232.033 225.211 231.057L225.427 229.584H225.475L230.141 204.445C230.368 203.229 230.024 202.193 228.8 202.193" fill="#59ABEA"/>
<path fill-rule="evenodd" clip-rule="evenodd" d="M213.988 208.385H199.58L204.776 282.425H219.186L213.988 208.385Z" fill="#59ABEA"/>
<path d="M205.525 278.388H118.657V282.425H205.525V278.388Z" fill="#70B5EA"/>
<path fill-rule="evenodd" clip-rule="evenodd" d="M85.7471 282.265H109.264V278.619C109.264 276.613 107.623 274.973 105.618 274.973H89.3954C87.3898 274.973 85.749 276.613 85.749 278.619V282.265H85.7471Z" fill="#70B5EA"/>
<path fill-rule="evenodd" clip-rule="evenodd" d="M84.2054 280.526C95.1603 280.47 107.401 280.614 110.643 280.476C107.434 270.922 96.6472 268.553 87.6427 269.074C85.4813 270.551 83.4422 277.925 84.2054 280.526Z" fill="#F6C0C5"/>
<path fill-rule="evenodd" clip-rule="evenodd" d="M163.281 50.4258L160.964 48.8935C159.996 48.2526 159.56 47.0417 159.923 45.9393C160.619 43.8036 161.037 41.6205 161.185 39.4275C161.268 38.268 162.12 37.3056 163.26 37.0768L165.981 36.5167C167.393 36.2308 168.31 34.8543 168.022 33.4423L166.959 28.2261C166.671 26.8141 165.291 25.903 163.877 26.191L161.153 26.7451C160.011 26.9778 158.85 26.4276 158.325 25.3903C157.331 23.43 156.091 21.5842 154.616 19.8921C153.851 19.0165 153.78 17.7367 154.423 16.7664L155.953 14.4472C156.75 13.2462 156.416 11.6272 155.215 10.8305L150.774 7.89403C149.573 7.09731 147.956 7.42862 147.158 8.62962L145.625 10.9468C144.984 11.9151 143.775 12.3529 142.671 11.992C140.537 11.2939 138.352 10.8778 136.163 10.7279C135 10.651 134.039 9.79511 133.809 8.65328L133.252 5.92985C132.964 4.51784 131.588 3.60477 130.176 3.89663L124.96 4.95761C123.546 5.24553 122.637 6.62599 122.923 8.03799L123.477 10.7614C123.71 11.9013 123.159 13.0648 122.12 13.5874C120.162 14.5833 118.314 15.8238 116.622 17.2969C115.748 18.064 114.466 18.135 113.496 17.4941L111.179 15.9598C109.978 15.1631 108.359 15.4944 107.562 16.6974L104.626 21.1365C103.831 22.3395 104.16 23.9566 105.361 24.7533L107.679 26.2856C108.647 26.9285 109.083 28.1335 108.722 29.2418C108.022 31.3716 107.608 33.5567 107.458 35.7476C107.381 36.9112 106.525 37.8716 105.387 38.1062L102.662 38.6584C101.25 38.9463 100.338 40.3268 100.626 41.7388L101.685 46.953C101.975 48.367 103.354 49.2761 104.768 48.9901L107.489 48.434C108.633 48.2033 109.793 48.7515 110.319 49.7928C111.313 51.7491 112.552 53.6008 114.027 55.287C114.792 56.1606 114.867 57.4484 114.224 58.4167L112.692 60.7338C111.895 61.9348 112.224 63.5559 113.429 64.3506L117.866 67.289C119.067 68.0798 120.688 67.7505 121.485 66.5495L123.015 64.2303C123.656 63.2621 124.865 62.8282 125.975 63.1871C128.105 63.8852 130.29 64.2994 132.479 64.4492C133.639 64.5281 134.601 65.3801 134.834 66.5219L135.388 69.2453C135.678 70.6593 137.057 71.5724 138.471 71.2845L143.687 70.2195C145.099 69.9336 146.012 68.5551 145.724 67.1411L145.168 64.4157C144.935 63.2759 145.485 62.1163 146.522 61.5878C148.485 60.5978 150.333 59.3573 152.021 57.8803C152.898 57.1171 154.174 57.0421 155.144 57.685L157.466 59.2173C158.667 60.014 160.288 59.6847 161.082 58.4817L164.019 54.0406C164.815 52.8396 164.484 51.2206 163.281 50.4258ZM144.856 47.4874C140.732 51.9404 134.041 53.3031 128.504 50.8182C119.365 46.7183 116.989 35.0416 123.794 27.6878C127.918 23.2388 134.607 21.8721 140.143 24.3589C149.283 28.4608 151.664 40.1355 144.856 47.4874Z" fill="#C5E6F9"/>
<path fill-rule="evenodd" clip-rule="evenodd" d="M263.794 31.4663H281.724C282.544 31.4663 283.219 32.1388 283.219 32.9592C283.219 33.7815 282.546 34.454 281.724 34.454H263.794C262.971 34.454 262.301 33.7815 262.301 32.9611C262.301 32.1388 262.973 31.4663 263.794 31.4663Z" fill="white"/>
<path fill-rule="evenodd" clip-rule="evenodd" d="M291.742 31.4663H352.559C353.381 31.4663 354.054 32.1388 354.054 32.9592C354.054 33.7815 353.381 34.454 352.559 34.454H291.742C290.92 34.454 290.247 33.7815 290.247 32.9611C290.247 32.1388 290.92 31.4663 291.742 31.4663Z" fill="#EB6502"/>
<path fill-rule="evenodd" clip-rule="evenodd" d="M360.644 31.4663H378.572C379.395 31.4663 380.067 32.1388 380.067 32.9592C380.067 33.7815 379.395 34.454 378.572 34.454H360.644C359.822 34.454 359.149 33.7815 359.149 32.9611C359.149 32.1388 359.822 31.4663 360.644 31.4663Z" fill="white"/>
<path fill-rule="evenodd" clip-rule="evenodd" d="M271.616 37.9707H289.544C290.364 37.9707 291.039 38.6432 291.039 39.4655C291.039 40.2879 290.366 40.9604 289.544 40.9604H271.616C270.794 40.9604 270.121 40.2879 270.121 39.4655C270.121 38.6432 270.794 37.9707 271.616 37.9707Z" fill="white"/>
<path fill-rule="evenodd" clip-rule="evenodd" d="M279.528 44.4746H306.421C307.244 44.4746 307.916 45.1471 307.916 45.9675C307.916 46.7898 307.244 47.4623 306.421 47.4623H279.528C278.706 47.4623 278.033 46.7898 278.033 45.9694C278.033 45.1471 278.706 44.4746 279.528 44.4746Z" fill="white"/>
<path fill-rule="evenodd" clip-rule="evenodd" d="M279.613 50.9785H301.673C302.495 50.9785 303.167 51.651 303.167 52.4733C303.167 53.2957 302.495 53.9682 301.673 53.9682H279.613C278.791 53.9682 278.12 53.2957 278.12 52.4733C278.12 51.651 278.793 50.9785 279.613 50.9785Z" fill="white"/>
<path fill-rule="evenodd" clip-rule="evenodd" d="M279.613 57.4819H346.583C347.405 57.4819 348.078 58.1544 348.078 58.9748C348.078 59.7971 347.405 60.4696 346.583 60.4696H279.613C278.791 60.4696 278.12 59.7971 278.12 58.9768C278.12 58.1544 278.793 57.4819 279.613 57.4819Z" fill="white"/>
<path fill-rule="evenodd" clip-rule="evenodd" d="M314.767 44.4746H332.344C333.167 44.4746 333.839 45.1471 333.839 45.9675C333.839 46.7898 333.167 47.4623 332.344 47.4623H314.767C313.945 47.4623 313.272 46.7898 313.272 45.9694C313.272 45.1471 313.945 44.4746 314.767 44.4746Z" fill="white"/>
<path fill-rule="evenodd" clip-rule="evenodd" d="M308.134 50.9785H360.382C361.204 50.9785 361.875 51.651 361.875 52.4733C361.875 53.2957 361.202 53.9682 360.382 53.9682H308.134C307.311 53.9682 306.639 53.2957 306.639 52.4733C306.639 51.651 307.311 50.9785 308.134 50.9785Z" fill="#EB6502"/>
<path fill-rule="evenodd" clip-rule="evenodd" d="M368.247 50.9785H382.264C383.087 50.9785 383.759 51.651 383.759 52.4733C383.759 53.2957 383.087 53.9682 382.264 53.9682H368.247C367.424 53.9682 366.752 53.2957 366.752 52.4733C366.752 51.651 367.424 50.9785 368.247 50.9785Z" fill="#6CD6FF"/>
<path fill-rule="evenodd" clip-rule="evenodd" d="M389.604 50.9785H403.622C404.444 50.9785 405.117 51.651 405.117 52.4733C405.117 53.2957 404.444 53.9682 403.622 53.9682H389.604C388.782 53.9682 388.109 53.2957 388.109 52.4733C388.109 51.651 388.782 50.9785 389.604 50.9785Z" fill="#FCCF00"/>
<path fill-rule="evenodd" clip-rule="evenodd" d="M263.794 24.7871H290.072C290.894 24.7871 291.564 25.4596 291.564 26.28C291.564 27.1023 290.892 27.7748 290.072 27.7748H263.794C262.971 27.7748 262.301 27.1023 262.301 26.28C262.301 25.4576 262.973 24.7852 263.794 24.7852" fill="white"/>
<path fill-rule="evenodd" clip-rule="evenodd" d="M271.616 63.2817H289.544C290.364 63.2817 291.039 63.9542 291.039 64.7766C291.039 65.5989 290.366 66.2714 289.544 66.2714H271.616C270.794 66.2714 270.121 65.5989 270.121 64.7785C270.121 63.9562 270.794 63.2837 271.616 63.2837" fill="white"/>
<path fill-rule="evenodd" clip-rule="evenodd" d="M279.528 123.432H306.421C307.244 123.432 307.916 124.103 307.916 124.925C307.916 125.747 307.244 126.42 306.421 126.42H279.528C278.706 126.42 278.033 125.747 278.033 124.927C278.033 124.105 278.706 123.432 279.528 123.432Z" fill="white"/>
<path fill-rule="evenodd" clip-rule="evenodd" d="M279.613 129.936H301.673C302.495 129.936 303.167 130.607 303.167 131.431C303.167 132.253 302.495 132.926 301.673 132.926H279.613C278.791 132.926 278.12 132.253 278.12 131.431C278.12 130.609 278.793 129.936 279.613 129.936Z" fill="white"/>
<path fill-rule="evenodd" clip-rule="evenodd" d="M279.613 136.44H346.583C347.405 136.44 348.078 137.11 348.078 137.935C348.078 138.759 347.405 139.43 346.583 139.43H279.613C278.791 139.43 278.12 138.757 278.12 137.935C278.12 137.112 278.793 136.44 279.613 136.44Z" fill="#6CD6FF"/>
<path fill-rule="evenodd" clip-rule="evenodd" d="M314.767 123.432H332.344C333.167 123.432 333.839 124.103 333.839 124.925C333.839 125.747 333.167 126.42 332.344 126.42H314.767C313.945 126.42 313.272 125.747 313.272 124.927C313.272 124.105 313.945 123.432 314.767 123.432Z" fill="white"/>
<path fill-rule="evenodd" clip-rule="evenodd" d="M308.134 129.936H360.382C361.204 129.936 361.875 130.607 361.875 131.431C361.875 132.253 361.202 132.926 360.382 132.926H308.134C307.311 132.926 306.639 132.253 306.639 131.431C306.639 130.609 307.311 129.936 308.134 129.936Z" fill="#C84E96"/>
<path fill-rule="evenodd" clip-rule="evenodd" d="M368.247 129.936H382.264C383.087 129.936 383.759 130.607 383.759 131.431C383.759 132.253 383.087 132.926 382.264 132.926H368.247C367.424 132.926 366.752 132.253 366.752 131.431C366.752 130.609 367.424 129.936 368.247 129.936Z" fill="#FCCF00"/>
<path fill-rule="evenodd" clip-rule="evenodd" d="M389.604 129.936H403.622C404.444 129.936 405.117 130.607 405.117 131.431C405.117 132.253 404.444 132.926 403.622 132.926H389.604C388.782 132.926 388.109 132.253 388.109 131.431C388.109 130.609 388.782 129.936 389.604 129.936Z" fill="white"/>
<path fill-rule="evenodd" clip-rule="evenodd" d="M279.965 74.2129H297.893C298.715 74.2129 299.388 74.8854 299.388 75.7077C299.388 76.5301 298.715 77.2026 297.893 77.2026H279.965C279.142 77.2026 278.47 76.5301 278.47 75.7097C278.47 74.8873 279.142 74.2149 279.965 74.2149" fill="white"/>
<path fill-rule="evenodd" clip-rule="evenodd" d="M279.528 80.7168H306.421C307.244 80.7168 307.916 81.3893 307.916 82.2116C307.916 83.034 307.244 83.7065 306.421 83.7065H279.528C278.706 83.7065 278.033 83.034 278.033 82.2116C278.033 81.3893 278.706 80.7168 279.528 80.7168Z" fill="white"/>
<path fill-rule="evenodd" clip-rule="evenodd" d="M279.613 87.2207H301.673C302.495 87.2207 303.167 87.8932 303.167 88.7155C303.167 89.5379 302.495 90.2104 301.673 90.2104H279.613C278.791 90.2104 278.12 89.5379 278.12 88.7155C278.12 87.8932 278.793 87.2207 279.613 87.2207Z" fill="white"/>
<path fill-rule="evenodd" clip-rule="evenodd" d="M279.613 93.7227H308.553C309.376 93.7227 310.046 94.3951 310.046 95.2175C310.046 96.0398 309.374 96.7123 308.553 96.7123H279.613C278.791 96.7123 278.12 96.0398 278.12 95.2175C278.12 94.3951 278.793 93.7227 279.613 93.7227Z" fill="#FCCF00"/>
<path fill-rule="evenodd" clip-rule="evenodd" d="M314.767 80.7168H332.344C333.167 80.7168 333.839 81.3893 333.839 82.2116C333.839 83.034 333.167 83.7065 332.344 83.7065H314.767C313.945 83.7065 313.272 83.034 313.272 82.2116C313.272 81.3893 313.945 80.7168 314.767 80.7168Z" fill="white"/>
<path fill-rule="evenodd" clip-rule="evenodd" d="M308.134 87.2207H360.382C361.204 87.2207 361.875 87.8932 361.875 88.7155C361.875 89.5379 361.202 90.2104 360.382 90.2104H308.134C307.311 90.2104 306.639 89.5379 306.639 88.7155C306.639 87.8932 307.311 87.2207 308.134 87.2207Z" fill="#EF8200"/>
<path fill-rule="evenodd" clip-rule="evenodd" d="M368.247 87.2207H382.264C383.087 87.2207 383.759 87.8932 383.759 88.7155C383.759 89.5379 383.087 90.2104 382.264 90.2104H368.247C367.424 90.2104 366.752 89.5379 366.752 88.7155C366.752 87.8932 367.424 87.2207 368.247 87.2207Z" fill="white"/>
<path fill-rule="evenodd" clip-rule="evenodd" d="M389.604 87.2207H403.622C404.444 87.2207 405.117 87.8932 405.117 88.7155C405.117 89.5379 404.444 90.2104 403.622 90.2104H389.604C388.782 90.2104 388.109 89.5379 388.109 88.7155C388.109 87.8932 388.782 87.2207 389.604 87.2207Z" fill="white"/>
<path fill-rule="evenodd" clip-rule="evenodd" d="M300.926 143.168H353.175C353.997 143.168 354.668 143.841 354.668 144.663C354.668 145.486 353.995 146.158 353.175 146.158H300.926C300.104 146.158 299.432 145.486 299.432 144.663C299.432 143.841 300.104 143.168 300.926 143.168Z" fill="white"/>
<path fill-rule="evenodd" clip-rule="evenodd" d="M361.041 143.168H375.058C375.881 143.168 376.553 143.841 376.553 144.663C376.553 145.486 375.881 146.158 375.058 146.158H361.041C360.22 146.158 359.546 145.486 359.546 144.663C359.546 143.841 360.218 143.168 361.041 143.168Z" fill="white"/>
<path fill-rule="evenodd" clip-rule="evenodd" d="M382.397 143.168H396.415C397.237 143.168 397.91 143.841 397.91 144.663C397.91 145.486 397.237 146.158 396.415 146.158H382.397C381.577 146.158 380.902 145.486 380.902 144.663C380.902 143.841 381.575 143.168 382.397 143.168Z" fill="white"/>
<path fill-rule="evenodd" clip-rule="evenodd" d="M300.926 149.32H323.777C324.597 149.32 325.272 149.992 325.272 150.815C325.272 151.635 324.599 152.309 323.777 152.309H300.926C300.104 152.309 299.432 151.637 299.432 150.815C299.432 149.992 300.104 149.32 300.926 149.32Z" fill="#C84E96"/>
<path fill-rule="evenodd" clip-rule="evenodd" d="M331.775 149.32H367.631C368.454 149.32 369.126 149.992 369.126 150.815C369.126 151.635 368.454 152.309 367.631 152.309H331.775C330.953 152.309 330.28 151.637 330.28 150.815C330.28 149.992 330.953 149.32 331.775 149.32Z" fill="#EB6502"/>
<path fill-rule="evenodd" clip-rule="evenodd" d="M376.793 149.32H407.003C407.825 149.32 408.498 149.992 408.498 150.815C408.498 151.635 407.825 152.309 407.003 152.309H376.793C375.97 152.309 375.298 151.637 375.298 150.815C375.298 149.992 375.97 149.32 376.793 149.32Z" fill="white"/>
<path fill-rule="evenodd" clip-rule="evenodd" d="M300.926 100.213H353.175C353.997 100.213 354.668 100.886 354.668 101.708C354.668 102.531 353.995 103.203 353.175 103.203H300.926C300.104 103.203 299.432 102.531 299.432 101.708C299.432 100.886 300.104 100.213 300.926 100.213Z" fill="white"/>
<path fill-rule="evenodd" clip-rule="evenodd" d="M361.041 100.213H375.058C375.881 100.213 376.553 100.886 376.553 101.708C376.553 102.531 375.881 103.203 375.058 103.203H361.041C360.22 103.203 359.546 102.531 359.546 101.708C359.546 100.886 360.218 100.213 361.041 100.213Z" fill="white"/>
<path fill-rule="evenodd" clip-rule="evenodd" d="M382.397 100.213H396.415C397.237 100.213 397.91 100.886 397.91 101.708C397.91 102.531 397.237 103.203 396.415 103.203H382.397C381.577 103.203 380.902 102.531 380.902 101.708C380.902 100.886 381.575 100.213 382.397 100.213Z" fill="white"/>
<path fill-rule="evenodd" clip-rule="evenodd" d="M300.926 106.364H323.777C324.597 106.364 325.272 107.036 325.272 107.859C325.272 108.681 324.599 109.353 323.777 109.353H300.926C300.104 109.353 299.432 108.681 299.432 107.859C299.432 107.036 300.104 106.364 300.926 106.364Z" fill="white"/>
<path fill-rule="evenodd" clip-rule="evenodd" d="M331.775 106.364H367.631C368.454 106.364 369.126 107.036 369.126 107.859C369.126 108.681 368.454 109.353 367.631 109.353H331.775C330.953 109.353 330.28 108.681 330.28 107.859C330.28 107.036 330.953 106.364 331.775 106.364Z" fill="white"/>
<path fill-rule="evenodd" clip-rule="evenodd" d="M376.793 106.364H407.003C407.825 106.364 408.498 107.036 408.498 107.859C408.498 108.681 407.825 109.353 407.003 109.353H376.793C375.97 109.353 375.298 108.681 375.298 107.859C375.298 107.036 375.97 106.364 376.793 106.364Z" fill="white"/>
<path d="M253.063 13.0098H208.654V150.56H253.063V13.0098Z" fill="#0D3DB7"/>
<path fill-rule="evenodd" clip-rule="evenodd" d="M314.788 93.7227H330.365C331.188 93.7227 331.86 94.3951 331.86 95.2175C331.86 96.0398 331.188 96.7123 330.365 96.7123H314.788C313.965 96.7123 313.293 96.0398 313.293 95.2175C313.293 94.3951 313.965 93.7227 314.788 93.7227Z" fill="#EF8200"/>
<path fill-rule="evenodd" clip-rule="evenodd" d="M335.814 93.7227H351.392C352.214 93.7227 352.884 94.3951 352.884 95.2175C352.884 96.0398 352.214 96.7123 351.392 96.7123H335.814C334.992 96.7123 334.319 96.0398 334.319 95.2175C334.319 94.3951 334.992 93.7227 335.814 93.7227Z" fill="#EF8200"/>
<path fill-rule="evenodd" clip-rule="evenodd" d="M271.616 114.519H294.699C295.521 114.519 296.194 115.191 296.194 116.013C296.194 116.836 295.521 117.508 294.699 117.508H271.616C270.794 117.508 270.121 116.838 270.121 116.013C270.121 115.191 270.794 114.519 271.616 114.519Z" fill="white"/>
<path fill-rule="evenodd" clip-rule="evenodd" d="M300.934 114.519H316.512C317.334 114.519 318.007 115.191 318.007 116.013C318.007 116.836 317.334 117.508 316.512 117.508H300.934C300.112 117.508 299.439 116.838 299.439 116.013C299.439 115.191 300.112 114.519 300.934 114.519Z" fill="white"/>
<path fill-rule="evenodd" clip-rule="evenodd" d="M323.532 114.519H339.109C339.932 114.519 340.604 115.191 340.604 116.013C340.604 116.836 339.932 117.508 339.109 117.508H323.532C322.71 117.508 322.037 116.838 322.037 116.013C322.037 115.191 322.71 114.519 323.532 114.519Z" fill="white"/>
<path fill-rule="evenodd" clip-rule="evenodd" d="M220.325 109.974H233.225C234.017 109.974 234.668 109.326 234.668 108.533C234.668 107.74 234.019 107.089 233.225 107.089H220.325C219.533 107.089 218.884 107.738 218.884 108.533C218.884 109.328 219.533 109.974 220.325 109.974Z" fill="#F0F8FD"/>
<path fill-rule="evenodd" clip-rule="evenodd" d="M220.325 102.832H241.888C242.681 102.832 243.33 102.183 243.33 101.39C243.33 100.598 242.681 99.9487 241.888 99.9487H220.325C219.533 99.9487 218.884 100.598 218.884 101.39C218.884 102.183 219.533 102.832 220.325 102.832Z" fill="#F0F8FD"/>
<path fill-rule="evenodd" clip-rule="evenodd" d="M215.729 95.2714H235.662C236.455 95.2714 237.106 94.6226 237.106 93.8298C237.106 93.037 236.457 92.3862 235.662 92.3862H215.729C214.936 92.3862 214.285 93.035 214.285 93.8298C214.285 94.6245 214.934 95.2714 215.729 95.2714Z" fill="#F0F8FD"/>
<path fill-rule="evenodd" clip-rule="evenodd" d="M220.325 87.7098H225.826C226.618 87.7098 227.267 87.061 227.267 86.2682C227.267 85.4755 226.618 84.8267 225.826 84.8267H220.325C219.533 84.8267 218.884 85.4755 218.884 86.2682C218.884 87.061 219.533 87.7098 220.325 87.7098Z" fill="#F0F8FD"/>
<path fill-rule="evenodd" clip-rule="evenodd" d="M220.325 80.1473H228.04C228.835 80.1473 229.484 79.4985 229.484 78.7057C229.484 77.913 228.835 77.2642 228.04 77.2642H220.325C219.533 77.2642 218.884 77.913 218.884 78.7057C218.884 79.4985 219.533 80.1473 220.325 80.1473Z" fill="#F0F8FD"/>
<path fill-rule="evenodd" clip-rule="evenodd" d="M215.729 72.5863H234.647C235.44 72.5863 236.088 71.9375 236.088 71.1447C236.088 70.3519 235.44 69.7031 234.647 69.7031H215.729C214.936 69.7031 214.285 70.3519 214.285 71.1447C214.285 71.9375 214.934 72.5863 215.729 72.5863Z" fill="#F0F8FD"/>
<path fill-rule="evenodd" clip-rule="evenodd" d="M220.325 65.0253H229.162C229.955 65.0253 230.604 64.3765 230.604 63.5837C230.604 62.7909 229.955 62.1421 229.162 62.1421H220.325C219.533 62.1421 218.884 62.7909 218.884 63.5837C218.884 64.3765 219.533 65.0253 220.325 65.0253Z" fill="#F0F8FD"/>
<path fill-rule="evenodd" clip-rule="evenodd" d="M220.325 57.4642H241.888C242.681 57.4642 243.33 56.8154 243.33 56.0226C243.33 55.2299 242.681 54.5811 241.888 54.5811H220.325C219.533 54.5811 218.884 55.2299 218.884 56.0226C218.884 56.8154 219.533 57.4642 220.325 57.4642Z" fill="#F0F8FD"/>
<path fill-rule="evenodd" clip-rule="evenodd" d="M215.729 49.9037H232.422C233.215 49.9037 233.864 49.2549 233.864 48.4621C233.864 47.6693 233.215 47.0205 232.422 47.0205H215.729C214.936 47.0205 214.285 47.6693 214.285 48.4621C214.285 49.2549 214.934 49.9037 215.729 49.9037Z" fill="#F0F8FD"/>
<path fill-rule="evenodd" clip-rule="evenodd" d="M220.325 42.3422H241.888C242.681 42.3422 243.33 41.6933 243.33 40.9006C243.33 40.1078 242.681 39.459 241.888 39.459H220.325C219.533 39.459 218.884 40.1078 218.884 40.9006C218.884 41.6933 219.533 42.3422 220.325 42.3422Z" fill="#F0F8FD"/>
<path fill-rule="evenodd" clip-rule="evenodd" d="M220.325 34.7816H234.99C235.783 34.7816 236.431 34.1328 236.431 33.34C236.431 32.5473 235.783 31.8984 234.99 31.8984H220.325C219.533 31.8984 218.884 32.5473 218.884 33.34C218.884 34.1328 219.533 34.7816 220.325 34.7816Z" fill="#F0F8FD"/>
<path fill-rule="evenodd" clip-rule="evenodd" d="M215.729 27.2186H224.928C225.721 27.2186 226.37 26.5698 226.37 25.777C226.37 24.9843 225.721 24.3354 224.928 24.3354H215.729C214.936 24.3354 214.285 24.9843 214.285 25.777C214.285 26.5698 214.934 27.2186 215.729 27.2186Z" fill="#F0F8FD"/>
<path fill-rule="evenodd" clip-rule="evenodd" d="M74.8583 107.583C70.1865 110.421 68.6995 117.721 71.5374 123.888C74.3752 130.057 80.463 132.758 85.1348 129.923C89.8067 127.087 91.2936 119.786 88.4558 113.615C85.618 107.447 79.5302 104.747 74.8603 107.581" fill="#105DC4"/>
<path fill-rule="evenodd" clip-rule="evenodd" d="M73.1826 108.435C68.5107 111.273 67.0238 118.573 69.8616 124.74C72.6994 130.911 78.7872 133.61 83.4571 130.775C88.1289 127.937 89.6159 120.636 86.778 114.467C84.9105 110.407 81.6349 107.849 78.2823 107.384L79.3749 106.471C75.3361 93.4372 85.1156 72.0422 101.59 72.4011C85.1629 64.5108 69.1181 86.2786 74.565 107.766L75.2217 107.559C74.5216 107.745 73.8373 108.035 73.1806 108.433" fill="#1D89E8"/>
<path fill-rule="evenodd" clip-rule="evenodd" d="M215.729 116.656H231.596C232.389 116.656 233.038 116.007 233.038 115.213C233.038 114.418 232.389 113.771 231.596 113.771H215.729C214.936 113.771 214.285 114.42 214.285 115.213C214.285 116.005 214.934 116.656 215.729 116.656Z" fill="#F0F8FD"/>
<path fill-rule="evenodd" clip-rule="evenodd" d="M220.325 123.338H241.007C241.799 123.338 242.448 122.689 242.448 121.894C242.448 121.099 241.799 120.451 241.007 120.451H220.325C219.533 120.451 218.884 121.099 218.884 121.894C218.884 122.689 219.533 123.338 220.325 123.338Z" fill="#F0F8FD"/>
<path fill-rule="evenodd" clip-rule="evenodd" d="M220.325 130.017H233.132C233.925 130.017 234.574 129.368 234.574 128.575C234.574 127.783 233.925 127.132 233.132 127.132H220.325C219.533 127.132 218.884 127.781 218.884 128.575C218.884 129.37 219.533 130.017 220.325 130.017Z" fill="#F0F8FD"/>
</g>
<defs>
<linearGradient id="paint0_linear_1772_3611" x1="311.901" y1="196.454" x2="313.074" y2="29.8671" gradientUnits="userSpaceOnUse">
<stop stop-color="#022FA0"/>
<stop offset="0.69" stop-color="#398BE0"/>
<stop offset="1" stop-color="#54B7FF"/>
</linearGradient>
<clipPath id="clip0_1772_3611">
<rect width="434.642" height="283.729" fill="white" transform="translate(0.358398)"/>
</clipPath>
</defs>
</svg>
