<svg width="120" height="120" viewBox="0 0 120 120" fill="none" xmlns="http://www.w3.org/2000/svg">
<path d="M97.023 8.94323C88.1962 6.98321 65.0626 5.63653 56.4892 2.7165C35.3423 -4.48359 14.342 2.48982 9.86198 25.3034C8.26196 33.4368 6.24861 51.6637 3.36857 59.4105C-4.59152 80.8107 1.35522 103.918 23.5288 110.118C31.3156 112.291 52.1958 115.171 59.9959 117.264C82.2762 123.251 104.863 120.025 108.676 101.131C110.316 93.0109 113.183 65.8906 116.077 58.1438C124.037 36.7436 120.93 14.2366 97.023 8.94323Z" fill="#D80027" fill-opacity="0.06"/>
<path d="M102.463 29.73H17.1289V95.0641H102.463V29.73Z" fill="url(#paint0_linear_1771_3337)"/>
<path d="M57.7963 29.73L19.4492 95.0641H25.316L63.6631 29.73H57.7963Z" fill="url(#paint1_linear_1771_3337)"/>
<path d="M74.7713 29.73L36.4375 95.0641H49.6777L88.0248 29.73H74.7713Z" fill="url(#paint2_linear_1771_3337)"/>
<path d="M18.4623 16.3965H101.13C101.863 16.3965 102.463 16.9965 102.463 17.7298V29.73H17.1289V17.7298C17.1289 16.9965 17.7289 16.3965 18.4623 16.3965Z" fill="url(#paint3_linear_1771_3337)"/>
<path d="M17.1289 95.0645H102.463V100.398C102.463 101.131 101.863 101.731 101.13 101.731H18.4623C17.7289 101.731 17.1289 101.131 17.1289 100.398V95.0645Z" fill="url(#paint4_linear_1771_3337)"/>
<path d="M95.4636 24.7305C95.0236 24.7305 94.5969 24.5571 94.2769 24.2504C93.9702 23.9304 93.7969 23.5038 93.7969 23.0638C93.7969 22.6238 93.9702 22.1971 94.2769 21.8904C94.9036 21.2637 96.0102 21.2637 96.6369 21.8904C96.9436 22.1971 97.1169 22.6238 97.1169 23.0638C97.1169 23.5038 96.9436 23.9304 96.6369 24.2504C96.3169 24.5571 95.8902 24.7305 95.4636 24.7305Z" fill="#FCF1FA"/>
<path d="M85.1309 23.0637C85.1309 22.1436 85.8642 21.397 86.7842 21.397C87.7042 21.397 88.4642 22.1436 88.4642 23.0637C88.4642 23.9837 87.7042 24.7303 86.7842 24.7303C85.8642 24.7303 85.1309 23.9837 85.1309 23.0637Z" fill="#FCF1FA"/>
<path d="M78.1292 24.7305C77.6892 24.7305 77.2626 24.5571 76.9426 24.2504C76.6359 23.9304 76.4492 23.5038 76.4492 23.0638C76.4492 22.6238 76.6359 22.1971 76.9426 21.8904C77.5692 21.2637 78.6759 21.2637 79.3026 21.8904C79.6093 22.1971 79.7959 22.6238 79.7959 23.0638C79.7959 23.5038 79.6093 23.9304 79.3026 24.2504C78.9959 24.5571 78.5559 24.7305 78.1292 24.7305Z" fill="#FCF1FA"/>
<path d="M68.743 75.2104H59.7962C59.0599 75.2104 58.4629 75.8074 58.4629 76.5438V87.0639C58.4629 87.8003 59.0599 88.3973 59.7962 88.3973H68.743C69.4794 88.3973 70.0764 87.8003 70.0764 87.0639V76.5438C70.0764 75.8074 69.4794 75.2104 68.743 75.2104Z" fill="url(#paint5_linear_1771_3337)"/>
<path d="M94.4619 75.2104H77.515C76.7786 75.2104 76.1816 75.8074 76.1816 76.5438V87.0639C76.1816 87.8003 76.7786 88.3973 77.515 88.3973H94.4619C95.1982 88.3973 95.7952 87.8003 95.7952 87.0639V76.5438C95.7952 75.8074 95.1982 75.2104 94.4619 75.2104Z" fill="url(#paint6_linear_1771_3337)"/>
<path d="M94.4633 56.877H59.7962C59.0599 56.877 58.4629 57.4739 58.4629 58.2103V67.3971C58.4629 68.1335 59.0599 68.7304 59.7962 68.7304H94.4633C95.1997 68.7304 95.7967 68.1335 95.7967 67.3971V58.2103C95.7967 57.4739 95.1997 56.877 94.4633 56.877Z" fill="url(#paint7_linear_1771_3337)"/>
<path d="M94.4624 36.397H25.1283C24.3919 36.397 23.7949 36.9939 23.7949 37.7303V48.8771C23.7949 49.6135 24.3919 50.2105 25.1283 50.2105H94.4624C95.1988 50.2105 95.7958 49.6135 95.7958 48.8771V37.7303C95.7958 36.9939 95.1988 36.397 94.4624 36.397Z" fill="url(#paint8_linear_1771_3337)"/>
<path d="M50.1286 56.877H25.1283C24.3919 56.877 23.7949 57.4739 23.7949 58.2103V87.064C23.7949 87.8004 24.3919 88.3973 25.1283 88.3973H50.1286C50.8649 88.3973 51.4619 87.8004 51.4619 87.064V58.2103C51.4619 57.4739 50.8649 56.877 50.1286 56.877Z" fill="url(#paint9_linear_1771_3337)"/>
<path d="M68.7293 75.2104H59.7826C59.0492 75.2104 58.4492 75.8105 58.4492 76.5438V87.0639C58.4492 87.7973 59.0492 88.3973 59.7826 88.3973H68.7293C69.4627 88.3973 70.0627 87.7973 70.0627 87.0639V76.5438C70.0627 75.8105 69.4627 75.2104 68.7293 75.2104ZM68.0627 86.3972H60.4492V77.2105H68.0627V86.3972Z" fill="url(#paint10_linear_1771_3337)"/>
<path d="M94.4619 75.2104H77.515C76.7816 75.2104 76.1816 75.8105 76.1816 76.5438V87.0639C76.1816 87.7973 76.7816 88.3973 77.515 88.3973H94.4619C95.1952 88.3973 95.7952 87.7973 95.7952 87.0639V76.5438C95.7952 75.8105 95.1952 75.2104 94.4619 75.2104ZM93.7952 86.3972H78.1817V77.2105H93.7952V86.3972Z" fill="url(#paint11_linear_1771_3337)"/>
<path d="M94.4633 56.877H59.7962C59.0629 56.877 58.4629 57.477 58.4629 58.2103V67.3971C58.4629 68.1304 59.0629 68.7304 59.7962 68.7304H94.4633C95.1967 68.7304 95.7967 68.1304 95.7967 67.3971V58.2103C95.7967 57.477 95.1967 56.877 94.4633 56.877ZM93.7966 66.7304H60.4629V58.877H93.7966V66.7304Z" fill="url(#paint12_linear_1771_3337)"/>
<path d="M94.4624 36.397H25.1283C24.3949 36.397 23.7949 36.997 23.7949 37.7303V48.8771C23.7949 49.6105 24.3949 50.2105 25.1283 50.2105H94.4624C95.1958 50.2105 95.7958 49.6105 95.7958 48.8771V37.7303C95.7958 36.997 95.1958 36.397 94.4624 36.397ZM93.7957 48.2104H25.7949V38.397H93.7957V48.2104Z" fill="url(#paint13_linear_1771_3337)"/>
<path d="M50.1286 56.877H25.1283C24.3949 56.877 23.7949 57.477 23.7949 58.2103V87.064C23.7949 87.7973 24.3949 88.3973 25.1283 88.3973H50.1286C50.8619 88.3973 51.4619 87.7973 51.4619 87.064V58.2103C51.4619 57.477 50.8619 56.877 50.1286 56.877ZM49.4619 86.3973H25.7949V58.877H49.4619V86.3973Z" fill="url(#paint14_linear_1771_3337)"/>
<defs>
<linearGradient id="paint0_linear_1771_3337" x1="17.1289" y1="62.397" x2="102.463" y2="62.397" gradientUnits="userSpaceOnUse">
<stop stop-color="#5C3273"/>
<stop offset="1" stop-color="#A36777"/>
</linearGradient>
<linearGradient id="paint1_linear_1771_3337" x1="17.2492" y1="62.397" x2="73.7032" y2="62.397" gradientUnits="userSpaceOnUse">
<stop stop-color="#5C3273"/>
<stop offset="0.04" stop-color="#603573"/>
<stop offset="0.28" stop-color="#7D4B74"/>
<stop offset="0.53" stop-color="#925A76"/>
<stop offset="0.77" stop-color="#9E6376"/>
<stop offset="1" stop-color="#A36777"/>
</linearGradient>
<linearGradient id="paint2_linear_1771_3337" x1="33.8641" y1="62.397" x2="99.7449" y2="62.397" gradientUnits="userSpaceOnUse">
<stop stop-color="#5C3273"/>
<stop offset="0.22" stop-color="#643873"/>
<stop offset="0.57" stop-color="#7D4A74"/>
<stop offset="1" stop-color="#A36777"/>
</linearGradient>
<linearGradient id="paint3_linear_1771_3337" x1="17.1289" y1="23.0632" x2="102.463" y2="23.0632" gradientUnits="userSpaceOnUse">
<stop stop-color="#431863"/>
<stop offset="1" stop-color="#824C71"/>
</linearGradient>
<linearGradient id="paint4_linear_1771_3337" x1="17.1289" y1="98.3978" x2="1.32872" y2="98.3978" gradientUnits="userSpaceOnUse">
<stop stop-color="#B28EA5"/>
<stop offset="1" stop-color="#D0BBC9"/>
</linearGradient>
<linearGradient id="paint5_linear_1771_3337" x1="58.4629" y1="81.8105" x2="70.063" y2="81.8105" gradientUnits="userSpaceOnUse">
<stop stop-color="#FAF2FC"/>
<stop offset="1" stop-color="#FFEFF6"/>
</linearGradient>
<linearGradient id="paint6_linear_1771_3337" x1="76.1816" y1="81.8105" x2="95.7952" y2="81.8105" gradientUnits="userSpaceOnUse">
<stop stop-color="#BF7DF7"/>
<stop offset="1" stop-color="#DF8BFB"/>
</linearGradient>
<linearGradient id="paint7_linear_1771_3337" x1="58.4629" y1="62.8104" x2="95.7967" y2="62.8104" gradientUnits="userSpaceOnUse">
<stop stop-color="#FAF2FC"/>
<stop offset="1" stop-color="#FFEFF6"/>
</linearGradient>
<linearGradient id="paint8_linear_1771_3337" x1="23.7949" y1="43.3037" x2="95.7958" y2="43.3037" gradientUnits="userSpaceOnUse">
<stop stop-color="#FA849E"/>
<stop offset="1" stop-color="#FC99A3"/>
</linearGradient>
<linearGradient id="paint9_linear_1771_3337" x1="23.7949" y1="72.6371" x2="51.4619" y2="72.6371" gradientUnits="userSpaceOnUse">
<stop stop-color="#BF7DF7"/>
<stop offset="1" stop-color="#DF8BFB"/>
</linearGradient>
<linearGradient id="paint10_linear_1771_3337" x1="58.4626" y1="81.8105" x2="70.0627" y2="81.8105" gradientUnits="userSpaceOnUse">
<stop stop-color="#B28EA5"/>
<stop offset="1" stop-color="#D0BBC9"/>
</linearGradient>
<linearGradient id="paint11_linear_1771_3337" x1="76.1816" y1="81.8105" x2="95.7952" y2="81.8105" gradientUnits="userSpaceOnUse">
<stop stop-color="#C571EE"/>
<stop offset="1" stop-color="#C352D5"/>
</linearGradient>
<linearGradient id="paint12_linear_1771_3337" x1="58.4629" y1="62.8104" x2="95.7967" y2="62.8104" gradientUnits="userSpaceOnUse">
<stop stop-color="#B28EA5"/>
<stop offset="1" stop-color="#D0BBC9"/>
</linearGradient>
<linearGradient id="paint13_linear_1771_3337" x1="23.7949" y1="43.3037" x2="95.7958" y2="43.3037" gradientUnits="userSpaceOnUse">
<stop stop-color="#E96987"/>
<stop offset="1" stop-color="#F091A9"/>
</linearGradient>
<linearGradient id="paint14_linear_1771_3337" x1="23.7949" y1="72.6371" x2="51.4619" y2="72.6371" gradientUnits="userSpaceOnUse">
<stop stop-color="#C571EE"/>
<stop offset="1" stop-color="#C352D5"/>
</linearGradient>
</defs>
</svg>
