<svg width="120" height="120" viewBox="0 0 120 120" fill="none" xmlns="http://www.w3.org/2000/svg">
<path d="M97.023 8.94323C88.1962 6.98321 65.0626 5.63653 56.4892 2.71649C35.3423 -4.48359 14.342 2.48982 9.86198 25.3034C8.26196 33.4369 6.24861 51.6637 3.36857 59.4105C-4.59152 80.8107 1.35522 103.918 23.5288 110.118C31.3156 112.291 52.1958 115.171 59.9959 117.264C82.2762 123.265 104.863 120.038 108.676 101.131C110.316 93.0109 113.183 65.8906 116.077 58.1438C124.037 36.7436 120.93 14.2366 97.023 8.94323Z" fill="#D80027" fill-opacity="0.06"/>
<path d="M25.1296 17.5703H94.4637C95.9304 17.5703 97.1304 18.7703 97.1304 20.237V78.9044H22.4629V20.237C22.4629 18.7703 23.6629 17.5703 25.1296 17.5703Z" fill="url(#paint0_linear_1771_3336)"/>
<path d="M90.4643 22.9038H29.1302C28.3938 22.9038 27.7969 23.5008 27.7969 24.2372V72.2377C27.7969 72.9741 28.3938 73.5711 29.1302 73.5711H90.4643C91.2007 73.5711 91.7976 72.9741 91.7976 72.2377V24.2372C91.7976 23.5008 91.2007 22.9038 90.4643 22.9038Z" fill="url(#paint1_linear_1771_3336)"/>
<path d="M78.757 22.9038L36.7832 73.5711H45.4366L87.4238 22.9038H78.757Z" fill="url(#paint2_linear_1771_3336)"/>
<path d="M27.7969 74.0377L70.1574 22.9038H66.6907L27.7969 69.851V74.0377Z" fill="url(#paint3_linear_1771_3336)"/>
<path d="M97.1304 78.9048H22.4629V86.9049H97.1304V78.9048Z" fill="url(#paint4_linear_1771_3336)"/>
<path d="M29.1302 96.238H31.7969C32.5303 96.238 33.1303 95.638 33.1303 94.9046C33.1303 94.1713 32.5303 93.5713 31.7969 93.5713H29.1302C28.3969 93.5713 27.7969 94.1713 27.7969 94.9046C27.7969 95.638 28.3969 96.238 29.1302 96.238Z" fill="#7CBB00"/>
<path d="M19.7966 98.9048H41.1302C42.603 98.9048 43.7969 97.7109 43.7969 96.2381L43.7969 58.9043C43.7969 57.4315 42.603 56.2376 41.1302 56.2376H19.7966C18.3238 56.2376 17.1299 57.4315 17.1299 58.9043L17.1299 96.2381C17.1299 97.7109 18.3238 98.9048 19.7966 98.9048Z" fill="url(#paint5_linear_1771_3336)"/>
<path d="M21.1287 92.2383H39.7956C40.5319 92.2383 41.1289 91.6413 41.1289 90.9049V64.238C41.1289 63.5016 40.5319 62.9046 39.7956 62.9046H21.1287C20.3923 62.9046 19.7953 63.5016 19.7953 64.238L19.7953 90.9049C19.7953 91.6413 20.3923 92.2383 21.1287 92.2383Z" fill="url(#paint6_linear_1771_3336)"/>
<path d="M67.7958 102.905H99.7962C101.269 102.905 102.463 101.711 102.463 100.238V49.5708C102.463 48.0981 101.269 46.9041 99.7962 46.9041L67.7958 46.9041C66.323 46.9041 65.1291 48.0981 65.1291 49.5708V100.238C65.1291 101.711 66.323 102.905 67.7958 102.905Z" fill="url(#paint7_linear_1771_3336)"/>
<path d="M70.4626 96.2383H97.1295C97.8659 96.2383 98.4629 95.6413 98.4629 94.9049V54.9045C98.4629 54.1681 97.8659 53.5711 97.1295 53.5711H70.4626C69.7262 53.5711 69.1292 54.1681 69.1292 54.9045V94.9049C69.1292 95.6413 69.7262 96.2383 70.4626 96.2383Z" fill="url(#paint8_linear_1771_3336)"/>
<path d="M33.7963 60.2376H27.1296C26.7562 60.2376 26.4629 59.9443 26.4629 59.571C26.4629 59.1976 26.7562 58.9043 27.1296 58.9043H33.7963C34.1696 58.9043 34.463 59.1976 34.463 59.571C34.463 59.9443 34.1696 60.2376 33.7963 60.2376Z" fill="#FCF1FA"/>
<path d="M83.7962 51.571C84.5326 51.571 85.1296 50.974 85.1296 50.2376C85.1296 49.5013 84.5326 48.9043 83.7962 48.9043C83.0599 48.9043 82.4629 49.5013 82.4629 50.2376C82.4629 50.974 83.0599 51.571 83.7962 51.571Z" fill="url(#paint9_linear_1771_3336)"/>
<path d="M37.1172 96.5712C36.8639 96.5712 36.6105 96.4645 36.4239 96.2778C36.2239 96.0912 36.1172 95.8245 36.1172 95.5711C36.1172 95.3045 36.2239 95.0511 36.4105 94.8645C36.7972 94.4911 37.4639 94.4911 37.8372 94.8645C38.0239 95.0511 38.1172 95.3045 38.1172 95.5711C38.1172 95.8378 38.0239 96.0778 37.8372 96.2778C37.6505 96.4645 37.3839 96.5712 37.1172 96.5712Z" fill="#FCF1FA"/>
<path d="M29.4492 95.5713C29.4492 95.0113 29.9026 94.5713 30.4492 94.5713C31.0092 94.5713 31.4492 95.0113 31.4492 95.5713C31.4492 96.118 31.0092 96.5713 30.4492 96.5713C29.9026 96.5713 29.4492 96.118 29.4492 95.5713Z" fill="#FCF1FA"/>
<path d="M23.7949 96.5712C23.5283 96.5712 23.2616 96.4645 23.0749 96.2778C22.8883 96.0912 22.7949 95.8245 22.7949 95.5711C22.7949 95.3045 22.8883 95.0511 23.0749 94.8645C23.4616 94.4911 24.1149 94.4911 24.4883 94.8645C24.6883 95.0511 24.7949 95.3045 24.7949 95.5711C24.7949 95.8378 24.6883 96.0912 24.5016 96.2778C24.3016 96.4645 24.0483 96.5712 23.7949 96.5712Z" fill="#FCF1FA"/>
<path d="M91.7832 100.571C91.5299 100.571 91.2632 100.464 91.0765 100.278C90.8899 100.091 90.7832 99.8378 90.7832 99.5711C90.7832 99.3045 90.8899 99.0511 91.0899 98.8645C91.4499 98.4911 92.1299 98.4911 92.5032 98.8645C92.6899 99.0511 92.7832 99.3045 92.7832 99.5711C92.7832 99.8378 92.6899 100.091 92.5032 100.278C92.3166 100.464 92.0499 100.571 91.7832 100.571Z" fill="#FCF1FA"/>
<path d="M82.7969 99.5713C82.7969 99.0113 83.2369 98.5713 83.7836 98.5713C84.3436 98.5713 84.7836 99.0113 84.7836 99.5713C84.7836 100.118 84.3436 100.571 83.7836 100.571C83.2369 100.571 82.7969 100.118 82.7969 99.5713Z" fill="#FCF1FA"/>
<path d="M75.7969 100.571C75.5302 100.571 75.2636 100.464 75.0769 100.278C74.8902 100.091 74.7969 99.8245 74.7969 99.5711C74.7969 99.3045 74.8902 99.0511 75.0769 98.8645C75.4502 98.4911 76.1302 98.4911 76.5036 98.8645C76.6769 99.0511 76.7969 99.3045 76.7969 99.5711C76.7969 99.8378 76.6769 100.091 76.4902 100.278C76.3036 100.464 76.0502 100.571 75.7969 100.571Z" fill="#FCF1FA"/>
<path d="M21.3164 92.238H29.9698L41.13 78.7845V68.3311L21.3164 92.238Z" fill="url(#paint10_linear_1771_3336)"/>
<path d="M33.5551 62.9043L19.7949 79.5045V83.6912L37.0085 62.9043H33.5551Z" fill="url(#paint11_linear_1771_3336)"/>
<path d="M70.3984 96.2243C70.3984 96.2243 70.4384 96.2243 70.4651 96.2243H79.0519L98.4654 72.784V62.3306L70.3984 96.211V96.2243Z" fill="url(#paint12_linear_1771_3336)"/>
<path d="M93.6625 53.5708L69.1289 83.1978V87.3712L97.1292 53.5708H93.6625Z" fill="url(#paint13_linear_1771_3336)"/>
<defs>
<linearGradient id="paint0_linear_1771_3336" x1="22.4629" y1="48.2373" x2="97.1304" y2="48.2373" gradientUnits="userSpaceOnUse">
<stop stop-color="#C571EE"/>
<stop offset="1" stop-color="#C352D5"/>
</linearGradient>
<linearGradient id="paint1_linear_1771_3336" x1="27.7969" y1="48.2374" x2="91.7976" y2="48.2374" gradientUnits="userSpaceOnUse">
<stop stop-color="#5C3273"/>
<stop offset="1" stop-color="#A36777"/>
</linearGradient>
<linearGradient id="paint2_linear_1771_3336" x1="36.7832" y1="48.2374" x2="87.4238" y2="48.2374" gradientUnits="userSpaceOnUse">
<stop stop-color="#431863"/>
<stop offset="1" stop-color="#824C71"/>
</linearGradient>
<linearGradient id="paint3_linear_1771_3336" x1="27.7969" y1="48.4641" x2="70.1574" y2="48.4641" gradientUnits="userSpaceOnUse">
<stop stop-color="#431863"/>
<stop offset="1" stop-color="#824C71"/>
</linearGradient>
<linearGradient id="paint4_linear_1771_3336" x1="22.4629" y1="82.9048" x2="97.1304" y2="82.9048" gradientUnits="userSpaceOnUse">
<stop stop-color="#BF7DF7"/>
<stop offset="1" stop-color="#DF8BFB"/>
</linearGradient>
<linearGradient id="paint5_linear_1771_3336" x1="17.1299" y1="77.5712" x2="43.7969" y2="77.5712" gradientUnits="userSpaceOnUse">
<stop stop-color="#E96987"/>
<stop offset="1" stop-color="#F091A9"/>
</linearGradient>
<linearGradient id="paint6_linear_1771_3336" x1="19.7953" y1="77.5714" x2="41.1289" y2="77.5714" gradientUnits="userSpaceOnUse">
<stop stop-color="#5C3273"/>
<stop offset="1" stop-color="#A36777"/>
</linearGradient>
<linearGradient id="paint7_linear_1771_3336" x1="65.1291" y1="74.9045" x2="102.463" y2="74.9045" gradientUnits="userSpaceOnUse">
<stop stop-color="#B28EA5"/>
<stop offset="1" stop-color="#D0BBC9"/>
</linearGradient>
<linearGradient id="paint8_linear_1771_3336" x1="69.1292" y1="74.9047" x2="98.4629" y2="74.9047" gradientUnits="userSpaceOnUse">
<stop stop-color="#5C3273"/>
<stop offset="1" stop-color="#A36777"/>
</linearGradient>
<linearGradient id="paint9_linear_1771_3336" x1="82.4629" y1="50.2376" x2="85.1296" y2="50.2376" gradientUnits="userSpaceOnUse">
<stop stop-color="#FAF2FC"/>
<stop offset="1" stop-color="#FFEFF6"/>
</linearGradient>
<linearGradient id="paint10_linear_1771_3336" x1="21.3164" y1="80.2912" x2="41.13" y2="80.2912" gradientUnits="userSpaceOnUse">
<stop stop-color="#431863"/>
<stop offset="1" stop-color="#824C71"/>
</linearGradient>
<linearGradient id="paint11_linear_1771_3336" x1="19.7949" y1="73.3044" x2="37.0085" y2="73.3044" gradientUnits="userSpaceOnUse">
<stop stop-color="#431863"/>
<stop offset="1" stop-color="#824C71"/>
</linearGradient>
<linearGradient id="paint12_linear_1771_3336" x1="70.3984" y1="79.2908" x2="98.4654" y2="79.2908" gradientUnits="userSpaceOnUse">
<stop stop-color="#431863"/>
<stop offset="1" stop-color="#824C71"/>
</linearGradient>
<linearGradient id="paint13_linear_1771_3336" x1="69.1289" y1="70.4777" x2="97.1292" y2="70.4777" gradientUnits="userSpaceOnUse">
<stop stop-color="#431863"/>
<stop offset="1" stop-color="#824C71"/>
</linearGradient>
</defs>
</svg>
