<svg width="120" height="120" viewBox="0 0 120 120" fill="none" xmlns="http://www.w3.org/2000/svg">
<g clip-path="url(#clip0_1771_3491)">
<path d="M97.0258 8.94655C88.1991 6.98655 65.0658 5.63988 56.4924 2.71988C35.3458 -4.48012 14.3458 2.49321 9.86577 25.3065C8.26577 33.4399 6.25244 51.6666 3.37244 59.4132C-4.58756 80.8132 1.35911 103.92 23.5324 110.12C31.3191 112.293 52.1991 115.16 59.9991 117.267C82.2791 123.253 104.866 120.027 108.679 101.133C110.319 93.0132 113.186 65.8932 116.079 58.1466C124.039 36.7466 120.932 14.2399 97.0258 8.94655Z" fill="#D80027" fill-opacity="0.06"/>
<path d="M74.4661 93.6797H45.1328V100.346H74.4661V93.6797Z" fill="url(#paint0_linear_1771_3491)"/>
<path d="M19.7995 17.6797H99.7995C101.266 17.6797 102.466 18.8797 102.466 20.3464V84.3464H17.1328V20.3464C17.1328 18.8797 18.3328 17.6797 19.7995 17.6797Z" fill="url(#paint1_linear_1771_3491)"/>
<path d="M22.4658 32.3462H97.1325V77.6795C97.1325 78.4129 96.5325 79.0129 95.7991 79.0129H23.7992C23.0658 79.0129 22.4658 78.4129 22.4658 77.6795V32.3462Z" fill="url(#paint2_linear_1771_3491)"/>
<path d="M23.7992 23.0132H95.7991C96.5325 23.0132 97.1325 23.6132 97.1325 24.3465V32.3465H22.4658V24.3465C22.4658 23.6132 23.0658 23.0132 23.7992 23.0132Z" fill="url(#paint3_linear_1771_3491)"/>
<path d="M17.1328 84.3462H102.466V91.0129C102.466 92.4795 101.266 93.6795 99.7995 93.6795H19.7995C18.3328 93.6795 17.1328 92.4795 17.1328 91.0129V84.3462Z" fill="url(#paint4_linear_1771_3491)"/>
<path d="M85.7995 100.333H33.7995C33.4313 100.333 33.1328 100.632 33.1328 101V102.333C33.1328 102.702 33.4313 103 33.7995 103H85.7995C86.1677 103 86.4661 102.702 86.4661 102.333V101C86.4661 100.632 86.1677 100.333 85.7995 100.333Z" fill="url(#paint5_linear_1771_3491)"/>
<path d="M91.1331 29.0133C90.7731 29.0133 90.4398 28.8666 90.1865 28.6266C89.9331 28.3733 89.7998 28.0266 89.7998 27.6799C89.7998 27.3333 89.9331 26.9733 90.1865 26.7333C90.6798 26.2399 91.5731 26.2399 92.0798 26.7333C92.3198 26.9866 92.4665 27.3333 92.4665 27.6799C92.4665 28.0266 92.3198 28.3733 92.0798 28.6133C91.8265 28.8666 91.4798 29.0133 91.1331 29.0133Z" fill="#FC95A2"/>
<path d="M83.1328 27.6795C83.1328 26.9462 83.7195 26.3462 84.4661 26.3462C85.1995 26.3462 85.7995 26.9462 85.7995 27.6795C85.7995 28.4129 85.1995 29.0129 84.4661 29.0129C83.7195 29.0129 83.1328 28.4129 83.1328 27.6795Z" fill="#FC95A2"/>
<path d="M77.7992 29.0137C77.4392 29.0137 77.0925 28.867 76.8525 28.6137C76.6125 28.3737 76.4658 28.027 76.4658 27.6803C76.4658 27.3337 76.6125 26.9737 76.8525 26.7337C77.3325 26.2537 78.2392 26.2403 78.7325 26.7337C78.9858 26.9737 79.1325 27.3203 79.1325 27.6803C79.1325 28.0403 78.9858 28.3737 78.7325 28.627C78.4925 28.867 78.1458 29.0137 77.7992 29.0137Z" fill="#FC95A2"/>
<path d="M31.1468 37.68H27.7868C27.4135 37.68 27.1201 37.3867 27.1201 37.0133C27.1201 36.64 27.4135 36.3467 27.7868 36.3467H31.1468C31.5201 36.3467 31.8135 36.64 31.8135 37.0133C31.8135 37.3867 31.5201 37.68 31.1468 37.68Z" fill="#EE87A1"/>
<path d="M31.1468 42.9998H27.7868C27.4135 42.9998 27.1201 42.7065 27.1201 42.3332C27.1201 41.9598 27.4135 41.6665 27.7868 41.6665H31.1468C31.5201 41.6665 31.8135 41.9598 31.8135 42.3332C31.8135 42.7065 31.5201 42.9998 31.1468 42.9998Z" fill="#EE87A1"/>
<path d="M31.1468 53.6668H27.7868C27.4135 53.6668 27.1201 53.3735 27.1201 53.0002C27.1201 52.6268 27.4135 52.3335 27.7868 52.3335H31.1468C31.5201 52.3335 31.8135 52.6268 31.8135 53.0002C31.8135 53.3735 31.5201 53.6668 31.1468 53.6668Z" fill="#EE87A1"/>
<path d="M31.1468 64.3333H27.7868C27.4135 64.3333 27.1201 64.04 27.1201 63.6667C27.1201 63.2933 27.4135 63 27.7868 63H31.1468C31.5201 63 31.8135 63.2933 31.8135 63.6667C31.8135 64.04 31.5201 64.3333 31.1468 64.3333Z" fill="#EE87A1"/>
<path d="M31.1468 75.0135H27.7868C27.4135 75.0135 27.1201 74.7202 27.1201 74.3468C27.1201 73.9735 27.4135 73.6802 27.7868 73.6802H31.1468C31.5201 73.6802 31.8135 73.9735 31.8135 74.3468C31.8135 74.7202 31.5201 75.0135 31.1468 75.0135Z" fill="#EE87A1"/>
<path d="M83.6929 42.9998H72.8796C72.5062 42.9998 72.2129 42.7065 72.2129 42.3332C72.2129 41.9598 72.5062 41.6665 72.8796 41.6665H83.6929C84.0662 41.6665 84.3596 41.9598 84.3596 42.3332C84.3596 42.7065 84.0662 42.9998 83.6929 42.9998Z" fill="#C6ACBD"/>
<path d="M59.7198 48.3333H46.4665C46.0931 48.3333 45.7998 48.04 45.7998 47.6667C45.7998 47.2933 46.0931 47 46.4665 47H59.7198C60.0931 47 60.3865 47.2933 60.3865 47.6667C60.3865 48.04 60.0931 48.3333 59.7198 48.3333Z" fill="#C6ACBD"/>
<path d="M61.2257 37.6795H51.359C50.9857 37.6795 50.6924 37.3862 50.6924 37.0129C50.6924 36.6395 50.9857 36.3462 51.359 36.3462H61.2257C61.599 36.3462 61.8924 36.6395 61.8924 37.0129C61.8924 37.3862 61.599 37.6795 61.2257 37.6795Z" fill="#C6ACBD"/>
<path d="M40.9061 69.6795H27.7995C27.4261 69.6795 27.1328 69.3862 27.1328 69.0129C27.1328 68.6395 27.4261 68.3462 27.7995 68.3462H40.9061C41.2795 68.3462 41.5728 68.6395 41.5728 69.0129C41.5728 69.3862 41.2795 69.6795 40.9061 69.6795Z" fill="#C6ACBD"/>
<path d="M91.4393 53.6668H84.9059C84.5326 53.6668 84.2393 53.3735 84.2393 53.0002C84.2393 52.6268 84.5326 52.3335 84.9059 52.3335H91.4393C91.8126 52.3335 92.1059 52.6268 92.1059 53.0002C92.1059 53.3735 91.8126 53.6668 91.4393 53.6668Z" fill="#C6ACBD"/>
<path d="M61.8135 64.3333H49.2135C48.8402 64.3333 48.5469 64.04 48.5469 63.6667C48.5469 63.2933 48.8402 63 49.2135 63H61.8135C62.1869 63 62.4802 63.2933 62.4802 63.6667C62.4802 64.04 62.1869 64.3333 61.8135 64.3333Z" fill="#C6ACBD"/>
<path d="M36.3995 58.9998H27.7995C27.4261 58.9998 27.1328 58.7065 27.1328 58.3332C27.1328 57.9598 27.4261 57.6665 27.7995 57.6665H36.3995C36.7728 57.6665 37.0661 57.9598 37.0661 58.3332C37.0661 58.7065 36.7728 58.9998 36.3995 58.9998Z" fill="#FAF2FC"/>
<path d="M54.6401 58.9998H42.0934C41.7201 58.9998 41.4268 58.7065 41.4268 58.3332C41.4268 57.9598 41.7201 57.6665 42.0934 57.6665H54.6401C55.0134 57.6665 55.3068 57.9598 55.3068 58.3332C55.3068 58.7065 55.0134 58.9998 54.6401 58.9998Z" fill="#FAF2FC"/>
<path d="M46.1201 37.6795H35.0934C34.7201 37.6795 34.4268 37.3862 34.4268 37.0129C34.4268 36.6395 34.7201 36.3462 35.0934 36.3462H46.1201C46.4934 36.3462 46.7868 36.6395 46.7868 37.0129C46.7868 37.3862 46.4934 37.6795 46.1201 37.6795Z" fill="#FAF2FC"/>
<path d="M50.5201 42.9998H35.0934C34.7201 42.9998 34.4268 42.7065 34.4268 42.3332C34.4268 41.9598 34.7201 41.6665 35.0934 41.6665H50.5201C50.8934 41.6665 51.1868 41.9598 51.1868 42.3332C51.1868 42.7065 50.8934 42.9998 50.5201 42.9998Z" fill="#FAF2FC"/>
<path d="M67.6538 42.9998H55.7604C55.3871 42.9998 55.0938 42.7065 55.0938 42.3332C55.0938 41.9598 55.3871 41.6665 55.7604 41.6665H67.6538C68.0271 41.6665 68.3204 41.9598 68.3204 42.3332C68.3204 42.7065 68.0271 42.9998 67.6538 42.9998Z" fill="#FAF2FC"/>
<path d="M50.8804 53.6668H35.1071C34.7338 53.6668 34.4404 53.3735 34.4404 53.0002C34.4404 52.6268 34.7338 52.3335 35.1071 52.3335H50.8804C51.2538 52.3335 51.5471 52.6268 51.5471 53.0002C51.5471 53.3735 51.2538 53.6668 50.8804 53.6668Z" fill="#FAF2FC"/>
<path d="M66.7465 53.6668H56.1198C55.7465 53.6668 55.4531 53.3735 55.4531 53.0002C55.4531 52.6268 55.7465 52.3335 56.1198 52.3335H66.7465C67.1198 52.3335 67.4131 52.6268 67.4131 53.0002C67.4131 53.3735 67.1198 53.6668 66.7465 53.6668Z" fill="#FAF2FC"/>
<path d="M79.667 53.6668H71.987C71.6136 53.6668 71.3203 53.3735 71.3203 53.0002C71.3203 52.6268 71.6136 52.3335 71.987 52.3335H79.667C80.0403 52.3335 80.3336 52.6268 80.3336 53.0002C80.3336 53.3735 80.0403 53.6668 79.667 53.6668Z" fill="#FAF2FC"/>
<path d="M56.7855 69.6795H46.1589C45.7855 69.6795 45.4922 69.3862 45.4922 69.0129C45.4922 68.6395 45.7855 68.3462 46.1589 68.3462H56.7855C57.1589 68.3462 57.4522 68.6395 57.4522 69.0129C57.4522 69.3862 57.1589 69.6795 56.7855 69.6795Z" fill="#FAF2FC"/>
<path d="M65.1732 75.0135H54.5465C54.1732 75.0135 53.8799 74.7202 53.8799 74.3468C53.8799 73.9735 54.1732 73.6802 54.5465 73.6802H65.1732C65.5466 73.6802 65.8399 73.9735 65.8399 74.3468C65.8399 74.7202 65.5466 75.0135 65.1732 75.0135Z" fill="#FAF2FC"/>
<path d="M78.4812 75.013H70.5212C70.1478 75.013 69.8545 74.7197 69.8545 74.3464C69.8545 73.973 70.1478 73.6797 70.5212 73.6797H78.4812C78.8545 73.6797 79.1478 73.973 79.1478 74.3464C79.1478 74.7197 78.8545 75.013 78.4812 75.013Z" fill="#FAF2FC"/>
<path d="M72.3727 69.6795H62.026C61.6527 69.6795 61.3594 69.3862 61.3594 69.0129C61.3594 68.6395 61.6527 68.3462 62.026 68.3462H72.3727C72.746 68.3462 73.0394 68.6395 73.0394 69.0129C73.0394 69.3862 72.746 69.6795 72.3727 69.6795Z" fill="#FAF2FC"/>
<path d="M41.2395 48.3333H27.7995C27.4261 48.3333 27.1328 48.04 27.1328 47.6667C27.1328 47.2933 27.4261 47 27.7995 47H41.2395C41.6128 47 41.9061 47.2933 41.9061 47.6667C41.9061 48.04 41.6128 48.3333 41.2395 48.3333Z" fill="#FAF2FC"/>
<path d="M73.4273 48.3333H64.9606C64.5873 48.3333 64.2939 48.04 64.2939 47.6667C64.2939 47.2933 64.5873 47 64.9606 47H73.4273C73.8006 47 74.0939 47.2933 74.0939 47.6667C74.0939 48.04 73.8006 48.3333 73.4273 48.3333Z" fill="#FAF2FC"/>
<path d="M43.9734 64.3333H35.0934C34.7201 64.3333 34.4268 64.04 34.4268 63.6667C34.4268 63.2933 34.7201 63 35.0934 63H43.9734C44.3468 63 44.6401 63.2933 44.6401 63.6667C44.6401 64.04 44.3468 64.3333 43.9734 64.3333Z" fill="#FAF2FC"/>
<path d="M49.3068 75.013H35.0934C34.7201 75.013 34.4268 74.7197 34.4268 74.3464C34.4268 73.973 34.7201 73.6797 35.0934 73.6797H49.3068C49.6801 73.6797 49.9734 73.973 49.9734 74.3464C49.9734 74.7197 49.6801 75.013 49.3068 75.013Z" fill="#FAF2FC"/>
<path d="M76.2139 64.3333H67.5339C67.1605 64.3333 66.8672 64.04 66.8672 63.6667C66.8672 63.2933 67.1605 63 67.5339 63H76.2139C76.5872 63 76.8805 63.2933 76.8805 63.6667C76.8805 64.04 76.5872 64.3333 76.2139 64.3333Z" fill="#FAF2FC"/>
<path d="M91.439 64.3333H81.9323C81.559 64.3333 81.2656 64.04 81.2656 63.6667C81.2656 63.2933 81.559 63 81.9323 63H91.439C91.8123 63 92.1056 63.2933 92.1056 63.6667C92.1056 64.04 91.8123 64.3333 91.439 64.3333Z" fill="#FAF2FC"/>
<path d="M74.0671 37.68H66.4538C66.0804 37.68 65.7871 37.3867 65.7871 37.0133C65.7871 36.64 66.0804 36.3467 66.4538 36.3467H74.0671C74.4404 36.3467 74.7338 36.64 74.7338 37.0133C74.7338 37.3867 74.4404 37.68 74.0671 37.68Z" fill="#FAF2FC"/>
<path d="M91.8006 37.6795H79.3073C78.934 37.6795 78.6406 37.3862 78.6406 37.0129C78.6406 36.6395 78.934 36.3462 79.3073 36.3462H91.8006C92.174 36.3462 92.4673 36.6395 92.4673 37.0129C92.4673 37.3862 92.174 37.6795 91.8006 37.6795Z" fill="#FAF2FC"/>
</g>
<defs>
<linearGradient id="paint0_linear_1771_3491" x1="45.1328" y1="97.013" x2="74.4661" y2="97.013" gradientUnits="userSpaceOnUse">
<stop stop-color="#5C3273"/>
<stop offset="1" stop-color="#A36777"/>
</linearGradient>
<linearGradient id="paint1_linear_1771_3491" x1="17.1328" y1="51.013" x2="102.466" y2="51.013" gradientUnits="userSpaceOnUse">
<stop stop-color="#C571EE"/>
<stop offset="1" stop-color="#C352D5"/>
</linearGradient>
<linearGradient id="paint2_linear_1771_3491" x1="22.4658" y1="55.6795" x2="97.1325" y2="55.6795" gradientUnits="userSpaceOnUse">
<stop stop-color="#5C3273"/>
<stop offset="1" stop-color="#A36777"/>
</linearGradient>
<linearGradient id="paint3_linear_1771_3491" x1="22.4658" y1="27.6799" x2="97.1325" y2="27.6799" gradientUnits="userSpaceOnUse">
<stop stop-color="#431863"/>
<stop offset="1" stop-color="#824C71"/>
</linearGradient>
<linearGradient id="paint4_linear_1771_3491" x1="17.1328" y1="89.0129" x2="102.466" y2="89.0129" gradientUnits="userSpaceOnUse">
<stop stop-color="#431863"/>
<stop offset="1" stop-color="#824C71"/>
</linearGradient>
<linearGradient id="paint5_linear_1771_3491" x1="33.1328" y1="101.667" x2="86.4661" y2="101.667" gradientUnits="userSpaceOnUse">
<stop stop-color="#431863"/>
<stop offset="1" stop-color="#824C71"/>
</linearGradient>
<clipPath id="clip0_1771_3491">
<rect width="120" height="120" fill="white"/>
</clipPath>
</defs>
</svg>
