<svg width="120" height="120" viewBox="0 0 120 120" fill="none" xmlns="http://www.w3.org/2000/svg">
<g clip-path="url(#clip0_1771_3403)">
<path d="M97.0258 8.94655C88.1991 6.98655 65.0658 5.63988 56.4924 2.71988C35.3458 -4.48012 14.3458 2.49321 9.86577 25.3065C8.26577 33.4399 6.25244 51.6665 3.37244 59.4132C-4.58756 80.8132 1.35911 103.92 23.5324 110.12C31.3191 112.293 52.1991 115.173 59.9991 117.267C82.2791 123.267 104.866 120.04 108.679 101.133C110.319 93.0132 113.199 65.8932 116.079 58.1465C124.039 36.7465 120.932 14.2399 97.0258 8.94655Z" fill="#D80027" fill-opacity="0.06"/>
<path d="M18.2939 30.9067H103.627V101.573C103.627 102.307 103.027 102.907 102.294 102.907H19.6273C18.8939 102.907 18.2939 102.307 18.2939 101.573V30.9067Z" fill="url(#paint0_linear_1771_3403)"/>
<path d="M58.9613 30.9067L20.6279 102.907H26.4813L64.8279 30.9067H58.9613Z" fill="url(#paint1_linear_1771_3403)"/>
<path d="M75.9453 30.9067L37.5986 102.907H50.8386L89.1853 30.9067H75.9453Z" fill="url(#paint2_linear_1771_3403)"/>
<path d="M94.2946 94.5736H27.6279C27.0813 94.5736 26.6279 94.1202 26.6279 93.5736V40.2402C26.6279 39.6936 27.0813 39.2402 27.6279 39.2402H94.2946C94.8413 39.2402 95.2946 39.6936 95.2946 40.2402V93.5736C95.2946 94.1202 94.8413 94.5736 94.2946 94.5736ZM28.6279 92.5736H93.2946V41.2402H28.6279V92.5736Z" fill="#C3A7B9"/>
<path d="M19.6273 17.5737H102.294C103.027 17.5737 103.627 18.1737 103.627 18.9071V30.9071H18.2939V18.9071C18.2939 18.1737 18.8939 17.5737 19.6273 17.5737Z" fill="url(#paint3_linear_1771_3403)"/>
<path d="M96.6276 25.9062C96.2009 25.9062 95.7609 25.7329 95.4543 25.4262C95.1476 25.1062 94.9609 24.6795 94.9609 24.2395C94.9609 23.7995 95.1476 23.3729 95.4543 23.0662C96.0809 22.4395 97.1876 22.4395 97.8143 23.0662C98.1209 23.3729 98.3076 23.7995 98.3076 24.2395C98.3076 24.6795 98.1209 25.1062 97.8143 25.4262C97.4943 25.7329 97.0676 25.9062 96.6276 25.9062Z" fill="white"/>
<path d="M86.3076 24.2404C86.3076 23.3204 87.0409 22.5737 87.9609 22.5737C88.8809 22.5737 89.6276 23.3204 89.6276 24.2404C89.6276 25.1604 88.8809 25.9071 87.9609 25.9071C87.0409 25.9071 86.3076 25.1604 86.3076 24.2404Z" fill="white"/>
<path d="M79.3073 25.9062C78.8673 25.9062 78.4273 25.7329 78.1206 25.4262C77.814 25.1062 77.6406 24.6795 77.6406 24.2395C77.6406 23.7995 77.814 23.3729 78.1206 23.0662C78.7473 22.4395 79.854 22.4395 80.4806 23.0662C80.7873 23.3729 80.9606 23.7995 80.9606 24.2395C80.9606 24.6795 80.7873 25.1062 80.4806 25.4129C80.1606 25.7329 79.734 25.9062 79.3073 25.9062Z" fill="white"/>
<path d="M31.6406 36.2402H23.6406V44.2402H31.6406V36.2402Z" fill="url(#paint4_linear_1771_3403)"/>
<path d="M31.6279 45.2402H23.6279C23.0813 45.2402 22.6279 44.7869 22.6279 44.2402V36.2402C22.6279 35.6936 23.0813 35.2402 23.6279 35.2402H31.6279C32.1746 35.2402 32.6279 35.6936 32.6279 36.2402V44.2402C32.6279 44.7869 32.1746 45.2402 31.6279 45.2402ZM24.6279 43.2402H30.6279V37.2402H24.6279V43.2402Z" fill="#C3A7B9"/>
<path d="M98.3076 36.2402H90.3076V44.2402H98.3076V36.2402Z" fill="url(#paint5_linear_1771_3403)"/>
<path d="M98.3076 45.2402H90.3076C89.761 45.2402 89.3076 44.7869 89.3076 44.2402V36.2402C89.3076 35.6936 89.761 35.2402 90.3076 35.2402H98.3076C98.8543 35.2402 99.3076 35.6936 99.3076 36.2402V44.2402C99.3076 44.7869 98.8543 45.2402 98.3076 45.2402ZM91.3076 43.2402H97.3076V37.2402H91.3076V43.2402Z" fill="#C3A7B9"/>
<path d="M31.6406 89.5864H23.6406V97.5864H31.6406V89.5864Z" fill="url(#paint6_linear_1771_3403)"/>
<path d="M31.6279 98.5864H23.6279C23.0813 98.5864 22.6279 98.1331 22.6279 97.5864V89.5864C22.6279 89.0398 23.0813 88.5864 23.6279 88.5864H31.6279C32.1746 88.5864 32.6279 89.0398 32.6279 89.5864V97.5864C32.6279 98.1331 32.1746 98.5864 31.6279 98.5864ZM24.6279 96.5864H30.6279V90.5864H24.6279V96.5864Z" fill="#C3A7B9"/>
<path d="M98.3076 89.5864H90.3076V97.5864H98.3076V89.5864Z" fill="url(#paint7_linear_1771_3403)"/>
<path d="M98.3076 98.5864H90.3076C89.761 98.5864 89.3076 98.1331 89.3076 97.5864V89.5864C89.3076 89.0398 89.761 88.5864 90.3076 88.5864H98.3076C98.8543 88.5864 99.3076 89.0398 99.3076 89.5864V97.5864C99.3076 98.1331 98.8543 98.5864 98.3076 98.5864ZM91.3076 96.5864H97.3076V90.5864H91.3076V96.5864Z" fill="#C3A7B9"/>
<path d="M81.2406 64.3996H78.374C78.174 63.1062 77.8406 61.8662 77.374 60.6796L79.854 59.2396C80.3606 58.9462 80.534 58.2929 80.2406 57.7862L78.6406 55.0129C78.3473 54.5062 77.694 54.3329 77.1873 54.6262L74.694 56.0662C73.8806 55.0662 72.974 54.1462 71.974 53.3462L73.414 50.8529C73.7073 50.3462 73.534 49.6929 73.0273 49.3996L70.254 47.7996C69.7473 47.5062 69.094 47.6796 68.8006 48.1862L67.3606 50.6662C66.174 50.1996 64.934 49.8662 63.6406 49.6662V46.7996C63.6406 46.2129 63.1606 45.7329 62.574 45.7329H59.374C58.7873 45.7329 58.3073 46.2129 58.3073 46.7996V49.6662C57.014 49.8662 55.774 50.1996 54.5873 50.6662L53.1473 48.1862C52.854 47.6796 52.2006 47.5062 51.694 47.7996L48.9206 49.3996C48.414 49.6929 48.2406 50.3462 48.534 50.8529L49.974 53.3462C48.974 54.1462 48.054 55.0662 47.254 56.0662L44.7606 54.6262C44.254 54.3329 43.6006 54.5062 43.3073 55.0129L41.7073 57.7862C41.414 58.2929 41.5873 58.9462 42.094 59.2396L44.574 60.6796C44.1073 61.8662 43.774 63.1062 43.574 64.3996H40.7073C40.1206 64.3996 39.6406 64.8796 39.6406 65.4662V68.6662C39.6406 69.2529 40.1206 69.7329 40.7073 69.7329H43.574C43.774 71.0262 44.1073 72.2662 44.574 73.4529L42.094 74.8929C41.5873 75.1862 41.414 75.8396 41.7073 76.3462L43.3073 79.1196C43.6006 79.6262 44.254 79.7996 44.7606 79.5062L47.254 78.0662C48.0673 79.0662 48.974 79.9862 49.974 80.7862L48.534 83.2796C48.2406 83.7862 48.414 84.4396 48.9206 84.7329L51.694 86.3329C52.2006 86.6262 52.854 86.4529 53.1473 85.9462L54.5873 83.4662C55.774 83.9329 57.014 84.2662 58.3073 84.4662V87.3329C58.3073 87.9196 58.7873 88.3996 59.374 88.3996H62.574C63.1606 88.3996 63.6406 87.9196 63.6406 87.3329V84.4662C64.934 84.2662 66.174 83.9329 67.3606 83.4662L68.8006 85.9462C69.094 86.4529 69.7473 86.6262 70.254 86.3329L73.0273 84.7329C73.534 84.4396 73.7073 83.7862 73.414 83.2796L71.974 80.7862C72.974 79.9862 73.894 79.0662 74.694 78.0662L77.1873 79.5062C77.694 79.7996 78.3473 79.6262 78.6406 79.1196L80.2406 76.3462C80.534 75.8396 80.3606 75.1862 79.854 74.8929L77.374 73.4529C77.8406 72.2662 78.174 71.0262 78.374 69.7329H81.2406C81.8273 69.7329 82.3073 69.2529 82.3073 68.6662V65.4662C82.3073 64.8796 81.8273 64.3996 81.2406 64.3996Z" fill="url(#paint8_linear_1771_3403)"/>
<path d="M60.974 78.3996C67.2332 78.3996 72.3073 73.3255 72.3073 67.0662C72.3073 60.807 67.2332 55.7329 60.974 55.7329C54.7147 55.7329 49.6406 60.807 49.6406 67.0662C49.6406 73.3255 54.7147 78.3996 60.974 78.3996Z" fill="url(#paint9_linear_1771_3403)"/>
</g>
<defs>
<linearGradient id="paint0_linear_1771_3403" x1="18.2939" y1="66.9067" x2="103.627" y2="66.9067" gradientUnits="userSpaceOnUse">
<stop stop-color="#431863"/>
<stop offset="1" stop-color="#824C71"/>
</linearGradient>
<linearGradient id="paint1_linear_1771_3403" x1="18.4146" y1="66.9067" x2="74.8813" y2="66.9067" gradientUnits="userSpaceOnUse">
<stop stop-color="#5C3273"/>
<stop offset="1" stop-color="#A36777"/>
</linearGradient>
<linearGradient id="paint2_linear_1771_3403" x1="35.0253" y1="7.17658e-05" x2="100.905" y2="7.17658e-05" gradientUnits="userSpaceOnUse">
<stop stop-color="#5C3273"/>
<stop offset="1" stop-color="#A36777"/>
</linearGradient>
<linearGradient id="paint3_linear_1771_3403" x1="18.2939" y1="24.2404" x2="103.627" y2="24.2404" gradientUnits="userSpaceOnUse">
<stop stop-color="#704078"/>
<stop offset="1" stop-color="#9E6381"/>
</linearGradient>
<linearGradient id="paint4_linear_1771_3403" x1="23.6406" y1="40.2402" x2="31.6406" y2="40.2402" gradientUnits="userSpaceOnUse">
<stop stop-color="#E96987"/>
<stop offset="1" stop-color="#F091A9"/>
</linearGradient>
<linearGradient id="paint5_linear_1771_3403" x1="90.3076" y1="0.000232697" x2="98.3076" y2="0.000232697" gradientUnits="userSpaceOnUse">
<stop stop-color="#E96987"/>
<stop offset="1" stop-color="#F091A9"/>
</linearGradient>
<linearGradient id="paint6_linear_1771_3403" x1="0.00062561" y1="93.5864" x2="1.33396" y2="93.5864" gradientUnits="userSpaceOnUse">
<stop stop-color="#E96987"/>
<stop offset="1" stop-color="#F091A9"/>
</linearGradient>
<linearGradient id="paint7_linear_1771_3403" x1="90.3076" y1="93.5864" x2="98.3076" y2="93.5864" gradientUnits="userSpaceOnUse">
<stop stop-color="#E96987"/>
<stop offset="1" stop-color="#F091A9"/>
</linearGradient>
<linearGradient id="paint8_linear_1771_3403" x1="39.6406" y1="67.0662" x2="82.3073" y2="67.0662" gradientUnits="userSpaceOnUse">
<stop stop-color="#C571EE"/>
<stop offset="1" stop-color="#C352D5"/>
</linearGradient>
<linearGradient id="paint9_linear_1771_3403" x1="49.6406" y1="67.0662" x2="72.3073" y2="67.0662" gradientUnits="userSpaceOnUse">
<stop stop-color="#BF7DF7"/>
<stop offset="1" stop-color="#DF8BFB"/>
</linearGradient>
<clipPath id="clip0_1771_3403">
<rect width="120" height="120" fill="white"/>
</clipPath>
</defs>
</svg>
