<svg width="104" height="25" viewBox="0 0 104 25" fill="none" xmlns="http://www.w3.org/2000/svg">
<path d="M17.3467 0.268044C19.1948 0.268044 20.7719 1.58235 21.314 4.07104C21.6755 5.81214 21.6362 7.61254 21.199 9.33614L23.6632 4.07104C24.7967 1.69735 25.7742 0.202343 27.3758 0.202343V0.0627441H17.3467V0.268044ZM50.0866 0.448845C52.1816 0.448845 52.6986 1.21264 52.6986 2.25584V21.9361C52.6986 22.9793 52.1816 23.7103 50.0866 23.7103V23.9239H58.6216V0.235245H50.0866V0.448845ZM13.1248 0.268044V0.0627441H0.516602V0.268044C2.2251 0.268044 3.03 0.719844 3.6543 2.08334L14.0119 24.0964H14.3898L17.5192 17.0079L10.9482 3.14294C10.0693 1.31944 11.4984 0.268044 13.1002 0.268044H13.1248ZM32.4684 0.448845C34.5547 0.448845 35.0804 1.27014 35.0804 2.22294V21.9361C35.0804 22.8725 34.5547 23.7103 32.4684 23.7103V23.9239H43.5816V23.7103C41.4956 23.7103 40.9776 22.8889 40.9776 21.9361V2.22294C40.9776 1.27834 41.4956 0.448845 43.5816 0.448845V0.235245H32.4684V0.448845ZM62.5726 0.333843C65.5206 1.36054 67.5006 4.91714 67.5006 11.9727C67.5006 19.0284 65.5286 22.7411 62.5726 23.8253C69.9646 23.1765 74.1206 19.127 74.1206 11.9727C74.1206 4.94994 69.9476 0.974443 62.5726 0.333843ZM99.9376 22.0758L89.6206 0.0627441H89.2426L86.0716 7.15125L89.7106 14.8065H86.0716V15.0201C87.7806 15.0201 90.0396 15.4718 90.6716 16.8271L92.6516 21.0162C93.5216 22.8232 92.0926 23.8745 90.4996 23.8745V24.0799H103.075V23.8745C101.366 23.891 100.562 23.4311 99.9376 22.0758ZM82.2766 20.088C81.9156 18.347 81.9546 16.5466 82.3916 14.823L79.9276 20.088C78.8186 22.4618 77.8416 23.9567 76.2396 23.9567V24.0964H86.2686V23.891C84.3966 23.891 82.8196 22.5768 82.2766 20.088Z" fill="#141416"/>
</svg>
