<svg width="122" height="28" viewBox="0 0 122 28" fill="none" xmlns="http://www.w3.org/2000/svg">
<mask id="mask0_1218_6145" style="mask-type:luminance" maskUnits="userSpaceOnUse" x="0" y="0" width="122" height="28">
<path d="M121.975 0.344727H0.0744629V27.8144H121.975V0.344727Z" fill="white"/>
</mask>
<g mask="url(#mask0_1218_6145)">
<path d="M119.34 26.0685C119.34 26.7931 119.933 27.353 120.658 27.353C121.382 27.353 121.975 26.7931 121.975 26.0685C121.975 25.3768 121.415 24.7839 120.658 24.7839C119.933 24.7839 119.34 25.3439 119.34 26.0685ZM120.658 25.0474C121.218 25.0474 121.646 25.5086 121.646 26.0685C121.646 26.6284 121.218 27.0895 120.658 27.0895C120.098 27.0895 119.67 26.6284 119.67 26.0685C119.67 25.5086 120.098 25.0474 120.658 25.0474Z" fill="#141416"/>
<path d="M120.461 26.2333H120.593C120.757 26.2333 120.823 26.2992 120.856 26.431C120.889 26.5957 120.922 26.6945 120.955 26.7274H121.284C121.251 26.6945 121.218 26.5957 121.186 26.398C121.153 26.2333 121.087 26.1345 120.955 26.1016C121.12 26.0687 121.218 25.9369 121.218 25.8052C121.218 25.6734 121.153 25.5746 121.087 25.5087C120.988 25.4429 120.889 25.4099 120.659 25.4099C120.461 25.4099 120.296 25.4099 120.164 25.4429V26.7274H120.461V26.2333ZM120.461 25.6405C120.494 25.6405 120.56 25.6405 120.626 25.6405C120.823 25.6405 120.889 25.7064 120.889 25.8381C120.889 25.9699 120.757 26.0357 120.593 26.0357H120.461V25.6405Z" fill="#141416"/>
<path d="M104.783 27.7486C111.502 25.9041 112.292 20.6341 112.292 14.0796C112.292 7.52514 111.502 2.28814 104.783 0.410645C108.669 3.14444 109.493 8.08504 109.493 14.0796C109.493 20.0742 108.669 25.0148 104.783 27.7486Z" fill="#141416"/>
<path d="M112.39 27.7486C119.109 25.9041 119.9 20.6341 119.9 14.0796C119.9 7.52514 119.109 2.28814 112.39 0.410645C116.277 3.14444 117.1 8.08504 117.1 14.0796C117.1 20.0742 116.277 25.0148 112.39 27.7486Z" fill="#141416"/>
<path d="M12.6897 27.8144H21.8791C22.3073 27.8144 22.6696 27.4521 22.6696 27.0239V22.3798C22.6696 21.9516 22.3073 21.5893 21.8791 21.5893H12.6897C8.83604 21.5893 7.84794 21.0952 7.58444 17.011H21.3522C21.7803 17.011 22.1426 16.6487 22.1426 16.2205V11.774C22.1426 11.3458 21.7803 10.9835 21.3522 10.9835H7.61734C7.88084 7.09692 8.93484 6.63573 12.6897 6.63573H21.8791C22.3073 6.63573 22.6696 6.27343 22.6696 5.84533V1.13522C22.6696 0.707023 22.3073 0.344727 21.8791 0.344727H12.6897C-0.155863 0.344727 0.0747399 6.43812 0.0747399 14.0796C0.0747399 21.754 -0.155863 27.8144 12.6897 27.8144Z" fill="#141416"/>
<path d="M37.3594 27.8144C47.7679 27.8144 49.6119 23.7961 49.9089 18.2297C49.9419 17.7685 49.5789 17.3733 49.1179 17.3733H43.1564C42.7611 17.3733 42.3988 17.6697 42.3659 18.065C42.0036 21.1281 40.8178 21.5563 37.3594 21.5563C32.7482 21.5563 32.2212 20.8317 32.1883 14.0796C32.1883 7.32742 32.7482 6.60283 37.3594 6.60283C40.7519 6.60283 41.9377 6.99812 42.3329 9.92952C42.3988 10.3247 42.7282 10.6212 43.1234 10.6212H49.0849C49.5459 10.6212 49.9089 10.2259 49.8759 9.76482C49.5459 4.26432 47.6359 0.344727 37.3265 0.344727C24.4809 0.344727 24.7115 6.43812 24.7115 14.0796C24.7115 21.754 24.5139 27.8144 37.3594 27.8144Z" fill="#141416"/>
<path d="M70.4948 0.410587C69.7698 0.410587 69.1438 1.00349 69.1438 1.76109V10.5882H59.6248V1.72809C59.6248 1.00349 59.0328 0.377686 58.2748 0.377686H53.5978C52.8728 0.377686 52.2468 0.970588 52.2468 1.72809V26.4311C52.2468 27.1557 52.8398 27.7815 53.5978 27.7815H58.2748C58.9998 27.7815 59.6248 27.1886 59.6248 26.4311V17.5051H69.1438V26.464C69.1438 27.1886 69.7368 27.8144 70.4948 27.8144H75.1718C75.8958 27.8144 76.5218 27.2216 76.5218 26.464V1.76109C76.5218 1.03639 75.9288 0.410587 75.1718 0.410587H70.4948Z" fill="#141416"/>
<path d="M91.6079 27.8144C104.453 27.8144 104.223 21.721 104.223 14.0796C104.223 6.43812 104.453 0.344727 91.6079 0.344727C78.7619 0.344727 78.993 6.43812 78.993 14.0796C78.993 21.754 78.7619 27.8144 91.6079 27.8144ZM91.6079 6.60283C96.2189 6.60283 96.7789 7.32742 96.7789 14.0796C96.7789 20.8317 96.2189 21.5563 91.6079 21.5563C86.9969 21.5563 86.437 20.8317 86.437 14.0796C86.437 7.32742 86.9969 6.60283 91.6079 6.60283Z" fill="#141416"/>
</g>
</svg>
