<svg width="125" height="33" viewBox="0 0 125 33" fill="none" xmlns="http://www.w3.org/2000/svg">
<path d="M109.692 23.9277C108.893 23.9277 108.279 23.9277 107.899 23.3315L104.568 14.2727L103.991 12.6664C102.982 9.87349 100.652 8.26719 97.5456 8.26719C95.6996 8.26719 93.7796 9.06889 92.3836 10.0848L93.6176 11.0775C94.4136 10.435 95.5736 9.78669 96.6516 9.78669C99.1696 9.78669 100.516 10.9646 101.404 13.3986L102.024 15.1062C100.744 14.3243 99.2716 13.9155 97.7736 13.9254C94.7456 13.9254 91.6776 15.9224 91.6776 19.7311C91.6776 23.5398 94.2206 25.4992 99.0306 25.4992C102.203 25.4992 104.057 24.2837 105.018 23.3575L105.595 24.9493H110.286L109.897 23.9277H109.692ZM98.7536 24.5499C96.0346 24.5499 94.3846 22.6108 94.3846 19.844C94.3846 18.0554 94.6736 15.0512 98.2786 15.0512C99.8116 15.0488 101.303 15.5578 102.518 16.4983L104.464 21.867C103.772 23.6903 101.177 24.5499 98.7686 24.5499H98.7536ZM71.4536 23.9277C70.6546 23.9277 70.0406 23.9277 69.6596 23.3315L66.3296 14.2727L65.7526 12.6664C64.7376 9.87349 62.4076 8.26719 59.3046 8.26719C57.459 8.26719 55.7865 9.06889 54.4023 10.0848L55.6135 11.0775C56.4094 10.435 57.5744 9.78669 58.65 9.78669C61.1646 9.78669 62.2686 10.9646 63.1486 13.3986L63.7686 15.1062C62.4866 14.3207 61.0116 13.9098 59.5096 13.9196C56.4815 13.9196 53.6612 15.9166 53.6612 19.7253C53.6612 23.5341 55.9682 25.4934 60.7666 25.4934C63.9386 25.4934 65.7926 24.2779 66.7536 23.3517L67.3296 24.9435H72.0216L71.6326 23.9219L71.4536 23.9277ZM60.5156 24.5499C57.7964 24.5499 56.3921 22.6108 56.3921 19.844C56.3921 18.0554 56.4324 15.0512 60.0346 15.0512C61.5686 15.0473 63.0596 15.5565 64.2736 16.4983L66.2196 21.867C65.5166 23.6903 62.9176 24.5499 60.5096 24.5499H60.5156ZM42.0023 23.9277C41.2006 23.9277 40.5835 23.9277 40.2057 23.3315L36.875 14.2727L36.2983 12.6664C35.289 9.87349 32.9532 8.26719 29.8503 8.26719C28.0105 8.26719 26.1015 9.06889 24.6884 10.0848L25.9198 11.0775C26.7157 10.435 27.8749 9.78669 28.9535 9.78669C31.4709 9.78669 32.8176 10.9646 33.7029 13.3986L34.3258 15.1062C33.0456 14.3243 31.5738 13.9155 30.0752 13.9254C27.0473 13.9254 23.9762 15.9224 23.9762 19.7311C23.9762 23.5398 26.5196 25.4992 31.3296 25.4992C34.4873 25.4992 36.3531 24.2837 37.3163 23.3575L37.893 24.9493H42.5848L42.1955 23.9277H42.0023ZM31.0615 24.5499C28.345 24.5499 26.6926 22.6108 26.6926 19.844C26.6926 18.0554 26.981 15.0512 30.5856 15.0512C32.1194 15.0488 33.6105 15.5578 34.8247 16.4983L36.7712 21.867C36.0676 23.6903 33.4694 24.5499 31.0615 24.5499ZM84.9496 23.1607L80.1566 8.76209H76.9786L79.9986 17.3174L77.3226 23.754L72.3276 8.76209H69.1466L74.8566 24.9406H77.7776L80.4596 18.6313L82.6856 24.9406H85.6066L91.1786 8.76209H90.0246L84.9496 23.1578V23.1607ZM124.976 18.9063V8.76209H122.303L122.554 18.4171V19.8064C122.554 21.8902 120.772 23.8582 118.724 24.191C118.081 24.2388 117.435 24.2388 116.792 24.191C114.73 23.9769 112.962 21.8757 112.962 19.8064V18.4171L113.205 8.76209H110.534V21.0798C110.534 22.9523 112.054 26.0752 117.034 26.0752H118.476C119.889 26.0752 121.533 25.2821 122.496 24.4834C122.363 25.7394 122.236 27.0187 121.85 27.8753C121.317 29.0677 120.103 30.4801 117.305 30.4801C114.583 30.4801 111.734 28.13 111.463 27.719L111.397 27.6206L110.531 27.6988L110.661 27.9593C110.679 27.9998 112.838 31.8172 117.447 32.0632C120.878 32.2484 122.946 30.8621 124.079 27.9448C124.162 27.7255 124.227 27.5 124.275 27.2704C124.708 25.5542 124.875 23.2331 124.933 21.4821C124.947 21.3485 124.955 21.2142 124.956 21.0798V20.5299L124.976 18.9005V18.9063ZM46.5182 11.5406V8.69559H43.6345V24.8741H46.7777V12.8343C47.1697 12.2238 47.7055 11.7197 48.3377 11.3663C48.9699 11.013 49.6791 10.8213 50.4026 10.8083C51.1116 10.7947 51.8082 10.9965 52.401 11.3872V8.66659C51.9632 8.43339 51.4673 8.33279 50.9736 8.37719C49.4942 8.38299 47.2103 10.5479 46.5182 11.5377V11.5406ZM12.9719 22.5674C7.28519 22.5674 3.57088 16.5475 3.57088 11.1527C3.57088 8.04729 4.28029 5.48879 6.08839 3.75519C7.77639 2.19199 10.0008 1.34379 12.2971 1.38779C14.6502 1.38779 16.4612 2.86959 17.5656 4.10829C18.3029 4.94459 18.93 5.87249 19.4314 6.86939L19.5295 7.07769L22.2402 5.34119C22.0787 4.99389 21.0867 3.89409 20.781 3.55839C19.0277 1.72929 16.9716 0.0795898 12.3663 0.0795898C7.99459 0.0795898 5.30119 2.24159 3.83049 4.05619C1.98699 6.36229 0.980186 9.22939 0.975586 12.186C0.975586 14.0382 1.29279 17.5981 3.43539 20.5994C5.42519 23.398 8.50498 24.877 12.3317 24.877C17.9203 24.877 20.9252 21.0335 22.3267 18.394L21.0924 17.873C18.8547 21.0248 16.1901 22.5674 12.9719 22.5674Z" fill="#221F1F"/>
</svg>
