<svg width="153" height="39" viewBox="0 0 153 39" fill="none" xmlns="http://www.w3.org/2000/svg">
<path d="M29.9719 26.0517C29.8306 26.4286 29.4773 27.1117 28.7942 28.0303C28.064 29.0432 27.6164 29.5378 27.3337 29.5378C27.0982 29.5378 26.4151 28.9961 25.2845 27.9361C24.1538 26.8761 23.5885 26.2401 23.5885 26.0517C23.5885 25.8633 23.7298 25.5099 23.9418 24.9446C24.1774 24.4028 24.2952 24.026 24.3423 23.8846C24.5778 22.966 24.6956 21.7411 24.7427 20.1394C24.6956 21.7411 24.6956 20.4692 24.7427 16.347C24.7427 16.2057 24.7427 16.0173 24.7427 15.8053C24.7898 15.5226 24.7898 15.3577 24.7898 15.2635C24.7898 14.9337 24.7898 14.6746 24.7427 14.4862C24.6956 14.2978 24.46 13.9444 24.0596 13.4262C23.6592 12.9316 23.4707 12.5076 23.4707 12.2249C23.4707 11.9423 23.8712 11.3063 24.6956 10.2463C25.52 9.23337 26.0147 8.73877 26.2502 8.73877C26.58 8.73877 27.216 9.13917 28.2053 9.96357C29.2182 10.7881 29.7128 11.3298 29.7128 11.6596C29.7128 11.848 29.5715 12.1071 29.3595 12.484C29.0768 12.8609 28.959 13.0729 28.9119 13.2613C28.8177 13.6382 28.8177 14.7688 28.7706 16.7004C28.7706 17.4777 28.7706 18.6319 28.7706 20.1394C28.7706 21.6469 28.7706 22.8482 28.7706 23.6255C28.7942 24.3557 29.1475 25.1802 29.9719 26.0517Z" fill="#141416"/>
<path d="M43.6814 36.581C43.6814 36.8165 43.5872 36.9578 43.3517 36.9578C43.2103 36.9578 42.9984 36.7223 42.7158 36.3219C42.4331 35.9214 42.221 35.6859 41.9384 35.6388C41.3495 36.1805 40.7606 36.7458 40.1717 37.2876C39.4415 37.8765 38.7114 38.1591 38.0283 38.1591C37.7928 38.1591 37.6749 38.0178 37.6985 37.7587C38.0282 37.4289 38.2873 37.1227 38.6171 36.793C38.9469 36.3925 39.1118 35.9685 39.1118 35.5681C39.1118 35.0734 39.1118 34.249 39.1118 33.189C39.1118 32.1291 39.1118 31.3046 39.1118 30.81C39.1118 30.3153 39.1119 29.5851 39.159 28.5723C39.2061 27.5594 39.206 26.8292 39.206 26.3345C39.206 26.0519 39.1589 25.887 39.0175 25.7457C38.3344 26.2403 37.7456 26.8527 37.3216 27.5358C36.4972 28.8078 35.8612 29.5145 35.4607 29.4674C35.0603 29.4674 34.283 28.9256 33.223 27.8185C32.0453 26.5465 31.3151 25.8399 30.9854 25.675C31.4329 24.5679 31.6213 23.7435 31.6213 23.1546L31.5742 13.3086C32.8932 12.5784 34.0004 11.8953 34.8484 11.2829C35.4844 10.8353 36.1674 10.3171 36.8505 9.86956C37.722 9.32776 38.4993 9.04517 39.0882 9.04517C39.6771 9.04517 40.5958 9.49267 41.7736 10.3642C42.9513 11.2829 43.5872 12.0131 43.6814 12.6491C43.6814 12.9317 43.6343 13.2851 43.493 13.7562C43.3517 14.2037 43.2574 14.5806 43.2574 14.8161L43.1632 33.1184C43.1632 34.0841 43.2574 34.9557 43.4459 35.733C43.6343 36.2276 43.6814 36.4867 43.6814 36.581ZM39.2295 22.1653L39.2766 14.2037C39.2766 13.921 38.994 13.6619 38.4522 13.3793C38.0047 13.1437 37.6278 13.0024 37.3216 13.0024C36.4029 13.0024 35.9083 14.1566 35.9083 16.3943C35.9083 17.0303 35.9554 18.0432 36.0025 19.3623C36.0967 20.6813 36.0967 21.6942 36.0967 22.3302C36.0967 22.5657 36.0967 22.872 36.0967 23.2959C36.0967 23.6964 36.0967 24.0261 36.0967 24.2617C36.0967 25.1803 36.4265 25.6279 37.1096 25.6279C37.6985 25.6279 38.1931 25.1803 38.6171 24.3559C38.994 23.6728 39.2295 22.9426 39.2295 22.1653Z" fill="#141416"/>
<path d="M58.6385 26.3815C57.6727 27.6534 56.8719 28.6663 56.0946 29.3965C56.0004 29.3965 55.859 29.4436 55.7648 29.4436C55.1759 29.4436 54.5399 28.949 53.9039 27.9832C53.2208 27.0174 52.8675 26.5228 52.7262 26.5228C52.2315 26.5228 51.5014 26.9703 50.6299 27.9361C49.7583 28.9019 49.2165 29.3494 49.028 29.3494C47.073 29.3494 46.0601 27.5121 46.1072 23.814C46.1072 22.8482 46.1072 21.4349 46.1072 19.5505C46.1072 17.6661 46.1072 16.2528 46.1072 15.2871C46.1072 14.5569 46.0601 14.0622 45.9188 13.7795C45.8246 13.5911 45.5184 13.1907 45.0002 12.5547C44.8589 12.3662 44.7646 12.1778 44.7646 12.0129C44.7646 11.636 45.1179 11.0472 45.8952 10.2698C46.6254 9.44537 47.2143 8.95077 47.5912 8.76227C48.2272 8.85647 48.8631 9.25697 49.452 9.98717C50.0409 10.7174 50.3708 11.4005 50.3708 12.0365C50.3708 12.1778 50.3707 12.3191 50.3236 12.4369C50.2764 12.6725 50.2765 12.8373 50.2765 12.8844C50.2294 13.2142 50.2293 13.8973 50.2293 14.9808C50.2293 15.9937 50.2294 17.5012 50.2765 19.5505C50.3237 21.5762 50.3236 23.0838 50.3236 24.1202C50.3236 24.9446 50.724 25.345 51.6426 25.345C52.2786 25.345 52.7263 25.0624 53.0089 24.5677C53.1974 24.2851 53.2915 20.9874 53.2915 14.6275C53.2915 14.18 53.0559 13.6147 52.6555 13.0258C52.2551 12.4369 52.0195 11.9187 52.0195 11.6125C52.3493 11.212 52.7968 10.6938 53.4328 10.0107C54.2572 9.18627 54.7519 8.73877 54.9403 8.73877C55.2701 8.73877 55.7177 9.06847 56.2594 9.65737C56.6127 10.105 56.9896 10.529 57.3429 10.9765C58.026 11.7067 58.3794 12.2485 58.3794 12.6253C58.3794 12.8138 58.238 13.12 57.9318 13.544C57.6021 14.0386 57.4373 14.3684 57.3902 14.5569C57.2959 14.7924 57.2959 15.1928 57.2959 15.7582L57.2487 22.9424C57.2487 24.2144 57.6964 25.2744 58.615 26.0517V26.3815H58.6385Z" fill="#141416"/>
<path d="M65.7282 26.193C65.5862 26.5699 65.2332 27.253 64.5502 28.1717C63.8202 29.1845 63.3722 29.6792 63.0892 29.6321C62.8542 29.6321 62.1712 29.0903 61.0403 28.0303C59.9097 26.9704 59.3444 26.3344 59.3444 26.1459C59.3444 25.9575 59.4857 25.6042 59.6977 25.0388C59.9332 24.4971 60.051 24.1202 60.0981 23.9789C60.3337 23.0602 60.4515 21.8354 60.4986 20.2336C60.4515 21.8354 60.4515 20.5634 60.4986 16.4413C60.4986 16.2999 60.4986 16.1115 60.4986 15.8995C60.5457 15.6168 60.5457 15.452 60.5457 15.3577C60.5457 15.028 60.5457 14.7689 60.4986 14.5804C60.4515 14.392 60.2159 14.0387 59.8155 13.5205C59.415 13.0258 59.2266 12.6018 59.2266 12.3191C59.2266 12.0365 59.627 11.4005 60.4515 10.3405C61.2759 9.32771 61.7702 8.83301 62.0062 8.83301C62.3362 8.83301 62.9722 9.23341 63.9612 10.0579C64.9742 10.8823 65.4682 11.4241 65.4682 11.7538C65.4682 11.9423 65.3272 12.2014 65.1152 12.5783C64.8322 12.9551 64.7152 13.1671 64.6682 13.3556C64.5732 13.7324 64.5732 14.8631 64.5262 16.7946C64.5262 17.5719 64.5262 18.7261 64.5262 20.2336C64.5262 21.7411 64.5262 22.9424 64.5262 23.7198C64.5502 24.5442 64.9032 25.3686 65.7282 26.193Z" fill="#141416"/>
<path d="M79.0374 13.0023C79.0374 12.9552 78.9434 13.1436 78.7074 13.5441C78.5664 13.7796 78.5194 15.0045 78.5194 17.3364L78.4724 24.1203C78.4724 24.2616 78.5194 24.4972 78.5664 24.7563C78.6134 25.0389 78.6604 25.2509 78.6604 25.3922C78.6604 25.7927 78.3074 26.0282 77.5304 26.1696C77.0354 26.2167 76.4934 26.2638 75.9284 26.3109C74.9624 26.5464 74.2794 27.0411 73.8794 27.9126C73.3844 28.9726 73.0074 29.5615 72.7954 29.7028H72.2064C70.5104 29.7028 69.1914 28.9726 68.3434 27.6064C67.6134 26.4522 67.2604 24.8976 67.3074 23.0367L67.3544 13.1436C69.9924 12.0366 71.3114 10.8588 71.3114 9.49256C71.3114 8.22056 70.1334 6.33616 67.7074 3.95716V3.81586C67.7074 3.62736 67.8964 3.58026 68.2024 3.58026C68.3434 3.58026 68.5554 3.62736 68.8384 3.76866C69.1204 3.86296 69.3324 3.95716 69.4744 3.95716C69.6154 3.95716 69.8044 3.67446 70.0634 3.17986C70.4164 2.54386 70.6994 2.02566 70.9814 1.76656C71.4294 1.27186 71.9944 0.989258 72.5834 0.989258C72.7714 0.989258 72.9364 1.03636 73.1254 1.13056C72.9364 1.53096 72.8424 1.95496 72.8424 2.33186C72.8424 3.25046 74.8914 6.73666 79.0374 12.8139V13.0023ZM72.2064 10.529C71.8064 10.529 71.5704 10.9295 71.5704 11.801L71.5234 23.1545C71.5234 23.8847 71.7594 24.5207 72.1594 25.1331C72.5594 25.722 73.1254 26.0518 73.8084 26.0518C74.0434 26.0518 74.2084 25.9576 74.3974 25.8162C74.5384 25.5336 74.5854 24.2145 74.5854 21.8825L74.6324 14.6512C74.6324 14.4156 74.6324 14.2036 74.5854 13.9681C74.5384 13.7325 74.1854 13.0965 73.5494 12.0837C72.7484 11.0472 72.3474 10.529 72.2064 10.529Z" fill="#141416"/>
<path d="M106.501 14.604C106.501 16.5827 105.866 18.7733 104.688 21.1523C103.463 23.5785 101.955 25.5571 100.189 27.1588C98.2344 28.949 96.2794 29.8206 94.3474 29.8206C93.3114 29.8206 91.8974 29.2788 90.1074 28.2659C88.3414 27.206 86.9274 26.7113 85.8674 26.7113C84.9494 26.7113 84.2184 26.8526 83.7244 27.1588C83.6304 27.206 83.0414 27.6535 82.0044 28.525C81.8634 28.6664 81.7224 28.7606 81.6044 28.7606C81.2744 28.7606 81.1094 28.5721 81.1094 28.1717C81.1094 27.7948 81.4634 27.1588 82.2404 26.2873C83.0644 25.2744 84.1484 24.2616 85.5144 23.2723C86.4804 22.5421 87.1634 21.9061 87.4694 21.3879C87.9174 20.7048 88.1054 19.8332 88.1054 18.7262C88.1054 18.1373 87.6574 16.936 86.7394 15.0987C85.8204 13.2614 85.3734 12.0836 85.3734 11.4712C85.3734 10.9766 86.2444 10.1521 87.9174 8.90374C89.0004 8.17354 90.1544 7.39623 91.2384 6.61893C91.0024 6.61893 90.8374 6.61893 90.6964 6.61893C90.1544 6.61893 89.4244 6.71313 88.5054 6.94873C86.9514 7.32553 85.6794 7.53753 84.6904 7.53753C82.8764 7.53753 81.9574 6.90153 81.9574 5.60603C81.9574 5.20563 82.4994 4.19273 83.6064 2.63813C84.6904 1.03633 85.4204 0.259033 85.7504 0.259033C86.0324 0.259033 86.1974 0.447535 86.1974 0.800835C86.1974 0.942135 86.0564 1.34263 85.7504 2.11993C85.9854 2.44973 86.6214 2.61453 87.5164 2.61453C88.3884 2.61453 89.7074 2.47323 91.4264 2.21413C91.7804 2.16703 92.6044 1.93143 93.8524 1.57813C94.8654 1.29553 95.6664 1.17773 96.3024 1.17773C97.6214 1.17773 98.6344 1.31903 99.3174 1.62523C101.555 2.59103 103.322 4.38123 104.641 6.97223C105.913 9.30423 106.501 11.8717 106.501 14.604ZM93.6174 14.6511L93.6644 6.10073C93.1224 6.14783 92.3924 6.68953 91.5684 7.70243C90.7434 8.71533 90.3434 9.53974 90.3434 10.1286C90.3434 10.7646 90.5784 11.4477 90.9794 12.1543C91.3324 12.7432 91.7564 13.3792 92.1094 13.9445C92.2514 14.2271 92.4394 14.6276 92.6984 15.2165C92.7454 15.4049 92.8874 15.452 93.0284 15.452C93.1934 15.4285 93.3814 15.1693 93.6174 14.6511ZM93.5704 24.1438L93.6174 16.5826C93.6174 16.3942 93.5704 16.3 93.5234 16.3C93.3814 16.3 93.1694 16.6298 92.8404 17.3129C92.6514 17.7133 92.4864 18.1373 92.2984 18.5377C91.3324 20.1395 89.9194 21.5999 88.0114 22.9896C90.4134 23.1309 92.2984 23.4843 93.5704 24.1438ZM94.3944 6.14783L94.3004 24.5913C96.3964 25.8633 97.6214 26.4758 98.0924 26.5229C99.2704 26.5229 100.189 25.0624 100.778 22.071C101.178 20.0923 101.367 18.0902 101.367 15.9938C101.367 13.7089 100.872 11.5419 99.7654 9.58683C98.4934 7.30203 96.7974 6.10073 94.7484 6.10073C94.7004 6.10073 94.6534 6.10073 94.5594 6.14783C94.4884 6.14783 94.4414 6.14783 94.3944 6.14783Z" fill="#141416"/>
<path d="M117.761 13.1908C117.761 14.2508 116.842 15.6641 115.029 17.5014C113.215 19.3387 112.296 20.752 112.296 21.7178C112.296 22.6835 112.485 23.5079 112.885 24.2853C113.333 25.2039 114.016 25.6514 114.84 25.6514C115.382 25.6514 115.759 25.4159 115.971 24.9212C116.207 24.4266 116.466 24.191 116.795 24.191C117.149 24.191 117.384 24.3324 117.384 24.6386C117.384 24.827 117.337 25.0155 117.29 25.1803C117.243 25.2746 116.701 25.8634 115.641 26.8763C114.605 27.9363 113.945 28.5251 113.78 28.6665C113.427 28.9962 113.05 29.114 112.744 29.114C111.425 29.114 110.341 28.5252 109.376 27.3238C108.504 26.2168 108.056 24.9448 108.056 23.5786L108.104 12.6255C108.104 12.2958 108.881 11.9895 110.388 11.754C111.166 11.6127 111.943 11.2593 112.626 10.5998C113.309 10.0109 113.804 9.28068 114.087 8.50338C114.181 8.45628 114.275 8.40918 114.322 8.40918C114.864 8.40918 115.594 9.04518 116.513 10.3407C117.314 11.5891 117.761 12.5549 117.761 13.1908ZM114.699 15.1695C114.699 14.7219 114.463 14.1566 114.063 13.5206C113.663 12.8846 113.191 12.5549 112.744 12.5549C112.697 12.5549 112.603 12.5549 112.555 12.602C112.367 12.8846 112.32 14.345 112.273 17.0068C112.273 17.5485 112.414 17.8783 112.72 17.8783C112.956 17.8783 113.356 17.5014 113.851 16.7241C114.44 15.9468 114.699 15.4286 114.699 15.1695Z" fill="#141416"/>
<path d="M130.929 26.1461C129.28 28.1954 128.29 29.2083 128.008 29.2083C127.56 29.2083 126.971 28.7607 126.288 27.795C125.605 26.8292 125.205 26.3817 125.016 26.3817C124.687 26.3817 124.145 26.8292 123.462 27.795C122.779 28.7607 122.284 29.2083 121.954 29.2083C121.318 29.2083 120.635 28.8314 119.999 28.1483C119.41 27.5123 118.986 26.8763 118.821 26.1226C118.68 25.5808 118.586 24.9213 118.586 24.2853C118.586 23.9084 118.633 23.4609 118.68 22.9191C118.727 21.9533 119.175 21.0347 119.999 20.0925C120.729 19.3623 121.507 18.585 122.237 17.8548L121.907 17.4779C120.588 16.9832 120.211 15.6877 120.305 14.4629C120.305 14.086 120.447 13.45 120.659 12.4371C120.753 12.2487 120.423 11.9896 119.787 11.6127C119.151 11.2358 118.821 10.9296 118.821 10.5998C118.821 10.1052 118.868 9.77538 119.01 9.63408C119.151 9.49278 119.41 9.39848 119.881 9.39848C120.211 9.39848 120.564 9.58698 120.894 9.98738C121.13 10.3172 121.295 10.6234 121.295 10.8589C121.342 11.1416 121.53 11.2594 121.836 11.2594C121.978 11.2594 122.213 11.2123 122.567 11.1652C122.92 11.0709 123.155 11.0238 123.297 11.0238C124.027 10.9767 124.569 10.6941 124.993 10.1994C125.322 9.70468 125.629 9.18648 125.958 8.73898L126.359 8.64478C127.372 8.64478 128.173 9.09228 128.856 10.011C129.398 10.8354 129.68 11.7069 129.68 12.6256L129.633 22.6129C129.633 23.8142 130.01 24.8506 130.811 25.7693L130.929 26.1461ZM125.417 15.4757L125.511 13.3793C125.511 13.0496 125.323 12.7433 124.969 12.4607C124.616 12.178 124.239 12.0602 123.956 12.0602C123.273 12.0602 122.684 12.2487 122.19 12.5549C121.695 12.9318 121.412 13.4264 121.412 14.0624C121.365 14.8397 121.554 15.4757 121.86 16.041C122.19 16.5828 122.543 16.8655 122.92 16.7712C124.098 16.6299 124.922 16.1588 125.417 15.4757ZM125.275 16.8655C124.828 16.8655 124.31 17.1952 123.768 17.7841C123.085 18.5143 122.731 19.1032 122.59 19.6214C122.543 19.8098 122.496 20.5872 122.496 21.9533C122.496 24.144 122.991 25.251 124.003 25.251C125.04 25.251 125.558 24.0969 125.558 21.7649C125.558 21.7178 125.558 20.2103 125.511 17.1952C125.511 16.9832 125.464 16.8655 125.275 16.8655Z" fill="#141416"/>
<path d="M139.714 10.3171C139.714 10.906 139.361 11.2829 138.677 11.3771C138.136 11.3771 137.547 11.4242 136.982 11.4242C136.746 11.754 136.652 12.2957 136.652 13.0731C136.652 13.4028 136.652 13.8975 136.652 14.5335C136.652 15.1695 136.652 15.6877 136.652 15.9939C136.652 16.6299 136.605 17.5956 136.605 18.8676C136.558 20.1396 136.558 21.1053 136.558 21.7413C136.558 22.024 136.51 22.4715 136.416 23.0133C136.322 23.6021 136.275 24.0261 136.275 24.2852C136.275 24.5208 136.628 24.827 137.358 25.2981C138.089 25.7457 138.442 26.0283 138.442 26.1225C138.442 26.4523 138.206 26.8056 137.712 27.3238C137.358 27.7007 136.982 28.0069 136.628 28.3838C136.534 28.5251 136.393 28.7136 136.228 28.9727C136.039 29.2082 135.827 29.3496 135.545 29.3496C135.144 28.8078 134.532 28.1954 133.778 27.4652C132.647 26.4523 132.011 25.9105 131.87 25.7692C132.271 24.6621 132.506 23.4844 132.506 22.1417L132.553 11.7069C132.553 11.5184 132.318 11.3771 131.823 11.33C131.281 11.2829 130.951 11.2358 130.904 11.1887C130.716 10.906 130.669 10.694 130.669 10.4113C130.669 10.1758 130.81 10.0345 131.069 9.96378C131.352 9.86958 131.564 9.77538 131.799 9.68108C133.26 8.99798 134.131 8.03228 134.343 6.80738C134.438 6.40698 134.697 5.84168 135.168 5.15858C135.662 4.33418 136.086 3.95728 136.44 3.95728C136.44 3.95728 136.487 3.95728 136.581 3.95728C136.628 3.95728 136.675 3.95728 136.722 3.95728C136.77 3.95728 136.864 3.95728 136.911 4.00438V8.57408C136.911 8.97448 137.052 9.30428 137.311 9.53978C138.277 9.68108 139.031 9.77538 139.643 9.72828C139.62 9.79888 139.714 9.98738 139.714 10.3171Z" fill="#141416"/>
<path d="M152.576 26.2871C152.576 26.4285 152.576 26.5227 152.528 26.6169C151.987 27.3942 151.162 28.36 150.032 29.5848C149.443 29.5377 148.76 29.0902 147.982 28.1715C147.205 27.2529 146.852 26.4756 146.852 25.8396C146.852 25.5098 146.946 25.1094 147.134 24.5676C147.323 24.0258 147.417 23.6019 147.417 23.2956L147.464 16.2998C147.464 13.9679 147.017 12.7665 146.098 12.7665C145.061 12.7665 144.496 13.6381 144.496 15.334L144.355 23.8138C144.355 24.4027 144.708 25.2271 145.438 26.24C145.344 26.5227 144.991 27.1115 144.261 27.9831C143.53 28.8546 143.083 29.255 142.847 29.255H142.541C141.952 28.6191 141.363 28.0302 140.774 27.3706C139.903 26.4049 139.408 25.7689 139.361 25.4862C139.502 25.2036 139.644 24.8503 139.809 24.2849C140.138 23.3192 140.256 18.8908 140.303 10.9057C140.303 5.8649 140.209 3.0383 139.903 2.4024C139.856 2.3081 139.856 2.1668 139.856 2.0019C139.903 1.7664 139.997 1.6721 140.138 1.6721C140.186 1.6721 140.233 1.6721 140.28 1.7193C140.963 2.5437 141.41 2.9441 141.646 2.9441C141.74 2.9441 142.282 2.54371 143.201 1.74281C144.119 0.965505 144.897 0.541504 145.438 0.541504C145.627 0.541504 145.792 0.588604 145.98 0.729904C145.933 1.1068 145.65 1.83701 145.109 2.82631C144.614 3.74501 144.331 4.805 144.331 5.9827C144.331 6.5245 144.331 7.34891 144.331 8.40891C144.331 9.4689 144.331 10.2462 144.331 10.7879C144.331 11.471 144.425 11.8479 144.661 11.8479C145.297 11.8008 146.027 11.3061 146.852 10.3875C147.676 9.4217 148.218 8.97421 148.406 8.97421C149.184 8.97421 149.867 9.3746 150.456 10.2462C150.95 11.0706 151.233 11.895 151.233 12.7194L151.327 23.7432C151.327 24.2378 151.563 24.8032 151.963 25.2978C152.34 25.816 152.576 26.1458 152.576 26.2871Z" fill="#141416"/>
<path d="M28.3227 5.60606C28.1814 6.14786 27.8751 6.57177 27.3569 6.83097C26.7209 7.20777 26.085 7.01937 25.661 6.43047C25.4254 6.10067 25.3312 5.74736 25.3076 5.32337C25.3076 4.87586 25.449 4.45187 25.6374 4.05147C26.5089 2.59107 27.7338 1.53107 29.3827 0.895066C29.6182 0.800866 29.9244 0.753766 30.16 0.706666C30.5133 0.659466 30.7489 1.03637 30.6075 1.34257C30.5604 1.48397 30.4191 1.62527 30.3249 1.71947C29.2884 2.59097 28.7231 3.74517 28.4169 5.01717C28.4169 5.22917 28.3698 5.41756 28.3227 5.60606Z" fill="#141416"/>
<path d="M63.7722 5.60606C63.6312 6.14786 63.3252 6.57177 62.8062 6.83097C62.1702 7.20777 61.5347 7.01937 61.1107 6.43047C60.8751 6.10067 60.7809 5.74736 60.7573 5.32337C60.7102 4.87586 60.8987 4.45187 61.0871 4.05147C61.9582 2.59107 63.1832 1.53107 64.8322 0.895066C65.0682 0.800866 65.3742 0.753766 65.6092 0.706666C65.9632 0.659466 66.1982 1.03637 66.0572 1.34257C66.0102 1.48397 65.8692 1.62527 65.7742 1.71947C64.7382 2.59097 64.1732 3.74517 63.8662 5.01717C63.8662 5.22917 63.8192 5.41756 63.7722 5.60606Z" fill="#141416"/>
<path d="M10.6096 23.3193C10.7038 23.2722 11.1043 22.9425 11.8345 22.4007C12.2349 22.071 12.6589 21.8589 13.0122 21.7646C12.7767 22.1415 12.5647 22.3065 12.3291 22.4007C11.9287 22.5421 11.5047 22.7776 11.0101 23.0838C10.2798 23.6256 9.87939 23.9554 9.78519 24.0025C9.69099 24.0496 9.64389 24.0967 9.59679 24.0967H9.24339L9.19629 23.6491C9.47899 23.4136 9.73809 23.2015 10.0207 23.0131L10.0679 23.4135H10.4212C10.4683 23.4135 10.5154 23.3664 10.6096 23.3193Z" fill="#141416"/>
<path d="M7.38291 6.73657C7.19441 6.97207 6.74691 7.27827 6.06381 7.79647C5.87531 7.93787 5.73401 8.03207 5.61621 8.12627C5.85181 7.89077 6.25221 7.58457 6.88821 7.11347C7.05311 7.01917 7.24151 6.87787 7.38291 6.73657Z" fill="#141416"/>
<path d="M4.86205 28.5723C4.53225 28.8549 4.17895 29.1611 3.82565 29.538C3.77855 29.538 3.77855 29.538 3.73145 29.538C4.13185 29.114 4.55585 28.8078 4.86205 28.5723Z" fill="#141416"/>
<path d="M22.3164 19.5035C22.0338 19.5035 21.8218 19.7391 21.7747 20.2337C21.7276 20.3751 21.7276 20.5635 21.7276 20.7755C21.7276 21.647 21.492 22.5186 21.0916 23.343C20.7383 24.0732 20.3143 24.5443 19.8667 24.7563C19.6783 24.8505 19.5134 24.8976 19.2778 24.8976C18.6419 24.8976 17.7703 24.5679 16.6868 24.0261C15.5562 23.4372 14.7788 22.8719 14.2606 22.3773C14.4491 22.0946 14.5904 21.8355 14.6611 21.647C15.1557 20.6342 15.4384 19.7626 15.3913 19.0324V18.844C15.3442 16.9596 15.2499 14.8632 15.0379 12.437C14.9437 11.3771 14.7082 9.2807 14.3549 6.0772C14.2606 5.1585 14.2135 4.711 14.2135 4.7581C14.1664 4.5226 14.1664 4.3577 14.1193 4.2163C14.0251 4.0279 13.8838 3.8866 13.6718 3.7688C13.4362 3.6275 13.1771 3.6275 12.9887 3.6275C12.8473 3.6275 12.7531 3.6746 12.706 3.6746C12.706 3.6746 12.706 3.6746 12.6589 3.6746C12.6589 3.6746 12.6589 3.6746 12.6118 3.6746C12.2113 3.6746 11.434 3.0857 10.2327 1.8373C9.10209 0.612399 8.04209 0 7.17059 0C6.88789 0 6.44039 0.329798 5.80439 0.918598C5.66309 1.06 5.52169 1.1542 5.40399 1.3191C4.36749 2.3791 3.80219 2.9208 3.70799 2.9679C3.51959 3.1564 3.35469 3.2977 3.16619 3.4155C3.02489 3.5568 2.93069 3.651 2.88359 3.651C2.83649 3.6981 2.78929 3.7452 2.74219 3.7924C1.56449 4.8523 0.975586 5.8416 0.975586 6.8074C0.975586 6.8545 0.975586 6.9487 1.02269 7.0429C0.975586 7.2785 1.21119 7.726 1.70579 8.3149C2.20049 8.9038 2.57739 9.1865 2.83649 9.1865C2.97779 9.1865 3.16619 9.1393 3.33109 8.998C3.66089 8.8096 4.01419 8.4562 4.50889 7.938C5.23909 7.1136 5.59239 6.5247 5.59239 6.1479C5.59239 5.8181 5.40399 5.4648 5.05059 4.9937C4.86219 4.711 4.72089 4.499 4.65019 4.3106C4.55599 4.1692 4.50889 3.9808 4.50889 3.9101C4.50889 3.863 4.55599 3.7688 4.60309 3.5804C4.65019 3.439 4.69729 3.3448 4.74439 3.3448C5.09769 3.3448 5.71019 3.7217 6.46389 4.4048C7.38259 5.2292 7.97139 5.7239 8.23059 5.8181C8.23059 5.9123 7.90079 6.2185 7.31189 6.6425C7.12349 6.8781 6.67589 7.1843 5.99279 7.7025C5.80439 7.8438 5.66309 7.938 5.54529 8.0323C5.45109 8.1265 5.40399 8.2207 5.40399 8.2678C5.40399 8.6682 5.59239 8.9038 5.99279 8.9038C6.08699 8.9038 6.18129 8.8567 6.32259 8.7154C6.46389 8.574 6.60529 8.5269 6.72299 8.5269C7.21769 8.5269 7.59459 9.2571 7.75949 10.7646C7.90079 11.6833 7.94789 12.649 7.94789 13.6383V13.921C7.71229 14.1566 7.50029 14.3686 7.26479 14.6041C7.21769 14.6512 7.17059 14.6983 7.17059 14.7454C6.93499 15.0281 6.81729 15.2401 6.81729 15.4756C6.81729 15.7112 7.00569 15.8525 7.40609 15.8761C7.80659 15.9232 7.99499 16.0174 8.04209 16.1116C8.27769 16.7005 8.37189 17.7134 8.37189 19.1267C8.37189 20.1395 8.23059 21.0111 7.92429 21.7413C7.73589 22.2359 7.33549 23.0132 6.74659 24.0261C6.65239 24.1674 6.01639 24.9447 4.83859 26.3109C3.87289 27.4651 3.42529 28.1953 3.42529 28.5016C3.42529 29.0904 3.56669 29.4202 3.77869 29.4202C4.17909 29.0198 4.60309 28.69 4.90929 28.4544C5.49819 27.9598 5.99279 27.5358 6.36969 27.3002C7.33549 26.7114 8.37189 26.3816 9.43189 26.3816C10.2092 26.3816 11.3398 26.782 12.8002 27.5829C13.8838 28.2189 14.9908 28.8549 16.0744 29.4673C16.8046 29.4202 17.629 29.0904 18.5005 28.4544C19.1836 27.9598 19.9138 27.2531 20.644 26.358C22.3636 24.3323 23.188 22.6599 23.2351 21.2702C23.188 20.1631 22.9053 19.5035 22.3164 19.5035ZM13.1535 21.6706C13.1064 21.6706 13.0593 21.7177 13.0122 21.7177C12.7767 22.0946 12.5647 22.2595 12.3291 22.3537C11.9287 22.495 11.5047 22.7306 11.01 23.0368C10.2798 23.5786 9.87939 23.9083 9.78519 23.9554C9.69099 24.0025 9.64389 24.0497 9.59669 24.0497H9.24339L9.19629 23.6021C9.47898 23.3666 9.73809 23.1546 10.0207 22.9661V22.919C10.4212 22.5892 10.8452 22.283 11.2456 21.9062C11.4811 21.7177 11.646 21.5764 11.8816 21.4115C12.6118 20.7755 12.9651 20.0924 12.9651 19.3622C12.9651 19.268 12.9651 19.1738 12.9651 19.1267L11.7402 7.4905C11.6931 7.3963 11.6931 7.2549 11.6931 7.1136C11.6931 6.7367 11.8345 6.4305 12.0465 6.1007C12.2349 5.8652 12.494 5.6532 12.8709 5.4177H12.9651C13.0122 5.4177 13.0593 5.6061 13.1535 5.9594C13.6011 10.1758 13.9309 13.3792 14.0722 15.4756C14.2606 17.7134 14.3549 19.056 14.3549 19.4564C14.3549 19.7862 14.2135 20.1866 14.0015 20.6813C13.7189 21.2937 13.4362 21.5764 13.1535 21.6706Z" fill="#141416"/>
<path d="M3.18953 3.43896C3.04823 3.58026 2.95403 3.67447 2.90693 3.67447C2.85983 3.72157 2.81273 3.76867 2.76562 3.81577C2.85983 3.72157 3.04823 3.58026 3.18953 3.43896Z" fill="#141416"/>
</svg>
