<svg width="135" height="36" viewBox="0 0 135 36" fill="none" xmlns="http://www.w3.org/2000/svg">
<mask id="mask0_1218_6177" style="mask-type:luminance" maskUnits="userSpaceOnUse" x="0" y="0" width="135" height="36">
<path d="M134.526 0.45459H0.576172V35.7047H134.526V0.45459Z" fill="white"/>
</mask>
<g mask="url(#mask0_1218_6177)">
<path fill-rule="evenodd" clip-rule="evenodd" d="M4.85977 16.5372V24.6247L15.5575 31.0948L26.2665 24.6247V13.9953L17.1356 19.4951C16.1324 20.0957 14.9825 20.0957 13.9792 19.4951L1.55687 11.9967C0.249272 11.1995 0.249272 9.20059 1.55687 8.41509L13.9792 0.90519C14.9825 0.30439 16.1324 0.30439 17.1356 0.90519L26.2665 6.42789L22.0618 8.95799L15.5575 5.04129L12.5139 6.88999L7.01277 10.2289L9.90987 11.9735L15.5575 15.4166L27.1005 8.46119C27.7545 8.07999 28.645 8.12609 29.2986 8.47269C30.0088 8.85399 30.5388 9.60499 30.5388 10.5295V25.3296C30.5388 26.4848 29.975 27.49 29.0056 28.0793L17.1356 35.254C16.1437 35.8549 14.9825 35.8549 13.9792 35.254L2.10927 28.0793C1.13977 27.49 0.58747 26.4963 0.58747 25.3296V22.9841V13.9723L4.85977 16.5372Z" fill="#141416"/>
<path fill-rule="evenodd" clip-rule="evenodd" d="M58.3702 22.3518C58.3702 19.6302 56.8992 17.9219 53.7442 17.2956L51.0385 16.7832C49.2084 16.4186 48.5123 15.7922 48.5123 14.6649C48.5123 13.4122 49.6576 12.5923 51.4652 12.5923C53.3402 12.5923 54.7432 13.3096 54.7432 15.0521H58.0892C58.0892 11.2145 54.8562 9.76809 51.51 9.76809C47.4231 9.76809 45.0206 12.0342 45.0206 14.9724C45.0206 17.5802 46.7159 19.2428 49.7698 19.8237L52.4642 20.3475C54.1262 20.6664 54.8332 21.2473 54.8332 22.4427C54.8332 23.8208 53.5532 24.6862 51.6562 24.6862C49.2534 24.6862 48.0856 23.6728 48.0856 22.2607H44.6387C44.6387 25.4608 47.2997 27.5788 51.6562 27.5788C55.4282 27.5788 58.3702 25.6998 58.3702 22.3518ZM128.677 14.5967C126.847 14.5967 125.375 15.3367 124.735 16.4529V9.26709H121.39V27.3626H124.5L124.691 25.6772C125.309 26.7588 126.802 27.6017 128.677 27.6017C132.079 27.6017 134.526 25.2671 134.526 21.0991C134.526 17.1019 132.224 14.5967 128.677 14.5967ZM127.946 24.5953C126.139 24.5953 124.781 23.297 124.781 21.0991C124.781 18.9353 126.139 17.5916 127.946 17.6031C129.777 17.6145 131.101 18.9353 131.101 21.0991C131.101 23.2628 129.777 24.5953 127.946 24.5953ZM107.176 21.0991C107.176 25.0053 109.859 27.6017 113.643 27.6017C117.415 27.6017 120.099 25.0053 120.099 21.0991C120.099 17.2158 117.415 14.5738 113.643 14.5738C109.859 14.5738 107.176 17.2158 107.176 21.0991ZM110.578 21.0764C110.578 18.8329 111.79 17.4322 113.643 17.4322C115.496 17.4322 116.708 18.8329 116.708 21.0764C116.708 23.297 115.496 24.7318 113.643 24.7318C111.79 24.7318 110.578 23.297 110.578 21.0764ZM103.729 18.3774C105.413 17.6713 105.919 16.0657 105.919 14.6877C105.919 11.7952 103.92 10.0187 100.148 10.0187H92.8952V27.3626H100.641C104.235 27.3626 106.491 25.5517 106.491 22.4998C106.491 20.6437 105.537 19.0038 103.729 18.3774ZM102.449 15.0976C102.449 16.3277 101.641 17.2956 100.024 17.2956H96.2972V12.9796H99.9002C101.663 12.9796 102.449 13.8906 102.449 15.0976ZM100.338 24.4018H96.2972V20.0172H100.406C101.944 20.0172 102.921 20.8373 102.921 22.2607C102.921 23.65 101.978 24.4018 100.338 24.4018ZM85.4402 14.5967C83.5422 14.5967 82.0712 15.4622 81.4542 16.5438L81.2632 14.8358H78.1532V32.1796H81.4762V25.7682C82.1162 26.8842 83.6322 27.6243 85.4402 27.6243C89.0102 27.6243 91.2892 25.0962 91.2892 21.1218C91.2892 16.9312 88.8192 14.5967 85.4402 14.5967ZM84.7102 24.6179C82.9022 24.6179 81.5442 23.3199 81.5442 21.1447C81.5442 18.9582 82.9022 17.6031 84.7102 17.6031C86.5402 17.6257 87.8652 18.9582 87.8652 21.1218C87.8652 23.3199 86.5402 24.6179 84.7102 24.6179ZM73.0672 12.9112H76.4352V9.65419H73.0672V12.9112ZM73.1122 27.3626H76.4352V14.8358H73.1122V27.3626ZM66.4992 14.5967C64.7472 14.5967 63.5122 15.2458 62.8392 16.2364V9.26709H59.5152V27.3626H62.8392V20.6892C62.8392 18.8558 63.8152 17.6713 65.5782 17.6486C67.2402 17.6031 68.2162 18.6621 68.2162 20.7802V27.3626H71.5402V20.2792C71.5402 15.8265 68.8122 14.5967 66.4992 14.5967Z" fill="#141416"/>
</g>
</svg>
