<svg width="43" height="24" viewBox="0 0 43 24" fill="none" xmlns="http://www.w3.org/2000/svg">
<circle opacity="0.08" cx="30.75" cy="12" r="12" fill="#D80027"/>
<path fill-rule="evenodd" clip-rule="evenodd" d="M25.9001 18.6001C26.0501 18.7501 26.2401 18.8201 26.4301 18.8201C26.6201 18.8201 26.8101 18.7501 26.9601 18.6001L33.0301 12.5301C33.3201 12.2401 33.3201 11.7601 33.0301 11.4701L26.9601 5.40012C26.6701 5.11012 26.1901 5.11012 25.9001 5.40012C25.6101 5.69012 25.6101 6.17012 25.9001 6.46012L30.69 11.25H0.75C0.34 11.25 0 11.59 0 12C0 12.41 0.34 12.75 0.75 12.75H30.6902L25.9001 17.5401C25.6101 17.8301 25.6101 18.3101 25.9001 18.6001Z" fill="#D80027"/>
</svg>
