<svg width="850" height="412" viewBox="0 0 850 412" fill="none" xmlns="http://www.w3.org/2000/svg">
<g clip-path="url(#clip0_1814_1668)">
<path d="M591.185 77.1251C586.451 73.5529 581.503 70.2457 576.366 67.2289C553.493 53.7857 526.834 46.0732 498.383 46.0732C480.572 46.0732 463.481 49.0901 447.564 54.6441L446.251 78.0465L458.836 90.9596C471.181 86.4911 484.498 84.0549 498.383 84.0549C546.248 84.0549 587.348 112.999 605.133 154.338L622.615 138.206L640.186 139.683C629.545 114.779 612.53 93.2443 591.185 77.1251Z" fill="#F71D0D"/>
<path d="M382.229 200.209C382.229 212.087 384.008 223.549 387.328 234.341L402.324 227.146L395.874 254.878L390.623 277.473L358.157 264.282L340.132 256.961L352.78 250.902C347.251 235.035 344.247 217.969 344.247 200.209C344.247 137.815 381.32 84.0803 434.638 59.8447L433.338 82.8812L446.428 96.3117C408.358 115.372 382.229 154.742 382.229 200.209Z" fill="#FC3833"/>
<path d="M359.519 194.289L359.569 190.35C359.594 188.268 360.857 186.879 362.8 186.917C364.138 186.93 365.199 187.725 365.603 188.899L369.617 186.841L369.591 188.672L365.944 190.552L365.918 192.749L369.541 192.799L369.516 194.44L359.531 194.301L359.519 194.289ZM360.97 192.673L364.479 192.723L364.504 190.552C364.517 189.378 363.848 188.621 362.775 188.596C361.702 188.583 361.008 189.328 360.995 190.502L360.97 192.673Z" fill="white"/>
<path d="M366.02 186.21C363.773 186.021 362.397 184.468 362.574 182.322C362.751 180.214 364.202 178.927 366.335 179.053C366.525 179.066 366.714 179.103 366.916 179.141L366.462 184.632H366.563C367.8 184.695 368.671 183.988 368.772 182.777C368.847 181.843 368.431 181.123 367.648 180.833L367.774 179.293C369.188 179.671 370.185 180.984 370.034 182.789C369.844 185.074 368.241 186.387 366.02 186.21ZM365.666 180.593C364.581 180.631 363.899 181.338 363.811 182.398C363.735 183.383 364.316 184.266 365.338 184.468L365.654 180.593H365.666Z" fill="white"/>
<path d="M364.579 177.008L364.403 178.27L363.065 178.081L363.241 176.819L361.222 176.541L361.436 175.001L363.456 175.279L363.696 173.512L365.034 173.701L364.794 175.468L368.568 175.986C369.136 176.061 369.376 175.897 369.452 175.317L369.603 174.244L370.941 174.433L370.739 175.847C370.55 177.235 369.818 177.74 368.505 177.551L364.579 177.008Z" fill="white"/>
<path d="M364.618 168.261L366.032 168.513L365.905 169.182C365.666 170.533 366.638 171.151 367.748 171.353L371.358 172.01L371.081 173.524L363.898 172.224L364.138 170.874L365.249 170.899C364.706 170.419 364.34 169.763 364.555 168.589L364.618 168.248V168.261Z" fill="white"/>
<path d="M368.253 168.526C366.095 168.008 364.971 166.203 365.476 164.045C365.994 161.886 367.811 160.775 369.97 161.293C372.154 161.81 373.252 163.615 372.747 165.774C372.229 167.932 370.437 169.043 368.253 168.526ZM369.616 162.808C368.241 162.479 367.067 163.085 366.764 164.347C366.461 165.61 367.256 166.657 368.632 166.986C370.008 167.314 371.182 166.721 371.485 165.458C371.788 164.196 370.992 163.136 369.629 162.808H369.616Z" fill="white"/>
<path d="M371.876 159.273C372.608 159.437 373.328 158.97 373.656 157.91C373.934 157.001 373.77 156.294 373.214 156.118C372.47 155.89 372.217 156.509 371.738 157.544C371.056 159.071 370.324 160.22 368.885 159.778C367.559 159.374 367.067 157.923 367.597 156.244C368.127 154.527 369.289 153.568 370.753 153.909L370.311 155.348C369.642 155.234 369.011 155.688 368.746 156.559C368.481 157.43 368.658 158.112 369.213 158.289C369.869 158.491 370.16 157.847 370.576 156.875C371.258 155.335 371.99 154.148 373.543 154.628C374.881 155.045 375.335 156.572 374.805 158.263C374.224 160.132 372.962 161.141 371.435 160.712L371.876 159.273Z" fill="white"/>
<path d="M375.196 146.121C377.304 146.929 378.162 148.822 377.442 150.69C377.039 151.738 376.332 152.306 375.549 152.495L379.172 153.884L378.616 155.323L369.137 151.675L369.616 150.425L370.689 150.64C370.26 149.958 370.046 149.062 370.449 148.001C371.169 146.133 372.999 145.288 375.17 146.121H375.196ZM374.628 147.585C373.29 147.067 372.053 147.509 371.598 148.708C371.131 149.908 371.75 151.044 373.075 151.548C374.438 152.066 375.675 151.649 376.142 150.45C376.609 149.251 375.966 148.09 374.64 147.572L374.628 147.585Z" fill="white"/>
<path d="M375.624 145.173C373.58 144.214 372.835 142.283 373.744 140.326C374.64 138.408 376.458 137.701 378.414 138.572C378.578 138.648 378.755 138.749 378.919 138.862L376.584 143.848L376.672 143.886C377.821 144.378 378.881 144.012 379.399 142.914C379.803 142.056 379.664 141.235 379.02 140.705L379.676 139.304C380.875 140.15 381.343 141.727 380.573 143.368C379.601 145.451 377.644 146.12 375.612 145.173H375.624ZM377.24 139.784C376.205 139.443 375.334 139.872 374.88 140.831C374.463 141.727 374.703 142.763 375.599 143.305L377.253 139.784H377.24Z" fill="white"/>
<path d="M379.147 137.739C377.178 136.641 376.572 134.646 377.645 132.715C378.554 131.074 380.031 130.557 381.621 131.087L380.839 132.5C379.993 132.261 379.236 132.538 378.769 133.384C378.163 134.47 378.642 135.669 379.905 136.363C381.154 137.057 382.404 136.817 383.01 135.732C383.464 134.911 383.3 134.104 382.644 133.523L383.426 132.097C384.739 133.144 385.042 134.735 384.133 136.376C383.06 138.307 381.116 138.85 379.122 137.739H379.147Z" fill="white"/>
<path d="M381.532 128.878L380.863 129.951L379.715 129.231L380.384 128.159L378.654 127.073L379.475 125.76L381.204 126.846L382.151 125.331L383.299 126.051L382.353 127.565L385.584 129.585C386.064 129.888 386.354 129.837 386.67 129.332L387.25 128.411L388.399 129.13L387.642 130.342C386.897 131.529 386.026 131.693 384.903 130.986L381.545 128.878H381.532Z" fill="white"/>
<path d="M381.128 123.375C380.674 123.072 380.585 122.516 380.888 122.074C381.179 121.633 381.734 121.506 382.188 121.809C382.643 122.112 382.719 122.668 382.428 123.109C382.138 123.551 381.583 123.677 381.128 123.375ZM382.832 124.334L383.691 123.059L389.737 127.149L388.878 128.424L382.832 124.334Z" fill="white"/>
<path d="M384.234 122.201L385.219 120.875L390.962 122.617L387.592 117.669L388.564 116.356L392.83 122.87L391.707 124.384L384.234 122.213V122.201Z" fill="white"/>
<path d="M391.656 118.325C389.927 116.874 389.712 114.804 391.101 113.163C392.464 111.547 394.395 111.332 396.061 112.67C396.2 112.797 396.352 112.935 396.478 113.074L392.944 117.29L393.019 117.353C393.991 118.123 395.127 118.035 395.91 117.113C396.516 116.394 396.592 115.561 396.112 114.879L397.096 113.705C398.031 114.829 398.094 116.47 396.92 117.858C395.443 119.613 393.385 119.764 391.669 118.325H391.656ZM394.61 113.541C393.701 112.935 392.742 113.125 392.06 113.945C391.429 114.703 391.391 115.763 392.111 116.52L394.61 113.541Z" fill="white"/>
<path d="M508.241 315.946C504.997 316.237 501.702 316.375 498.382 316.375C495.063 316.375 491.73 316.237 488.461 315.946H508.241Z" stroke="#CC2922" stroke-width="1.26227" stroke-miterlimit="10"/>
<path d="M645.083 152.76L627.096 151.245L609.79 167.213C612.883 177.664 614.549 188.747 614.549 200.209C614.549 256.43 574.624 303.323 521.57 314.053L533.612 336.281L528.387 351.429C599.162 337.48 652.531 275.086 652.531 200.209C652.531 183.648 649.918 167.705 645.083 152.76Z" fill="#B81703"/>
<path d="M637.673 212.554L637.597 214.195L627.625 213.753L627.701 212.112L637.673 212.554Z" fill="white"/>
<path d="M630.616 226.805L626.438 226.338L626.614 224.81L630.691 225.265C631.966 225.404 632.686 224.962 632.799 223.965C632.913 222.917 632.193 222.16 630.893 222.021L626.968 221.579L627.144 220.039L631.222 220.493C632.496 220.632 633.216 220.19 633.329 219.181C633.443 218.133 632.673 217.388 631.386 217.237L627.498 216.808L627.662 215.28L634.92 216.088L634.768 217.414L633.797 217.477C634.289 217.944 634.705 218.625 634.592 219.723C634.491 220.67 634.011 221.478 633.027 221.819C633.771 222.374 634.2 223.258 634.074 224.444C633.91 225.946 632.913 227.07 630.616 226.817V226.805Z" fill="white"/>
<path d="M628.281 235.414C626.072 234.972 624.91 233.243 625.302 231.286C625.529 230.176 626.135 229.507 626.867 229.191L623.067 228.421L623.37 226.906L633.33 228.926L633.065 230.239L631.966 230.201C632.497 230.807 632.863 231.652 632.635 232.763C632.244 234.72 630.578 235.868 628.281 235.401V235.414ZM628.596 233.874C630.01 234.164 631.146 233.521 631.398 232.258C631.651 230.996 630.856 229.974 629.467 229.696C628.041 229.406 626.879 230.037 626.627 231.286C626.375 232.549 627.195 233.584 628.596 233.874Z" fill="white"/>
<path d="M634.051 238.228L633.672 239.718L623.99 237.244L624.369 235.754L634.051 238.216V238.228Z" fill="white"/>
<path d="M627.222 239.428C629.38 240.084 630.39 241.902 629.759 243.959C629.14 245.979 627.449 246.938 625.391 246.345C625.215 246.295 625.025 246.219 624.848 246.131L626.464 240.867L626.363 240.842C625.164 240.526 624.154 241.031 623.801 242.192C623.523 243.088 623.776 243.884 624.482 244.325L624.028 245.802C622.728 245.133 622.034 243.644 622.564 241.915C623.233 239.718 625.076 238.771 627.222 239.428ZM626.363 244.982C627.436 245.171 628.244 244.628 628.56 243.606C628.85 242.659 628.471 241.662 627.512 241.258L626.376 244.982H626.363Z" fill="white"/>
<path d="M621.1 258.109L617.199 256.531L617.78 255.105L621.579 256.645C622.766 257.125 623.586 256.885 623.965 255.963C624.356 254.992 623.877 254.07 622.652 253.578L618.992 252.101L619.572 250.662L623.372 252.202C624.558 252.682 625.379 252.442 625.757 251.508C626.149 250.536 625.606 249.602 624.407 249.109L620.784 247.645L621.365 246.219L628.13 248.958L627.626 250.195L626.679 249.993C627.032 250.574 627.234 251.344 626.843 252.366C626.49 253.25 625.808 253.893 624.773 253.956C625.341 254.689 625.518 255.661 625.063 256.771C624.495 258.172 623.233 258.98 621.087 258.109H621.1Z" fill="white"/>
<path d="M620.001 258.917C622.008 259.939 622.69 261.908 621.705 263.827C620.746 265.708 618.903 266.352 616.984 265.417C616.82 265.329 616.643 265.228 616.479 265.115L618.991 260.204L618.903 260.154C617.779 259.624 616.694 259.952 616.139 261.037C615.709 261.883 615.823 262.704 616.441 263.259L615.747 264.635C614.586 263.751 614.157 262.161 614.977 260.545C616.025 258.5 618.007 257.894 620.001 258.904V258.917ZM618.196 264.244C619.218 264.622 620.115 264.231 620.594 263.272C621.049 262.401 620.847 261.34 619.963 260.772L618.196 264.244Z" fill="white"/>
<path d="M612.97 272.487L609.486 270.391L610.282 269.053L613.652 271.073C614.838 271.78 615.772 271.666 616.366 270.669C616.997 269.621 616.606 268.536 615.331 267.766L612.175 265.872L612.97 264.547L619.231 268.308L618.537 269.457L617.628 269.116C617.88 269.798 617.931 270.644 617.312 271.653C616.479 273.042 615.04 273.724 612.945 272.461L612.97 272.487Z" fill="white"/>
<path d="M613.387 275.213L614.106 274.165L615.229 274.923L614.523 275.97L616.214 277.119L615.343 278.406L613.652 277.258L612.654 278.735L611.531 277.977L612.528 276.5L609.372 274.355C608.905 274.039 608.615 274.077 608.287 274.569L607.681 275.465L606.558 274.708L607.353 273.521C608.135 272.36 609.019 272.234 610.117 272.979L613.399 275.2L613.387 275.213Z" fill="white"/>
<path d="M602.961 281.701L601.888 280.893L602.38 280.25C602.986 279.454 603.541 279.454 604.122 279.883C603.819 279.05 603.869 278.142 604.576 277.207C605.548 275.933 606.836 275.529 607.921 276.336C609.108 277.245 609.133 278.621 607.896 280.237L606.785 281.701L607.139 281.966C607.783 282.458 608.54 282.294 609.146 281.487C609.701 280.754 609.726 280.01 609.285 279.53L610.193 278.318C611.241 279.303 611.191 280.818 610.08 282.282C608.906 283.822 607.492 284.15 606.116 283.115L603.781 281.348C603.491 281.12 603.314 281.184 603.125 281.436L602.935 281.689L602.961 281.701ZM605.876 281.02L607.038 279.492C607.618 278.735 607.656 278.091 607.063 277.649C606.571 277.283 605.927 277.435 605.409 278.104C604.627 279.126 604.791 280.174 605.675 280.868L605.876 281.02Z" fill="white"/>
<path d="M605.611 285.652L606.432 284.68L607.467 285.551L606.647 286.523L608.199 287.836L607.189 289.022L605.637 287.71L604.488 289.073L603.453 288.202L604.602 286.839L601.698 284.377C601.269 284.011 600.966 284.024 600.588 284.466L599.881 285.299L598.846 284.428L599.767 283.342C600.676 282.282 601.56 282.244 602.569 283.102L605.599 285.665L605.611 285.652Z" fill="white"/>
<path d="M603.642 290.007L602.607 291.143L597.191 286.245L598.226 285.109L603.642 290.007ZM605.194 291.206C605.598 291.572 605.598 292.14 605.245 292.532C604.891 292.923 604.323 292.973 603.932 292.607C603.528 292.241 603.528 291.673 603.881 291.295C604.235 290.903 604.803 290.853 605.194 291.219V291.206Z" fill="white"/>
<path d="M599.085 289.654C600.663 291.231 600.676 293.352 599.098 294.93C597.533 296.508 595.399 296.495 593.822 294.93C592.244 293.352 592.231 291.231 593.809 289.654C595.387 288.076 597.495 288.076 599.085 289.654ZM594.932 293.806C595.93 294.804 597.255 294.917 598.164 293.996C599.085 293.074 598.959 291.762 597.962 290.764C596.965 289.767 595.652 289.654 594.73 290.562C593.809 291.484 593.923 292.797 594.92 293.794L594.932 293.806Z" fill="white"/>
<path d="M588.015 300.597L585.339 297.53L586.513 296.508L589.1 299.474C590.009 300.522 590.943 300.686 591.814 299.928C592.736 299.12 592.698 297.972 591.726 296.848L589.302 294.071L590.464 293.062L595.26 298.565L594.25 299.449L593.493 298.843C593.518 299.575 593.304 300.383 592.42 301.165C591.208 302.226 589.631 302.428 588.015 300.597Z" fill="white"/>
<path d="M534.028 67.3295L537.84 68.3015C539.86 68.819 540.907 70.359 540.428 72.2397C540.099 73.5399 539.09 74.3856 537.853 74.4992L538.925 78.8793L537.158 78.4249L536.186 74.4361L534.053 73.8933L533.157 77.4024L531.566 76.9985L534.028 67.3169V67.3295ZM535.265 69.1219L534.407 72.5301L536.515 73.0602C537.651 73.3505 538.547 72.8709 538.812 71.8358C539.077 70.8008 538.509 69.9424 537.373 69.6647L535.265 69.1346V69.1219Z" fill="white"/>
<path d="M540.403 75.5345C541.11 73.3886 542.94 72.4166 544.985 73.0857C546.992 73.742 547.913 75.4587 547.282 77.5036C547.232 77.6803 547.143 77.8697 547.055 78.0464L541.829 76.3297L541.804 76.418C541.45 77.6046 541.955 78.627 543.104 79.0057C544 79.296 544.795 79.0688 545.25 78.3619L546.714 78.8416C546.02 80.1291 544.505 80.7855 542.788 80.2301C540.605 79.5106 539.696 77.6551 540.403 75.5218V75.5345ZM545.944 76.4938C546.159 75.4208 545.628 74.6004 544.619 74.2722C543.685 73.9692 542.675 74.3227 542.246 75.282L545.944 76.4938Z" fill="white"/>
<path d="M548.821 74.4614L550.361 75.0799L550.134 81.0757L554.072 76.5568L555.587 77.1627L550.374 82.9439L548.619 82.2496L548.821 74.4614Z" fill="white"/>
<path d="M556.458 77.6045L557.859 78.2356L554.855 84.8878L553.454 84.2567L556.458 77.6045ZM557.115 75.7616C557.342 75.2693 557.872 75.0926 558.352 75.3072C558.831 75.5218 559.046 76.0393 558.831 76.5442C558.604 77.0365 558.074 77.2132 557.594 76.9986C557.115 76.784 556.9 76.2665 557.115 75.7616Z" fill="white"/>
<path d="M557.557 82.0979C558.579 80.0909 560.549 79.4092 562.467 80.3938C564.348 81.3531 564.992 83.1834 564.058 85.1147C563.969 85.2788 563.868 85.4555 563.755 85.6196L558.857 83.1203L558.807 83.2087C558.276 84.3321 558.605 85.4176 559.69 85.9604C560.523 86.3896 561.356 86.276 561.912 85.6575L563.288 86.3643C562.404 87.5256 560.814 87.9548 559.198 87.1217C557.153 86.074 556.547 84.1049 557.57 82.1105L557.557 82.0979ZM562.884 83.9029C563.262 82.8805 562.871 81.9969 561.912 81.5046C561.041 81.0628 559.993 81.2648 559.412 82.1357L562.884 83.9029Z" fill="white"/>
<path d="M566.241 82.3257L567.629 83.184L566.114 88.8264L570.469 84.9386L571.668 85.6833L570.103 91.2878L574.508 87.4253L575.846 88.2457L569.952 93.1938L568.538 92.3229L569.825 87.2864L565.862 90.6819L564.436 89.8109L566.241 82.3383V82.3257Z" fill="white"/>
<path d="M519.879 337.417L514.313 354.357H314.723V315.946H488.462C491.731 316.237 495.038 316.375 498.383 316.375C501.728 316.375 504.997 316.237 508.241 315.946L519.879 337.417Z" fill="#6C0B00"/>
<path d="M684.151 335.133L661.077 354.357L643.039 369.391V354.357H563.895C582.601 344.94 599.137 331.813 612.505 315.946H643.039V300.875L661.127 315.946L684.151 335.133Z" fill="#6C0B00"/>
<path d="M384.903 332.445H388.842C390.924 332.445 392.3 333.682 392.3 335.626C392.3 337.57 390.924 338.807 388.842 338.807H386.544V342.43H384.903V332.433V332.445ZM386.544 333.872V337.381H388.703C389.877 337.381 390.634 336.699 390.634 335.626C390.634 334.553 389.889 333.872 388.715 333.872H386.544Z" fill="white"/>
<path d="M393.386 332.445H394.926V342.442H393.386V332.445Z" fill="white"/>
<path d="M403.434 341.092V342.43H402.626C401.629 342.43 401.288 341.988 401.288 341.256C400.808 342.001 400.063 342.506 398.877 342.506C397.274 342.506 396.163 341.723 396.163 340.36C396.163 338.858 397.249 338.025 399.293 338.025H401.136V337.583C401.136 336.775 400.556 336.27 399.533 336.27C398.624 336.27 398.006 336.699 397.892 337.343H396.378C396.529 335.917 397.766 335.033 399.609 335.033C401.553 335.033 402.664 335.955 402.664 337.684V340.612C402.664 340.978 402.815 341.079 403.131 341.079H403.446L403.434 341.092ZM401.124 339.173H399.205C398.246 339.173 397.716 339.527 397.716 340.272C397.716 340.89 398.233 341.319 399.066 341.319C400.354 341.319 401.099 340.562 401.111 339.439V339.186L401.124 339.173Z" fill="white"/>
<path d="M411.069 338.365V342.43H409.517V338.491C409.517 337.103 408.936 336.371 407.775 336.371C406.55 336.371 405.818 337.267 405.818 338.756V342.442H404.278V335.134H405.616L405.793 336.093C406.247 335.525 406.954 335.045 408.128 335.045C409.744 335.045 411.069 335.929 411.069 338.365Z" fill="white"/>
<path d="M419.25 338.365V342.43H417.697V338.491C417.697 337.103 417.117 336.371 415.955 336.371C414.731 336.371 413.999 337.267 413.999 338.756V342.442H412.459V335.134H413.797L413.974 336.093C414.428 335.525 415.135 335.045 416.309 335.045C417.925 335.045 419.25 335.929 419.25 338.365Z" fill="white"/>
<path d="M420.487 333.165C420.487 332.622 420.904 332.23 421.434 332.23C421.964 332.23 422.381 332.622 422.381 333.165C422.381 333.707 421.964 334.086 421.434 334.086C420.904 334.086 420.487 333.707 420.487 333.165ZM420.639 335.121H422.179V342.43H420.639V335.121Z" fill="white"/>
<path d="M430.497 338.365V342.43H428.944V338.491C428.944 337.103 428.364 336.371 427.203 336.371C425.978 336.371 425.246 337.267 425.246 338.756V342.442H423.706V335.134H425.044L425.221 336.093C425.675 335.525 426.382 335.045 427.556 335.045C429.172 335.045 430.497 335.929 430.497 338.365Z" fill="white"/>
<path d="M437.641 335.121H438.979V342.127C438.979 344.109 437.868 345.371 435.243 345.371C433.299 345.371 431.948 344.475 431.797 342.834H433.362C433.551 343.641 434.258 344.121 435.344 344.121C436.682 344.121 437.439 343.477 437.439 342.076V341.268C436.959 342.001 436.202 342.468 435.053 342.468C433.072 342.468 431.595 341.079 431.595 338.756C431.595 336.434 433.059 335.045 435.053 335.045C436.189 335.045 436.985 335.55 437.452 336.27L437.628 335.134L437.641 335.121ZM437.452 338.769C437.452 337.33 436.606 336.333 435.331 336.333C434.056 336.333 433.21 337.33 433.21 338.744C433.21 340.158 434.056 341.155 435.331 341.155C436.606 341.155 437.452 340.17 437.452 338.769Z" fill="white"/>
<path d="M456.021 187.358C456.197 189.706 458.065 191.335 461.032 191.335C463.417 191.335 465.185 190.3 465.185 188.394C465.185 186.349 463.216 185.932 459.164 185.137C455.086 184.38 451.489 183.067 451.489 178.157C451.489 173.865 455.049 170.823 460.514 170.823C465.98 170.823 469.855 173.802 469.918 178.434H464.831C464.591 176.389 463.039 174.976 460.514 174.976C458.305 174.976 456.715 175.91 456.715 177.778C456.715 179.747 458.621 180.164 462.622 180.921C466.775 181.678 470.436 182.928 470.398 187.8C470.36 192.332 466.624 195.437 460.956 195.437C454.796 195.437 450.959 192.193 450.934 187.283L456.021 187.346V187.358Z" fill="black"/>
<path d="M491.604 186.399C491.604 191.928 488.145 195.462 483.374 195.462C480.925 195.462 479.158 194.465 478.009 193.013V202.177H473.137V177.487H477.391L477.87 179.936C479.006 178.409 480.811 177.273 483.336 177.273C488.145 177.235 491.604 180.794 491.604 186.399ZM486.656 186.336C486.656 183.332 484.926 181.249 482.263 181.249C479.6 181.249 477.946 183.319 477.946 186.336C477.946 189.353 479.6 191.486 482.263 191.486C484.926 191.486 486.656 189.378 486.656 186.336Z" fill="black"/>
<path d="M505.123 177.475V181.906H503.192C500.289 181.906 499.178 183.837 499.178 186.538V195.248H494.306V177.475H498.736L499.191 180.138C500.163 178.548 501.538 177.475 504.303 177.475H505.136H505.123Z" fill="black"/>
<path d="M506.929 172.842C506.929 171.252 508.178 170.078 509.769 170.078C511.359 170.078 512.609 171.252 512.609 172.842C512.609 174.433 511.359 175.569 509.769 175.569C508.178 175.569 506.929 174.395 506.929 172.842ZM507.307 177.475H512.218V195.248H507.307V177.475Z" fill="black"/>
<path d="M532.893 185.389V195.248H528.02V185.882C528.02 182.877 526.884 181.287 524.423 181.287C521.961 181.287 520.447 183.079 520.447 186.159V195.248H515.574V177.475H519.828L520.282 179.684C521.419 178.295 523.047 177.26 525.773 177.26C529.611 177.26 532.893 179.305 532.893 185.389Z" fill="black"/>
<path d="M537.248 181.59H534.307V177.475H537.248V172.501H542.12V177.475H546.197V181.59H542.12V189.365C542.12 190.615 542.6 191.133 543.887 191.133H546.311V195.248H542.335C538.952 195.248 537.248 193.556 537.248 190.161V181.59Z" fill="black"/>
<path d="M443.752 211.948H445.67V228.307H443.714V216.581C443.474 216.795 443.108 216.884 442.59 216.884H439.952V215.129H442.616C443.386 215.129 443.764 214.549 443.764 213.728V211.948H443.752Z" fill="black"/>
<path d="M454.62 222.462V220.847H462.396V222.462H454.62Z" fill="black"/>
<path d="M470.045 222.551L478.389 211.948H480.585V222.513H483.223V224.306H480.585V228.307H478.628V224.306H470.058V222.551H470.045ZM472.241 222.501H478.616V214.347L472.241 222.501Z" fill="black"/>
<path d="M489.762 216.378H491.769L494.735 226.073L497.865 216.378H499.645L502.612 226.073L505.717 216.378H507.661L503.684 228.294H501.576L498.699 219.446L495.707 228.294H493.599L489.749 216.378H489.762Z" fill="black"/>
<path d="M508.342 222.337C508.342 218.714 510.627 216.24 513.997 216.24C517.367 216.24 519.563 218.36 519.652 221.895C519.652 222.147 519.627 222.437 519.601 222.715H510.349V222.879C510.425 225.139 511.838 226.729 514.11 226.729C515.789 226.729 517.102 225.846 517.493 224.306H519.437C518.97 226.691 517.014 228.446 514.249 228.446C510.677 228.446 508.342 225.997 508.342 222.349V222.337ZM517.594 221.125C517.405 219.067 516.004 217.919 514.022 217.919C512.267 217.919 510.652 219.181 510.475 221.125H517.607H517.594Z" fill="black"/>
<path d="M521.419 222.337C521.419 218.714 523.704 216.24 527.074 216.24C530.444 216.24 532.641 218.36 532.729 221.895C532.729 222.147 532.704 222.437 532.678 222.715H523.426V222.879C523.502 225.139 524.915 226.729 527.188 226.729C528.866 226.729 530.179 225.846 530.57 224.306H532.514C532.047 226.691 530.091 228.446 527.326 228.446C523.754 228.446 521.419 225.997 521.419 222.349V222.337ZM530.671 221.125C530.482 219.067 529.081 217.919 527.099 217.919C525.345 217.919 523.729 219.181 523.552 221.125H530.684H530.671Z" fill="black"/>
<path d="M534.926 211.948H536.844V222.715L542.828 216.378H545.188L540.543 221.314L545.516 228.294H543.206L539.255 222.69L536.844 225.164V228.294H534.926V211.935V211.948Z" fill="black"/>
<path d="M547.964 224.368C548.04 225.769 549.277 226.792 551.259 226.792C552.938 226.792 554.137 226.072 554.137 224.974C554.137 223.485 552.824 223.358 551.057 223.156C548.394 222.828 546.273 222.298 546.273 219.811C546.273 217.64 548.255 216.214 550.943 216.239C553.657 216.264 555.614 217.527 555.803 220.001H553.846C553.708 218.789 552.584 217.88 550.943 217.88C549.302 217.88 548.166 218.574 548.166 219.672C548.166 220.985 549.429 221.149 551.158 221.351C553.872 221.679 556.043 222.197 556.043 224.835C556.043 227.057 553.922 228.433 551.271 228.433C548.192 228.433 546.058 226.981 546.008 224.368H547.964Z" fill="black"/>
<path d="M23.1104 374.465H27.8691C30.3432 374.465 31.9715 375.954 31.9715 378.264C31.9715 380.574 30.3432 382.089 27.8691 382.089H24.6503V386.848H23.1104V374.465ZM24.6503 375.879V380.675H27.7303C29.3586 380.675 30.4063 379.741 30.4063 378.264C30.4063 376.787 29.3838 375.879 27.7555 375.879H24.6629H24.6503Z" fill="black"/>
<path d="M37.9806 377.835V379.249H37.2611C35.3677 379.249 34.8627 380.827 34.8627 382.253V386.848H33.4111V377.835H34.6608L34.8501 379.198C35.2793 378.504 35.9609 377.835 37.5766 377.835H37.9806Z" fill="black"/>
<path d="M38.3975 382.342C38.3975 379.602 40.2404 377.722 42.8659 377.722C45.4914 377.722 47.3343 379.59 47.3343 382.342C47.3343 385.093 45.4914 386.962 42.8659 386.962C40.2404 386.962 38.3975 385.093 38.3975 382.342ZM45.8575 382.342C45.8575 380.41 44.6583 379.022 42.8659 379.022C41.0735 379.022 39.8743 380.423 39.8743 382.342C39.8743 384.26 41.0735 385.661 42.8659 385.661C44.6583 385.661 45.8575 384.26 45.8575 382.342Z" fill="black"/>
<path d="M56.1077 374.465H57.5593V386.848H56.297L56.1077 385.396C55.5018 386.229 54.5299 386.949 53.0151 386.949C50.5285 386.949 48.6855 385.27 48.6855 382.329C48.6855 379.577 50.5285 377.709 53.0151 377.709C54.5425 377.709 55.5649 378.327 56.1077 379.198V374.465ZM56.1203 382.367C56.1203 380.385 54.9212 379.009 53.154 379.009C51.3868 379.009 50.1624 380.372 50.1624 382.329C50.1624 384.285 51.3616 385.649 53.154 385.649C54.9464 385.649 56.1203 384.285 56.1203 382.354V382.367Z" fill="black"/>
<path d="M65.839 377.835H67.2906V386.848H66.041L65.8516 385.648C65.3215 386.317 64.4505 386.961 62.9737 386.961C60.9919 386.961 59.4141 385.85 59.4141 382.859V377.835H60.8657V382.77C60.8657 384.639 61.7114 385.636 63.2135 385.636C64.8544 385.636 65.8516 384.386 65.8516 382.341V377.835H65.839Z" fill="black"/>
<path d="M68.9443 382.354C68.9443 379.59 70.7368 377.722 73.3497 377.722C75.5586 377.722 76.9597 378.959 77.3258 380.94H75.7985C75.5334 379.741 74.6498 379.009 73.3244 379.009C71.5951 379.009 70.4212 380.385 70.4212 382.354C70.4212 384.323 71.5825 385.661 73.3244 385.661C74.6119 385.661 75.4955 384.917 75.7858 383.768H77.3258C76.9724 385.712 75.5081 386.949 73.3118 386.949C70.6736 386.949 68.9443 385.156 68.9443 382.354Z" fill="black"/>
<path d="M79.5844 379.16H77.9561V377.835H79.5844V375.311H81.036V377.835H83.3712V379.16H81.036V384.487C81.036 385.245 81.3011 385.535 82.0837 385.535H83.51V386.86H81.9322C80.2029 386.86 79.5844 386.103 79.5844 384.513V379.173V379.16Z" fill="black"/>
<path d="M22.4043 395.671H26.7844C29.4225 395.671 30.8868 396.946 30.8868 398.94C30.8868 400.354 30.1041 401.225 28.9429 401.629C30.2556 401.881 31.4043 402.727 31.4043 404.507C31.4043 406.703 29.8517 408.041 26.9106 408.041H22.4043V395.658V395.671ZM23.9443 397.072V401.048H26.8601C28.4506 401.048 29.3594 400.303 29.3594 399.054C29.3594 397.804 28.4758 397.072 26.8601 397.072H23.9443ZM23.9443 402.424V406.653H26.9106C28.8166 406.653 29.8264 405.857 29.8264 404.582C29.8264 403.181 28.7535 402.424 26.9106 402.424H23.9443Z" fill="black"/>
<path d="M41.553 406.728V408.054H40.7578C39.5587 408.054 39.1547 407.536 39.1295 406.653C38.5615 407.461 37.6653 408.155 36.1 408.155C34.1183 408.155 32.7803 407.17 32.7803 405.517C32.7803 403.712 34.0299 402.702 36.403 402.702H39.0538V402.083C39.0538 400.922 38.2207 400.215 36.8069 400.215C35.532 400.215 34.6863 400.821 34.5096 401.73H33.058C33.2726 399.963 34.6989 398.915 36.8827 398.915C39.18 398.915 40.5054 400.064 40.5054 402.172V406.11C40.5054 406.59 40.6821 406.716 41.086 406.716H41.5404L41.553 406.728ZM39.0538 403.939H36.2641C34.9766 403.939 34.2445 404.419 34.2445 405.441C34.2445 406.325 35.0019 406.93 36.201 406.93C38.0061 406.93 39.0411 405.883 39.0411 404.381V403.939H39.0538Z" fill="black"/>
<path d="M42.2344 403.56C42.2344 400.795 44.0268 398.927 46.6397 398.927C48.8487 398.927 50.2498 400.164 50.6158 402.146H49.0885C48.8234 400.947 47.9398 400.215 46.6145 400.215C44.8851 400.215 43.7112 401.591 43.7112 403.56C43.7112 405.529 44.8725 406.867 46.6145 406.867C47.902 406.867 48.7856 406.122 49.0759 404.973H50.6158C50.2624 406.917 48.7982 408.154 46.6018 408.154C43.9637 408.154 42.2344 406.362 42.2344 403.56Z" fill="black"/>
<path d="M52.1934 395.671H53.645V403.825L58.1765 399.029H59.9689L56.4472 402.765L60.2088 408.054H58.4542L55.4626 403.813L53.645 405.681V408.054H52.1934V395.671Z" fill="black"/>
<path d="M61.2314 395.671H62.6831V408.054H61.2314V395.671Z" fill="black"/>
<path d="M64.3369 403.547C64.3369 400.808 66.1798 398.927 68.8053 398.927C71.4309 398.927 73.2738 400.795 73.2738 403.547C73.2738 406.299 71.4309 408.167 68.8053 408.167C66.1798 408.167 64.3369 406.299 64.3369 403.547ZM71.7969 403.547C71.7969 401.616 70.5978 400.227 68.8053 400.227C67.0129 400.227 65.8138 401.629 65.8138 403.547C65.8138 405.466 67.0129 406.867 68.8053 406.867C70.5978 406.867 71.7969 405.466 71.7969 403.547Z" fill="black"/>
<path d="M82.2483 399.041H83.5106V407.612C83.5106 410.212 82.1347 411.701 79.0421 411.701C76.7448 411.701 75.1291 410.628 74.9019 408.647H76.3913C76.6438 409.783 77.6536 410.414 79.1557 410.414C81.0491 410.414 82.0716 409.53 82.0716 407.561V406.501C81.4657 407.523 80.4937 408.167 78.979 408.167C76.4923 408.167 74.6494 406.488 74.6494 403.547C74.6494 400.795 76.4923 398.927 78.979 398.927C80.5063 398.927 81.5035 399.584 82.0716 400.593L82.2609 399.041H82.2483ZM82.0716 403.585C82.0716 401.603 80.8724 400.227 79.1052 400.227C77.338 400.227 76.1136 401.591 76.1136 403.547C76.1136 405.504 77.3128 406.867 79.1052 406.867C80.8976 406.867 82.0716 405.504 82.0716 403.572V403.585Z" fill="black"/>
<path d="M190.036 382.796C190.162 384.462 191.45 385.561 193.343 385.561C195.009 385.561 196.196 384.803 196.196 383.453C196.196 381.913 194.668 381.597 192.8 381.282C190.806 380.941 188.748 380.284 188.748 377.886C188.748 375.778 190.465 374.364 192.977 374.364C195.741 374.364 197.433 375.904 197.572 378.126H195.981C195.804 376.699 194.656 375.753 192.977 375.753C191.298 375.753 190.288 376.46 190.288 377.785C190.288 379.275 191.79 379.577 193.646 379.893C195.666 380.234 197.736 380.903 197.736 383.301C197.736 385.447 195.931 386.949 193.33 386.949C190.301 386.949 188.534 385.232 188.445 382.796H190.036Z" fill="black"/>
<path d="M208.339 382.342C208.339 385.106 206.496 386.962 204.009 386.962C202.494 386.962 201.459 386.343 200.916 385.473V390.383H199.465V377.823H200.714L200.904 379.275C201.51 378.442 202.482 377.722 203.996 377.722C206.496 377.722 208.326 379.401 208.326 382.342H208.339ZM206.849 382.342C206.849 380.386 205.65 379.022 203.858 379.022C202.065 379.022 200.891 380.386 200.891 382.317C200.891 384.248 202.09 385.674 203.858 385.674C205.625 385.674 206.849 384.311 206.849 382.355V382.342Z" fill="black"/>
<path d="M214.574 377.835V379.249H213.855C211.961 379.249 211.444 380.827 211.444 382.253V386.848H209.992V377.835H211.254L211.444 379.199C211.873 378.504 212.555 377.835 214.17 377.835H214.574Z" fill="black"/>
<path d="M215.622 375.374C215.622 374.831 216.026 374.44 216.556 374.44C217.086 374.44 217.49 374.831 217.49 375.374C217.49 375.917 217.086 376.308 216.556 376.308C216.026 376.308 215.622 375.917 215.622 375.374ZM215.811 377.835H217.263V386.848H215.811V377.835Z" fill="black"/>
<path d="M227.311 381.824V386.848H225.859V381.912C225.859 380.044 224.988 379.047 223.423 379.047C221.732 379.047 220.697 380.309 220.697 382.342V386.848H219.245V377.835H220.507L220.697 379.06C221.227 378.365 222.148 377.734 223.663 377.734C225.695 377.734 227.311 378.845 227.311 381.837V381.824Z" fill="black"/>
<path d="M229.834 379.161H228.206V377.836H229.834V375.311H231.286V377.836H233.621V379.161H231.286V384.488C231.286 385.245 231.551 385.535 232.334 385.535H233.76V386.861H232.182C230.453 386.861 229.834 386.103 229.834 384.513V379.174V379.161Z" fill="black"/>
<path d="M180.442 395.671H184.822C187.461 395.671 188.925 396.946 188.925 398.941C188.925 400.354 188.142 401.225 186.981 401.629C188.294 401.882 189.442 402.727 189.442 404.507C189.442 406.704 187.89 408.042 184.949 408.042H180.442V395.659V395.671ZM181.982 397.072V401.049H184.898C186.489 401.049 187.398 400.304 187.398 399.054C187.398 397.805 186.514 397.072 184.898 397.072H181.982ZM181.982 402.424V406.653H184.949C186.855 406.653 187.865 405.858 187.865 404.583C187.865 403.182 186.792 402.424 184.949 402.424H181.982Z" fill="black"/>
<path d="M199.591 406.729V408.054H198.796C197.597 408.054 197.193 407.537 197.168 406.653C196.6 407.461 195.703 408.155 194.138 408.155C192.156 408.155 190.818 407.171 190.818 405.517C190.818 403.712 192.068 402.702 194.441 402.702H197.092V402.084C197.092 400.923 196.259 400.216 194.845 400.216C193.57 400.216 192.724 400.822 192.548 401.73H191.096C191.311 399.963 192.737 398.916 194.921 398.916C197.218 398.916 198.543 400.064 198.543 402.172V406.11C198.543 406.59 198.72 406.716 199.124 406.716H199.579L199.591 406.729ZM197.092 403.939H194.302C193.015 403.939 192.283 404.419 192.283 405.441C192.283 406.325 193.04 406.931 194.239 406.931C196.044 406.931 197.079 405.883 197.079 404.381V403.939H197.092Z" fill="black"/>
<path d="M200.272 403.561C200.272 400.796 202.065 398.928 204.678 398.928C206.887 398.928 208.288 400.165 208.654 402.147H207.127C206.862 400.948 205.978 400.216 204.653 400.216C202.923 400.216 201.749 401.592 201.749 403.561C201.749 405.53 202.911 406.868 204.653 406.868C205.94 406.868 206.824 406.123 207.114 404.974H208.654C208.3 406.918 206.836 408.155 204.64 408.155C202.002 408.155 200.272 406.363 200.272 403.561Z" fill="black"/>
<path d="M210.231 395.671H211.683V403.826L216.215 399.029H218.007L214.485 402.765L218.247 408.054H216.492L213.501 403.813L211.683 405.681V408.054H210.231V395.671Z" fill="black"/>
<path d="M219.27 395.671H220.721V408.054H219.27V395.671Z" fill="black"/>
<path d="M222.375 403.548C222.375 400.809 224.218 398.928 226.843 398.928C229.469 398.928 231.312 400.796 231.312 403.548C231.312 406.3 229.469 408.168 226.843 408.168C224.218 408.168 222.375 406.3 222.375 403.548ZM229.835 403.548C229.835 401.617 228.636 400.228 226.843 400.228C225.051 400.228 223.852 401.629 223.852 403.548C223.852 405.467 225.051 406.868 226.843 406.868C228.636 406.868 229.835 405.467 229.835 403.548Z" fill="black"/>
<path d="M240.286 399.042H241.549V407.613C241.549 410.213 240.173 411.702 237.08 411.702C234.783 411.702 233.167 410.629 232.94 408.648H234.429C234.682 409.784 235.692 410.415 237.194 410.415C239.087 410.415 240.11 409.531 240.11 407.562V406.502C239.504 407.524 238.532 408.168 237.017 408.168C234.53 408.168 232.688 406.489 232.688 403.548C232.688 400.796 234.53 398.928 237.017 398.928C238.544 398.928 239.542 399.585 240.11 400.594L240.299 399.042H240.286ZM240.11 403.586C240.11 401.604 238.91 400.228 237.143 400.228C235.376 400.228 234.152 401.592 234.152 403.548C234.152 405.505 235.351 406.868 237.143 406.868C238.936 406.868 240.11 405.505 240.11 403.573V403.586Z" fill="black"/>
<path d="M739.171 380.663C739.171 376.914 741.481 374.364 745.078 374.364C747.817 374.364 749.812 375.955 750.279 378.517H748.65C748.171 376.8 746.858 375.778 745.003 375.778C742.402 375.778 740.736 377.798 740.736 380.663C740.736 383.528 742.327 385.548 744.927 385.548C746.833 385.548 748.158 384.538 748.625 382.809H750.254C749.799 385.371 747.742 386.962 744.952 386.962C741.392 386.962 739.171 384.45 739.171 380.663Z" fill="black"/>
<path d="M751.579 382.342C751.579 379.603 753.422 377.722 756.048 377.722C758.673 377.722 760.516 379.59 760.516 382.342C760.516 385.094 758.673 386.962 756.048 386.962C753.422 386.962 751.579 385.094 751.579 382.342ZM759.039 382.342C759.039 380.411 757.84 379.022 756.048 379.022C754.255 379.022 753.056 380.423 753.056 382.342C753.056 384.261 754.255 385.662 756.048 385.662C757.84 385.662 759.039 384.261 759.039 382.342Z" fill="black"/>
<path d="M775.65 381.648V386.848H774.198V381.736C774.198 379.969 773.416 379.048 772.053 379.048C770.55 379.048 769.629 380.184 769.629 382.014V386.836H768.177V381.724C768.177 379.956 767.382 379.035 766.006 379.035C764.517 379.035 763.621 380.272 763.621 382.077V386.836H762.169V377.823H763.419L763.608 379.06C764.088 378.404 764.845 377.722 766.246 377.722C767.508 377.722 768.581 378.29 769.099 379.439C769.642 378.467 770.614 377.722 772.229 377.722C774.097 377.722 775.637 378.795 775.637 381.648H775.65Z" fill="black"/>
<path d="M786.38 382.342C786.38 385.106 784.537 386.962 782.05 386.962C780.535 386.962 779.5 386.343 778.957 385.473V390.383H777.506V377.823H778.755L778.945 379.275C779.551 378.442 780.523 377.722 782.037 377.722C784.537 377.722 786.367 379.401 786.367 382.342H786.38ZM784.89 382.342C784.89 380.386 783.691 379.022 781.899 379.022C780.106 379.022 778.932 380.386 778.932 382.317C778.932 384.248 780.131 385.674 781.899 385.674C783.666 385.674 784.89 384.311 784.89 382.355V382.342Z" fill="black"/>
<path d="M788.033 374.465H789.485V386.848H788.033V374.465Z" fill="black"/>
<path d="M791.139 382.342C791.139 379.603 792.868 377.722 795.418 377.722C797.968 377.722 799.621 379.325 799.697 382.001C799.697 382.191 799.684 382.405 799.659 382.62H792.653V382.746C792.704 384.463 793.789 385.662 795.493 385.662C796.768 385.662 797.753 384.993 798.056 383.819H799.52C799.167 385.624 797.677 386.949 795.594 386.949C792.893 386.949 791.126 385.094 791.126 382.329L791.139 382.342ZM798.144 381.421C798.005 379.868 796.945 378.997 795.443 378.997C794.118 378.997 792.893 379.956 792.754 381.421H798.144Z" fill="black"/>
<path d="M801.918 379.161H800.29V377.836H801.918V375.311H803.37V377.836H805.705V379.161H803.37V384.488C803.37 385.245 803.635 385.535 804.418 385.535H805.844V386.861H804.266C802.537 386.861 801.918 386.103 801.918 384.513V379.174V379.161Z" fill="black"/>
<path d="M806.551 382.342C806.551 379.603 808.28 377.722 810.83 377.722C813.38 377.722 815.033 379.325 815.109 382.001C815.109 382.191 815.096 382.405 815.071 382.62H808.065V382.746C808.116 384.463 809.201 385.662 810.905 385.662C812.18 385.662 813.165 384.993 813.468 383.819H814.932C814.579 385.624 813.089 386.949 811.006 386.949C808.305 386.949 806.538 385.094 806.538 382.329L806.551 382.342ZM813.556 381.421C813.417 379.868 812.357 378.997 810.855 378.997C809.53 378.997 808.305 379.956 808.166 381.421H813.556Z" fill="black"/>
<path d="M823.868 374.465H825.32V386.848H824.058L823.868 385.397C823.263 386.23 822.291 386.949 820.776 386.949C818.289 386.949 816.446 385.27 816.446 382.329C816.446 379.578 818.289 377.709 820.776 377.709C822.303 377.709 823.326 378.328 823.868 379.199V374.465ZM823.881 382.367C823.881 380.385 822.682 379.01 820.915 379.01C819.148 379.01 817.923 380.373 817.923 382.329C817.923 384.286 819.122 385.649 820.915 385.649C822.707 385.649 823.881 384.286 823.881 382.355V382.367Z" fill="black"/>
<path d="M752.64 395.671H757.398C759.872 395.671 761.501 397.161 761.501 399.471C761.501 401.781 759.872 403.296 757.398 403.296H754.18V408.054H752.64V395.671ZM754.18 397.085V401.882H757.26C758.888 401.882 759.936 400.948 759.936 399.471C759.936 397.994 758.913 397.085 757.285 397.085H754.192H754.18Z" fill="black"/>
<path d="M767.496 399.042V400.455H766.777C764.883 400.455 764.366 402.033 764.366 403.459V408.054H762.914V399.042H764.164L764.353 400.405C764.782 399.71 765.464 399.042 767.08 399.042H767.483H767.496Z" fill="black"/>
<path d="M767.926 403.548C767.926 400.809 769.769 398.928 772.394 398.928C775.02 398.928 776.863 400.796 776.863 403.548C776.863 406.3 775.02 408.168 772.394 408.168C769.769 408.168 767.926 406.3 767.926 403.548ZM775.386 403.548C775.386 401.617 774.187 400.228 772.394 400.228C770.602 400.228 769.403 401.629 769.403 403.548C769.403 405.467 770.602 406.868 772.394 406.868C774.187 406.868 775.386 405.467 775.386 403.548Z" fill="black"/>
<path d="M785.635 395.671H787.087V408.054H785.824L785.635 406.603C785.029 407.436 784.057 408.155 782.542 408.155C780.056 408.155 778.213 406.476 778.213 403.535C778.213 400.784 780.056 398.915 782.542 398.915C784.07 398.915 785.092 399.534 785.635 400.405V395.671ZM785.648 403.573C785.648 401.591 784.448 400.216 782.681 400.216C780.914 400.216 779.69 401.579 779.69 403.535C779.69 405.492 780.889 406.855 782.681 406.855C784.474 406.855 785.648 405.492 785.648 403.561V403.573Z" fill="black"/>
<path d="M795.366 399.042H796.818V408.054H795.568L795.379 406.855C794.849 407.524 793.978 408.168 792.501 408.168C790.519 408.168 788.941 407.057 788.941 404.065V399.042H790.393V403.977C790.393 405.845 791.239 406.842 792.741 406.842C794.382 406.842 795.379 405.593 795.379 403.548V399.042H795.366Z" fill="black"/>
<path d="M798.473 403.561C798.473 400.796 800.265 398.928 802.878 398.928C805.087 398.928 806.488 400.165 806.854 402.147H805.327C805.062 400.948 804.178 400.216 802.853 400.216C801.123 400.216 799.949 401.592 799.949 403.561C799.949 405.53 801.111 406.868 802.853 406.868C804.14 406.868 805.024 406.123 805.314 404.974H806.854C806.501 406.918 805.036 408.155 802.84 408.155C800.202 408.155 798.473 406.363 798.473 403.561Z" fill="black"/>
<path d="M809.114 400.367H807.485V399.042H809.114V396.517H810.565V399.042H812.9V400.367H810.565V405.694C810.565 406.451 810.83 406.741 811.613 406.741H813.039V408.067H811.461C809.732 408.067 809.114 407.31 809.114 405.719V400.38V400.367Z" fill="black"/>
<path d="M627.185 67.2033V50.8442H632.423C637.535 50.8442 640.64 54.1135 640.64 59.0237C640.64 63.934 637.535 67.2033 632.423 67.2033H627.185ZM629.217 65.3351H632.423C636.399 65.3351 638.57 62.8358 638.57 59.0237C638.57 55.2117 636.399 52.7124 632.423 52.7124H629.217V65.3351Z" fill="black"/>
<path d="M654.083 65.449V67.2036H653.035C651.445 67.2036 650.914 66.522 650.889 65.3607C650.145 66.4336 648.945 67.3425 646.888 67.3425C644.275 67.3425 642.495 66.0297 642.495 63.8586C642.495 61.4729 644.149 60.1475 647.279 60.1475H650.788V59.327C650.788 57.7871 649.69 56.853 647.822 56.853C646.143 56.853 645.02 57.6482 644.78 58.86H642.861C643.139 56.5248 645.032 55.1489 647.91 55.1489C650.952 55.1489 652.694 56.6636 652.694 59.4533V64.6664C652.694 65.2976 652.921 65.4617 653.464 65.4617H654.07L654.083 65.449ZM650.788 61.7632H647.102C645.398 61.7632 644.439 62.3944 644.439 63.745C644.439 64.9189 645.449 65.7015 647.027 65.7015C649.412 65.7015 650.788 64.3256 650.788 62.3312V61.7506V61.7632Z" fill="black"/>
<path d="M655.294 52.0437C655.294 51.3242 655.837 50.8066 656.531 50.8066C657.225 50.8066 657.768 51.3242 657.768 52.0437C657.768 52.7632 657.225 53.2807 656.531 53.2807C655.837 53.2807 655.294 52.7632 655.294 52.0437ZM655.546 55.2877H657.465V67.2035H655.546V55.2877Z" fill="black"/>
<path d="M660.092 50.8442H662.01V67.2033H660.092V50.8442Z" fill="black"/>
<path d="M663.437 55.2875H665.469L669.142 64.7924L672.689 55.2875H674.721L669.23 69.2104C668.486 71.129 668.044 71.8737 666.352 71.8737H664.068V70.1192H665.772C666.87 70.1192 667.059 69.8415 667.501 68.7181L668.082 67.2665L663.437 55.2749V55.2875Z" fill="black"/>
<path d="M619.358 80.7856C619.522 82.9819 621.226 84.4335 623.725 84.4335C625.922 84.4335 627.487 83.4237 627.487 81.6565C627.487 79.6243 625.48 79.2077 623.006 78.7786C620.368 78.3368 617.654 77.4658 617.654 74.2975C617.654 71.5205 619.926 69.6523 623.233 69.6523C626.881 69.6523 629.115 71.6846 629.305 74.6257H627.197C626.957 72.7323 625.442 71.4953 623.221 71.4953C620.999 71.4953 619.674 72.4293 619.674 74.1839C619.674 76.1404 621.655 76.5443 624.117 76.9609C626.78 77.4027 629.519 78.2989 629.519 81.4672C629.519 84.2947 627.134 86.2764 623.7 86.2764C619.699 86.2764 617.364 84.0044 617.25 80.7856H619.358Z" fill="black"/>
<path d="M631.4 80.205C631.4 76.5571 633.761 74.083 637.219 74.083C640.135 74.083 641.991 75.724 642.471 78.3369H640.464C640.11 76.7464 638.949 75.7871 637.194 75.7871C634.909 75.7871 633.357 77.6047 633.357 80.205C633.357 82.8053 634.897 84.5725 637.194 84.5725C638.898 84.5725 640.072 83.5879 640.438 82.0732H642.471C642.003 84.6482 640.06 86.2765 637.169 86.2765C633.685 86.2765 631.4 83.9161 631.4 80.205Z" fill="black"/>
<path d="M650.624 74.2217V76.0898H649.665C647.166 76.0898 646.484 78.1726 646.484 80.066V86.1375H644.565V74.2217H646.219L646.471 76.0141C647.027 75.1053 647.948 74.2217 650.069 74.2217H650.612H650.624Z" fill="black"/>
<path d="M660.621 74.2217H662.54V86.1375H660.886L660.634 84.5471C659.927 85.4306 658.791 86.2764 656.822 86.2764C654.209 86.2764 652.126 84.7995 652.126 80.8612V74.2217H654.045V80.735C654.045 83.209 655.168 84.5218 657.15 84.5218C659.321 84.5218 660.634 82.8682 660.634 80.1796V74.2217H660.621Z" fill="black"/>
<path d="M682.964 79.2709V86.1377H681.045V79.3845C681.045 77.0493 680.023 75.8376 678.218 75.8376C676.236 75.8376 675.012 77.327 675.012 79.7632V86.1377H673.093V79.3845C673.093 77.0493 672.045 75.8376 670.215 75.8376C668.258 75.8376 667.059 77.4659 667.059 79.8516V86.1377H665.141V74.2219H666.794L667.047 75.8628C667.678 74.9918 668.675 74.083 670.531 74.083C672.184 74.083 673.61 74.8278 674.292 76.3551C675.012 75.0676 676.299 74.083 678.432 74.083C680.906 74.083 682.939 75.5094 682.939 79.2709H682.964Z" fill="black"/>
<path d="M731.562 91.1864L710.381 112.721L702.316 83.6128L709.447 85.4557C710.078 81.9466 710.407 78.3743 710.407 74.7769C710.407 41.8947 683.647 15.1472 650.764 15.1472C617.882 15.1472 591.135 41.8947 591.135 74.7769C591.135 75.5595 591.147 76.3421 591.185 77.1247C586.452 73.5525 581.504 70.2453 576.366 67.2285C580.166 29.5245 612.088 0 650.764 0C692.003 0 725.554 33.5385 725.554 74.7769C725.554 79.6619 725.074 84.509 724.14 89.2677L731.562 91.1864Z" fill="black"/>
<path d="M107.23 218.007H0V353.373H107.23V218.007Z" fill="#E6E7E8"/>
<path d="M90.5301 246.143H34.1445V248.668H90.5301V246.143Z" fill="#414042"/>
<path d="M18.442 251.659C17.8361 251.659 17.2302 251.457 16.738 251.028L12.7618 247.695C12.1433 247.178 12.0676 246.269 12.5851 245.65C13.1026 245.032 14.0115 244.956 14.63 245.474L18.0129 248.314C18.2527 248.516 18.5935 248.49 18.8081 248.276L25.5612 241.523C26.1293 240.955 27.0507 240.955 27.6187 241.523C28.1868 242.091 28.1868 243.012 27.6187 243.58L20.3354 250.864C19.8179 251.381 19.1363 251.646 18.4547 251.646L18.442 251.659Z" fill="#414042"/>
<path d="M90.5301 263.322H34.1445V265.847H90.5301V263.322Z" fill="#414042"/>
<path d="M18.442 268.838C17.8361 268.838 17.2302 268.636 16.738 268.207L12.7618 264.875C12.1433 264.357 12.0676 263.449 12.5851 262.83C13.1026 262.211 14.0115 262.136 14.63 262.653L18.0129 265.493C18.2527 265.695 18.5935 265.67 18.8081 265.456L25.5612 258.702C26.1293 258.134 27.0507 258.134 27.6187 258.702C28.1868 259.27 28.1868 260.192 27.6187 260.76L20.3354 268.043C19.8179 268.561 19.1363 268.826 18.4547 268.826L18.442 268.838Z" fill="#414042"/>
<path d="M90.5301 280.515H34.1445V283.039H90.5301V280.515Z" fill="#414042"/>
<path d="M18.442 286.03C17.8361 286.03 17.2302 285.828 16.738 285.399L12.7618 282.067C12.1433 281.549 12.0676 280.64 12.5851 280.022C13.1026 279.403 14.0115 279.328 14.63 279.845L18.0129 282.685C18.2527 282.887 18.5935 282.862 18.8081 282.647L25.5612 275.894C26.1293 275.326 27.0507 275.326 27.6187 275.894C28.1868 276.462 28.1868 277.384 27.6187 277.952L20.3354 285.235C19.8179 285.753 19.1363 286.018 18.4547 286.018L18.442 286.03Z" fill="#414042"/>
<path d="M90.5301 297.707H34.1445V300.231H90.5301V297.707Z" fill="#414042"/>
<path d="M18.442 303.223C17.8361 303.223 17.2302 303.021 16.738 302.592L12.7618 299.259C12.1433 298.742 12.0676 297.833 12.5851 297.214C13.1026 296.596 14.0115 296.52 14.63 297.038L18.0129 299.878C18.2527 300.08 18.5935 300.054 18.8081 299.84L25.5612 293.087C26.1293 292.519 27.0507 292.519 27.6187 293.087C28.1868 293.655 28.1868 294.576 27.6187 295.144L20.3354 302.427C19.8179 302.945 19.1363 303.21 18.4547 303.21L18.442 303.223Z" fill="#414042"/>
<path d="M90.5301 314.899H34.1445V317.423H90.5301V314.899Z" fill="#414042"/>
<path d="M18.442 320.415C17.8361 320.415 17.2302 320.213 16.738 319.784L12.7618 316.452C12.1433 315.934 12.0676 315.025 12.5851 314.407C13.1026 313.788 14.0115 313.712 14.63 314.23L18.0129 317.07C18.2527 317.272 18.5935 317.247 18.8081 317.032L25.5612 310.279C26.1293 309.711 27.0507 309.711 27.6187 310.279C28.1868 310.847 28.1868 311.769 27.6187 312.337L20.3354 319.62C19.8179 320.137 19.1363 320.402 18.4547 320.402L18.442 320.415Z" fill="#414042"/>
<path d="M90.5301 332.091H34.1445V334.615H90.5301V332.091Z" fill="#414042"/>
<path d="M18.442 337.606C17.8361 337.606 17.2302 337.405 16.738 336.975L12.7618 333.643C12.1433 333.125 12.0676 332.217 12.5851 331.598C13.1026 330.98 14.0115 330.904 14.63 331.421L18.0129 334.261C18.2527 334.463 18.5935 334.438 18.8081 334.224L25.5612 327.47C26.1293 326.902 27.0507 326.902 27.6187 327.47C28.1868 328.038 28.1868 328.96 27.6187 329.528L20.3354 336.811C19.8179 337.329 19.1363 337.594 18.4547 337.594L18.442 337.606Z" fill="#414042"/>
<path d="M182.083 218.007H143.218V256.872H182.083V218.007Z" fill="#E6E7E8"/>
<path d="M174.32 235.957H150.993V238.923H174.32V235.957Z" fill="#414042"/>
<path d="M174.32 244.438H150.993V247.405H174.32V244.438Z" fill="#414042"/>
<path d="M182.083 266.567H143.218V305.432H182.083V266.567Z" fill="#E6E7E8"/>
<path d="M174.32 284.517H150.993V287.483H174.32V284.517Z" fill="#414042"/>
<path d="M174.32 292.999H150.993V295.965H174.32V292.999Z" fill="#414042"/>
<path d="M182.083 315.125H143.218V353.991H182.083V315.125Z" fill="#E6E7E8"/>
<path d="M174.32 333.087H150.993V336.054H174.32V333.087Z" fill="#414042"/>
<path d="M174.32 341.557H150.993V344.523H174.32V341.557Z" fill="#414042"/>
<path d="M230.402 266.567H191.537V305.432H230.402V266.567Z" fill="#E6E7E8"/>
<path d="M222.639 284.517H199.312V287.483H222.639V284.517Z" fill="#414042"/>
<path d="M222.639 292.999H199.312V295.965H222.639V292.999Z" fill="#414042"/>
<path d="M230.402 315.125H191.537V353.991H230.402V315.125Z" fill="#E6E7E8"/>
<path d="M222.639 333.087H199.312V336.054H222.639V333.087Z" fill="#414042"/>
<path d="M222.639 341.557H199.312V344.523H222.639V341.557Z" fill="#414042"/>
<path d="M278.735 315.125H239.87V353.991H278.735V315.125Z" fill="#E6E7E8"/>
<path d="M270.972 333.087H247.646V336.054H270.972V333.087Z" fill="#414042"/>
<path d="M270.972 341.557H247.646V344.523H270.972V341.557Z" fill="#414042"/>
<path d="M34.902 209.512H72.3283C75.2694 209.512 77.6551 211.897 77.6551 214.838V222.652H29.5752V214.838C29.5752 211.897 31.9609 209.512 34.902 209.512Z" fill="#414042"/>
<path d="M753.347 218.007H714.481V256.872H753.347V218.007Z" fill="#E6E7E8"/>
<path d="M731.535 244.842C730.69 244.842 729.844 244.552 729.137 243.959L723.558 239.288C722.7 238.569 722.586 237.281 723.305 236.423C724.025 235.565 725.312 235.451 726.171 236.171L730.917 240.147C731.245 240.424 731.737 240.399 732.04 240.096L741.507 230.629C742.303 229.834 743.59 229.834 744.385 230.629C745.181 231.424 745.181 232.712 744.385 233.507L734.161 243.731C733.429 244.464 732.482 244.83 731.523 244.83L731.535 244.842Z" fill="#414042"/>
<path d="M753.347 266.567H714.481V305.432H753.347V266.567Z" fill="#E6E7E8"/>
<path d="M731.535 293.402C730.69 293.402 729.844 293.112 729.137 292.519L723.558 287.848C722.7 287.129 722.586 285.841 723.305 284.983C724.025 284.125 725.312 284.011 726.171 284.731L730.917 288.707C731.245 288.984 731.737 288.959 732.04 288.656L741.507 279.189C742.303 278.394 743.59 278.394 744.385 279.189C745.181 279.984 745.181 281.272 744.385 282.067L734.161 292.292C733.429 293.024 732.482 293.39 731.523 293.39L731.535 293.402Z" fill="#414042"/>
<path d="M801.681 218.007H762.815V256.872H801.681V218.007Z" fill="#E6E7E8"/>
<path d="M779.869 244.842C779.024 244.842 778.178 244.552 777.471 243.959L771.892 239.288C771.034 238.569 770.92 237.281 771.639 236.423C772.359 235.565 773.646 235.451 774.505 236.171L779.251 240.147C779.579 240.424 780.071 240.399 780.374 240.096L789.841 230.629C790.637 229.834 791.924 229.834 792.719 230.629C793.515 231.424 793.515 232.712 792.719 233.507L782.495 243.731C781.763 244.464 780.816 244.83 779.857 244.83L779.869 244.842Z" fill="#414042"/>
<path d="M801.681 266.567H762.815V305.432H801.681V266.567Z" fill="#E6E7E8"/>
<path d="M779.869 293.402C779.024 293.402 778.178 293.112 777.471 292.519L771.892 287.848C771.034 287.129 770.92 285.841 771.639 284.983C772.359 284.125 773.646 284.011 774.505 284.731L779.251 288.707C779.579 288.984 780.071 288.959 780.374 288.656L789.841 279.189C790.637 278.394 791.924 278.394 792.719 279.189C793.515 279.984 793.515 281.272 792.719 282.067L782.495 292.292C781.763 293.024 780.816 293.39 779.857 293.39L779.869 293.402Z" fill="#414042"/>
<path d="M849.999 218.007H811.134V256.872H849.999V218.007Z" fill="#E6E7E8"/>
<path d="M828.188 244.842C827.342 244.842 826.496 244.552 825.789 243.959L820.21 239.288C819.352 238.569 819.238 237.281 819.958 236.423C820.677 235.565 821.965 235.451 822.823 236.171L827.569 240.147C827.897 240.424 828.39 240.399 828.693 240.096L838.16 230.629C838.955 229.834 840.242 229.834 841.038 230.629C841.833 231.424 841.833 232.712 841.038 233.507L830.813 243.731C830.081 244.464 829.134 244.83 828.175 244.83L828.188 244.842Z" fill="#414042"/>
<path d="M849.999 266.566H811.134V305.432H849.999V266.566Z" fill="#E6E7E8"/>
<path d="M828.188 293.402C827.342 293.402 826.496 293.112 825.789 292.519L820.21 287.848C819.352 287.129 819.238 285.841 819.958 284.983C820.677 284.125 821.965 284.011 822.823 284.731L827.569 288.707C827.897 288.984 828.39 288.959 828.693 288.656L838.16 279.189C838.955 278.394 840.242 278.394 841.038 279.189C841.833 279.984 841.833 281.272 841.038 282.067L830.813 292.292C830.081 293.024 829.134 293.39 828.175 293.39L828.188 293.402Z" fill="#414042"/>
<path d="M849.999 315.126H811.134V353.991H849.999V315.126Z" fill="#E6E7E8"/>
<path d="M828.188 341.974C827.342 341.974 826.496 341.684 825.789 341.091L820.21 336.42C819.352 335.701 819.238 334.413 819.958 333.555C820.677 332.696 821.965 332.583 822.823 333.302L827.569 337.278C827.897 337.556 828.39 337.531 828.693 337.228L838.16 327.761C838.955 326.966 840.242 326.966 841.038 327.761C841.833 328.556 841.833 329.844 841.038 330.639L830.813 340.863C830.081 341.595 829.134 341.962 828.175 341.962L828.188 341.974Z" fill="#414042"/>
<path d="M753.347 315.125H714.481V353.991H753.347V315.125Z" fill="#E6E7E8"/>
<path d="M731.535 341.974C730.69 341.974 729.844 341.684 729.137 341.091L723.558 336.42C722.7 335.701 722.586 334.413 723.305 333.555C724.025 332.696 725.312 332.583 726.171 333.302L730.917 337.278C731.245 337.556 731.737 337.531 732.04 337.228L741.507 327.761C742.303 326.966 743.59 326.966 744.385 327.761C745.181 328.556 745.181 329.844 744.385 330.639L734.161 340.863C733.429 341.595 732.482 341.962 731.523 341.962L731.535 341.974Z" fill="#414042"/>
<path d="M801.681 315.125H762.815V353.991H801.681V315.125Z" fill="#E6E7E8"/>
<path d="M779.869 341.974C779.024 341.974 778.178 341.684 777.471 341.091L771.892 336.42C771.034 335.701 770.92 334.413 771.639 333.555C772.359 332.696 773.646 332.583 774.505 333.302L779.251 337.278C779.579 337.556 780.071 337.531 780.374 337.228L789.841 327.761C790.637 326.966 791.924 326.966 792.719 327.761C793.515 328.556 793.515 329.844 792.719 330.639L782.495 340.863C781.763 341.595 780.816 341.962 779.857 341.962L779.869 341.974Z" fill="#414042"/>
</g>
<defs>
<clipPath id="clip0_1814_1668">
<rect width="850" height="411.702" fill="white"/>
</clipPath>
</defs>
</svg>
