<svg width="708" height="250" viewBox="0 0 708 250" fill="none" xmlns="http://www.w3.org/2000/svg">
<path d="M412.829 89.0947V77.8947H414.221V82.7587H420.013V77.8947H421.405V89.0947H420.013V84.0387H414.221V89.0947H412.829ZM422.851 79.1747V77.8947H431.507V79.1747H427.875V89.0947H426.483V79.1747H422.851ZM432.956 89.0947V77.8947H434.716L438.684 87.1907L442.604 77.8947H444.332V89.0947H442.972V80.2627L439.26 89.0947H438.028L434.316 80.2627V89.0947H432.956ZM453.039 89.0947H446.543V77.8947H447.935V87.8147H453.039V89.0947ZM455.045 87.4147C455.829 87.4147 456.309 88.1667 456.309 89.0467C456.309 90.4067 455.461 91.2227 454.053 91.2547V90.5027C455.077 90.4867 455.397 89.7667 455.397 89.2227C455.397 89.1427 455.397 89.0787 455.381 89.0147C455.253 89.1427 455.029 89.2067 454.837 89.2067C454.357 89.2067 453.989 88.9187 453.989 88.3427C453.989 87.8147 454.373 87.4147 455.045 87.4147ZM467.026 89.1907C463.81 89.1907 461.794 86.9187 461.794 83.4947C461.794 80.1027 463.89 77.7987 467.138 77.7987C469.618 77.7987 471.426 79.2387 471.842 81.5587H470.37C469.938 80.0067 468.754 79.0787 467.074 79.0787C464.722 79.0787 463.218 80.9027 463.218 83.4947C463.218 86.0707 464.658 87.9107 467.01 87.9107C468.738 87.9107 469.938 86.9987 470.354 85.4307H471.826C471.41 87.7507 469.554 89.1907 467.026 89.1907ZM473.099 85.4307H474.539C474.651 86.9347 475.819 87.9267 477.531 87.9267C479.035 87.9267 480.107 87.2387 480.107 86.0227C480.107 84.6307 478.731 84.3427 477.035 84.0547C475.227 83.7507 473.371 83.1587 473.371 80.9827C473.371 79.0787 474.923 77.7987 477.195 77.7987C479.691 77.7987 481.227 79.1907 481.355 81.2067H479.915C479.755 79.9107 478.715 79.0627 477.195 79.0627C475.739 79.0627 474.763 79.7027 474.763 80.9027C474.763 82.2467 476.123 82.5187 477.803 82.8067C479.627 83.1107 481.499 83.7187 481.499 85.8947C481.499 87.8307 479.867 89.1907 477.515 89.1907C474.779 89.1907 473.179 87.6387 473.099 85.4307ZM482.654 85.4307H484.094C484.206 86.9347 485.374 87.9267 487.086 87.9267C488.59 87.9267 489.662 87.2387 489.662 86.0227C489.662 84.6307 488.286 84.3427 486.59 84.0547C484.782 83.7507 482.926 83.1587 482.926 80.9827C482.926 79.0787 484.478 77.7987 486.75 77.7987C489.246 77.7987 490.782 79.1907 490.91 81.2067H489.47C489.31 79.9107 488.27 79.0627 486.75 79.0627C485.294 79.0627 484.318 79.7027 484.318 80.9027C484.318 82.2467 485.678 82.5187 487.358 82.8067C489.182 83.1107 491.054 83.7187 491.054 85.8947C491.054 87.8307 489.422 89.1907 487.07 89.1907C484.334 89.1907 482.734 87.6387 482.654 85.4307ZM492.917 87.4147C493.701 87.4147 494.181 88.1667 494.181 89.0467C494.181 90.4067 493.333 91.2227 491.925 91.2547V90.5027C492.949 90.4867 493.269 89.7667 493.269 89.2227C493.269 89.1427 493.269 89.0787 493.253 89.0147C493.125 89.1427 492.901 89.2067 492.709 89.2067C492.229 89.2067 491.861 88.9187 491.861 88.3427C491.861 87.8147 492.245 87.4147 492.917 87.4147ZM499.634 85.4307H501.074C501.186 86.9347 502.354 87.9267 504.066 87.9267C505.57 87.9267 506.642 87.2387 506.642 86.0227C506.642 84.6307 505.266 84.3427 503.57 84.0547C501.762 83.7507 499.906 83.1587 499.906 80.9827C499.906 79.0787 501.458 77.7987 503.73 77.7987C506.226 77.7987 507.762 79.1907 507.89 81.2067H506.45C506.29 79.9107 505.25 79.0627 503.73 79.0627C502.274 79.0627 501.298 79.7027 501.298 80.9027C501.298 82.2467 502.658 82.5187 504.338 82.8067C506.162 83.1107 508.034 83.7187 508.034 85.8947C508.034 87.8307 506.402 89.1907 504.05 89.1907C501.314 89.1907 499.714 87.6387 499.634 85.4307ZM514.656 89.1907C511.44 89.1907 509.424 86.9187 509.424 83.4947C509.424 80.1027 511.52 77.7987 514.768 77.7987C517.248 77.7987 519.056 79.2387 519.472 81.5587H518C517.568 80.0067 516.384 79.0787 514.704 79.0787C512.352 79.0787 510.848 80.9027 510.848 83.4947C510.848 86.0707 512.288 87.9107 514.64 87.9107C516.368 87.9107 517.568 86.9987 517.984 85.4307H519.456C519.04 87.7507 517.184 89.1907 514.656 89.1907ZM520.729 85.4307H522.169C522.281 86.9347 523.449 87.9267 525.161 87.9267C526.665 87.9267 527.737 87.2387 527.737 86.0227C527.737 84.6307 526.361 84.3427 524.665 84.0547C522.857 83.7507 521.001 83.1587 521.001 80.9827C521.001 79.0787 522.553 77.7987 524.825 77.7987C527.321 77.7987 528.857 79.1907 528.985 81.2067H527.545C527.385 79.9107 526.345 79.0627 524.825 79.0627C523.369 79.0627 522.393 79.7027 522.393 80.9027C522.393 82.2467 523.753 82.5187 525.433 82.8067C527.257 83.1107 529.129 83.7187 529.129 85.8947C529.129 87.8307 527.497 89.1907 525.145 89.1907C522.409 89.1907 520.809 87.6387 520.729 85.4307ZM530.285 85.4307H531.725C531.837 86.9347 533.005 87.9267 534.717 87.9267C536.221 87.9267 537.293 87.2387 537.293 86.0227C537.293 84.6307 535.917 84.3427 534.221 84.0547C532.413 83.7507 530.557 83.1587 530.557 80.9827C530.557 79.0787 532.109 77.7987 534.381 77.7987C536.877 77.7987 538.413 79.1907 538.541 81.2067H537.101C536.941 79.9107 535.901 79.0627 534.381 79.0627C532.925 79.0627 531.949 79.7027 531.949 80.9027C531.949 82.2467 533.309 82.5187 534.989 82.8067C536.813 83.1107 538.685 83.7187 538.685 85.8947C538.685 87.8307 537.053 89.1907 534.701 89.1907C531.965 89.1907 530.365 87.6387 530.285 85.4307ZM540.548 87.4147C541.332 87.4147 541.812 88.1667 541.812 89.0467C541.812 90.4067 540.964 91.2227 539.556 91.2547V90.5027C540.58 90.4867 540.9 89.7667 540.9 89.2227C540.9 89.1427 540.9 89.0787 540.884 89.0147C540.756 89.1427 540.532 89.2067 540.34 89.2067C539.86 89.2067 539.492 88.9187 539.492 88.3427C539.492 87.8147 539.876 87.4147 540.548 87.4147ZM547.264 85.4307H548.704C548.816 86.9347 549.984 87.9267 551.696 87.9267C553.2 87.9267 554.272 87.2387 554.272 86.0227C554.272 84.6307 552.896 84.3427 551.2 84.0547C549.392 83.7507 547.536 83.1587 547.536 80.9827C547.536 79.0787 549.088 77.7987 551.36 77.7987C553.856 77.7987 555.392 79.1907 555.52 81.2067H554.08C553.92 79.9107 552.88 79.0627 551.36 79.0627C549.904 79.0627 548.928 79.7027 548.928 80.9027C548.928 82.2467 550.288 82.5187 551.968 82.8067C553.792 83.1107 555.664 83.7187 555.664 85.8947C555.664 87.8307 554.032 89.1907 551.68 89.1907C548.944 89.1907 547.344 87.6387 547.264 85.4307ZM564.495 87.8947H564.911V89.0947H564.191C563.103 89.0947 562.735 88.6307 562.719 87.8307C562.207 88.5667 561.391 89.1907 559.983 89.1907C558.191 89.1907 556.975 88.2947 556.975 86.8067C556.975 85.1747 558.111 84.2627 560.255 84.2627H562.655V83.7027C562.655 82.6467 561.903 82.0067 560.623 82.0067C559.471 82.0067 558.703 82.5507 558.543 83.3827H557.231C557.423 81.7827 558.719 80.8387 560.687 80.8387C562.767 80.8387 563.967 81.8787 563.967 83.7827V87.3507C563.967 87.7827 564.127 87.8947 564.495 87.8947ZM562.655 85.7667V85.3667H560.127C558.959 85.3667 558.303 85.7987 558.303 86.7267C558.303 87.5267 558.991 88.0707 560.079 88.0707C561.711 88.0707 562.655 87.1267 562.655 85.7667ZM565.624 86.4067H566.968C567.016 87.3667 567.864 88.0707 569.224 88.0707C570.376 88.0707 571.192 87.5747 571.192 86.8227C571.192 85.7987 570.296 85.7187 569.08 85.5747C567.256 85.3507 565.8 84.9827 565.8 83.2867C565.8 81.7987 567.16 80.8227 569 80.8387C570.856 80.8547 572.2 81.7187 572.328 83.4147H570.984C570.888 82.5827 570.12 81.9587 569 81.9587C567.864 81.9587 567.096 82.4387 567.096 83.1907C567.096 84.0867 567.96 84.1987 569.144 84.3427C571 84.5667 572.488 84.9187 572.488 86.7267C572.488 88.2467 571.032 89.1907 569.224 89.1907C567.112 89.1907 565.656 88.1987 565.624 86.4067ZM573.492 86.4067H574.836C574.884 87.3667 575.732 88.0707 577.092 88.0707C578.244 88.0707 579.06 87.5747 579.06 86.8227C579.06 85.7987 578.164 85.7187 576.948 85.5747C575.124 85.3507 573.668 84.9827 573.668 83.2867C573.668 81.7987 575.028 80.8227 576.868 80.8387C578.724 80.8547 580.068 81.7187 580.196 83.4147H578.852C578.756 82.5827 577.988 81.9587 576.868 81.9587C575.732 81.9587 574.964 82.4387 574.964 83.1907C574.964 84.0867 575.828 84.1987 577.012 84.3427C578.868 84.5667 580.356 84.9187 580.356 86.7267C580.356 88.2467 578.9 89.1907 577.092 89.1907C574.98 89.1907 573.524 88.1987 573.492 86.4067ZM582.319 87.4147C583.103 87.4147 583.583 88.1667 583.583 89.0467C583.583 90.4067 582.735 91.2227 581.327 91.2547V90.5027C582.351 90.4867 582.671 89.7667 582.671 89.2227C582.671 89.1427 582.671 89.0787 582.655 89.0147C582.527 89.1427 582.303 89.2067 582.111 89.2067C581.631 89.2067 581.263 88.9187 581.263 88.3427C581.263 87.8147 581.647 87.4147 582.319 87.4147ZM589.484 89.0947V77.8947H593.772C596.012 77.8947 597.5 79.2387 597.5 81.3347C597.5 82.9027 596.556 84.1187 595.116 84.5187L597.628 89.0947H596.06L593.692 84.7907H590.876V89.0947H589.484ZM593.676 79.1747H590.876V83.5107H593.66C595.132 83.5107 596.076 82.6467 596.076 81.3347C596.076 80.0227 595.132 79.1747 593.676 79.1747ZM602.451 89.1907C600.003 89.1907 598.403 87.5107 598.403 85.0147C598.403 82.5347 599.971 80.8387 602.275 80.8387C604.579 80.8387 606.083 82.2947 606.147 84.7107C606.147 84.8867 606.131 85.0787 606.115 85.2707H599.779V85.3827C599.827 86.9347 600.803 88.0227 602.355 88.0227C603.507 88.0227 604.403 87.4147 604.675 86.3587H606.003C605.683 87.9907 604.339 89.1907 602.451 89.1907ZM599.859 84.1827H604.739C604.611 82.7747 603.651 81.9907 602.291 81.9907C601.091 81.9907 599.987 82.8547 599.859 84.1827ZM614.9 87.8947H615.316V89.0947H614.596C613.508 89.0947 613.14 88.6307 613.124 87.8307C612.612 88.5667 611.796 89.1907 610.388 89.1907C608.596 89.1907 607.38 88.2947 607.38 86.8067C607.38 85.1747 608.516 84.2627 610.66 84.2627H613.06V83.7027C613.06 82.6467 612.308 82.0067 611.028 82.0067C609.876 82.0067 609.108 82.5507 608.948 83.3827H607.636C607.828 81.7827 609.124 80.8387 611.092 80.8387C613.172 80.8387 614.372 81.8787 614.372 83.7827V87.3507C614.372 87.7827 614.532 87.8947 614.9 87.8947ZM613.06 85.7667V85.3667H610.532C609.364 85.3667 608.708 85.7987 608.708 86.7267C608.708 87.5267 609.396 88.0707 610.484 88.0707C612.116 88.0707 613.06 87.1267 613.06 85.7667ZM619.935 89.1907C617.551 89.1907 615.983 87.5747 615.983 85.0307C615.983 82.5347 617.599 80.8387 619.967 80.8387C621.967 80.8387 623.231 81.9587 623.567 83.7507H622.191C621.951 82.6627 621.151 82.0067 619.951 82.0067C618.383 82.0067 617.327 83.2547 617.327 85.0307C617.327 86.8067 618.383 88.0227 619.951 88.0227C621.119 88.0227 621.919 87.3507 622.175 86.3107H623.567C623.247 88.0707 621.919 89.1907 619.935 89.1907ZM625.653 86.9667V82.1347H624.181V80.9347H625.653V78.6467H626.965V80.9347H629.077V82.1347H626.965V86.9507C626.965 87.6387 627.205 87.8947 627.909 87.8947H629.205V89.0947H627.781C626.213 89.0947 625.653 88.4067 625.653 86.9667ZM631.037 87.4147C631.821 87.4147 632.301 88.1667 632.301 89.0467C632.301 90.4067 631.453 91.2227 630.045 91.2547V90.5027C631.069 90.4867 631.389 89.7667 631.389 89.2227C631.389 89.1427 631.389 89.0787 631.373 89.0147C631.245 89.1427 631.021 89.2067 630.829 89.2067C630.349 89.2067 629.981 88.9187 629.981 88.3427C629.981 87.8147 630.365 87.4147 631.037 87.4147ZM639.561 89.0947H638.201V77.8947H639.481L645.497 86.5347V77.8947H646.857V89.0947H645.577L639.561 80.4547V89.0947ZM652.637 89.1907C650.189 89.1907 648.589 87.5107 648.589 85.0147C648.589 82.5347 650.157 80.8387 652.461 80.8387C654.765 80.8387 656.269 82.2947 656.333 84.7107C656.333 84.8867 656.317 85.0787 656.301 85.2707H649.965V85.3827C650.013 86.9347 650.989 88.0227 652.541 88.0227C653.693 88.0227 654.589 87.4147 654.861 86.3587H656.189C655.869 87.9907 654.525 89.1907 652.637 89.1907ZM650.045 84.1827H654.925C654.797 82.7747 653.837 81.9907 652.477 81.9907C651.277 81.9907 650.173 82.8547 650.045 84.1827ZM656.663 89.0947L659.767 84.9027L656.871 80.9347H658.439L660.599 83.9587L662.791 80.9347H664.279L661.367 84.9027L664.487 89.0947H662.919L660.535 85.8147L658.151 89.0947H656.663ZM666.143 86.9667V82.1347H664.671V80.9347H666.143V78.6467H667.455V80.9347H669.567V82.1347H667.455V86.9507C667.455 87.6387 667.695 87.8947 668.399 87.8947H669.695V89.0947H668.271C666.703 89.0947 666.143 88.4067 666.143 86.9667ZM671.527 87.4147C672.311 87.4147 672.791 88.1667 672.791 89.0467C672.791 90.4067 671.943 91.2227 670.535 91.2547V90.5027C671.559 90.4867 671.879 89.7667 671.879 89.2227C671.879 89.1427 671.879 89.0787 671.863 89.0147C671.735 89.1427 671.511 89.2067 671.319 89.2067C670.839 89.2067 670.471 88.9187 670.471 88.3427C670.471 87.8147 670.855 87.4147 671.527 87.4147ZM678.691 89.0947V77.8947H682.995C685.235 77.8947 686.707 79.2387 686.707 81.3347C686.707 83.4307 685.235 84.7907 682.995 84.7907H680.083V89.0947H678.691ZM682.883 79.1747H680.083V83.5107H682.867C684.339 83.5107 685.283 82.6627 685.283 81.3347C685.283 80.0067 684.355 79.1747 682.883 79.1747ZM688.231 89.0947V77.8947H689.623V82.7587H695.415V77.8947H696.807V89.0947H695.415V84.0387H689.623V89.0947H688.231ZM699.021 89.0947V77.8947H703.325C705.565 77.8947 707.037 79.2387 707.037 81.3347C707.037 83.4307 705.565 84.7907 703.325 84.7907H700.413V89.0947H699.021ZM703.213 79.1747H700.413V83.5107H703.197C704.669 83.5107 705.613 82.6627 705.613 81.3347C705.613 80.0067 704.685 79.1747 703.213 79.1747Z" fill="#23262F"/>
<path d="M461.627 141.741H460.267V130.541H461.547L467.563 139.181V130.541H468.923V141.741H467.643L461.627 133.101V141.741ZM474.703 141.837C472.319 141.837 470.655 140.141 470.655 137.661C470.655 135.181 472.319 133.485 474.703 133.485C477.087 133.485 478.751 135.181 478.751 137.661C478.751 140.141 477.087 141.837 474.703 141.837ZM474.703 140.669C476.319 140.669 477.407 139.405 477.407 137.661C477.407 135.917 476.319 134.653 474.703 134.653C473.087 134.653 471.999 135.917 471.999 137.661C471.999 139.405 473.087 140.669 474.703 140.669ZM486.727 134.829V130.541H488.039V141.741H486.903L486.727 140.429C486.183 141.181 485.303 141.837 483.927 141.837C481.671 141.837 480.007 140.317 480.007 137.661C480.007 135.165 481.671 133.485 483.927 133.485C485.303 133.485 486.231 134.045 486.727 134.829ZM484.055 140.669C485.655 140.669 486.743 139.437 486.743 137.693C486.743 135.901 485.655 134.653 484.055 134.653C482.439 134.653 481.351 135.885 481.351 137.661C481.351 139.437 482.439 140.669 484.055 140.669ZM493.627 141.837C491.179 141.837 489.579 140.157 489.579 137.661C489.579 135.181 491.147 133.485 493.451 133.485C495.755 133.485 497.259 134.941 497.323 137.357C497.323 137.533 497.307 137.725 497.291 137.917H490.955V138.029C491.003 139.581 491.979 140.669 493.531 140.669C494.683 140.669 495.579 140.061 495.851 139.005H497.179C496.859 140.637 495.515 141.837 493.627 141.837ZM491.035 136.829H495.915C495.787 135.421 494.827 134.637 493.467 134.637C492.267 134.637 491.163 135.501 491.035 136.829ZM499.612 132.205C499.132 132.205 498.764 131.853 498.764 131.357C498.764 130.861 499.132 130.509 499.612 130.509C500.092 130.509 500.46 130.861 500.46 131.357C500.46 131.853 500.092 132.205 499.612 132.205ZM497.036 144.941V143.741H498.06C498.716 143.741 498.956 143.469 498.956 142.845V133.581H500.268V142.813C500.268 144.253 499.66 144.941 498.14 144.941H497.036ZM501.767 139.053H503.111C503.159 140.013 504.007 140.717 505.367 140.717C506.519 140.717 507.335 140.221 507.335 139.469C507.335 138.445 506.439 138.365 505.223 138.221C503.399 137.997 501.943 137.629 501.943 135.933C501.943 134.445 503.303 133.469 505.143 133.485C506.999 133.501 508.343 134.365 508.471 136.061H507.127C507.031 135.229 506.263 134.605 505.143 134.605C504.007 134.605 503.239 135.085 503.239 135.837C503.239 136.733 504.103 136.845 505.287 136.989C507.143 137.213 508.631 137.565 508.631 139.373C508.631 140.893 507.175 141.837 505.367 141.837C503.255 141.837 501.799 140.845 501.767 139.053ZM510.594 140.061C511.378 140.061 511.858 140.813 511.858 141.693C511.858 143.053 511.01 143.869 509.602 143.901V143.149C510.626 143.133 510.946 142.413 510.946 141.869C510.946 141.789 510.946 141.725 510.93 141.661C510.802 141.789 510.578 141.853 510.386 141.853C509.906 141.853 509.538 141.565 509.538 140.989C509.538 140.461 509.922 140.061 510.594 140.061ZM519.119 141.741H517.759V130.541H519.039L525.055 139.181V130.541H526.415V141.741H525.135L519.119 133.101V141.741ZM532.195 141.837C529.747 141.837 528.147 140.157 528.147 137.661C528.147 135.181 529.715 133.485 532.019 133.485C534.323 133.485 535.827 134.941 535.891 137.357C535.891 137.533 535.875 137.725 535.859 137.917H529.523V138.029C529.571 139.581 530.547 140.669 532.099 140.669C533.251 140.669 534.147 140.061 534.419 139.005H535.747C535.427 140.637 534.083 141.837 532.195 141.837ZM529.603 136.829H534.483C534.355 135.421 533.395 134.637 532.035 134.637C530.835 134.637 529.731 135.501 529.603 136.829ZM536.22 141.741L539.324 137.549L536.428 133.581H537.996L540.156 136.605L542.348 133.581H543.836L540.924 137.549L544.044 141.741H542.476L540.092 138.461L537.708 141.741H536.22ZM545.701 139.613V134.781H544.229V133.581H545.701V131.293H547.013V133.581H549.125V134.781H547.013V139.597C547.013 140.285 547.253 140.541 547.957 140.541H549.253V141.741H547.829C546.261 141.741 545.701 141.053 545.701 139.613ZM551.244 132.205C550.764 132.205 550.396 131.853 550.396 131.357C550.396 130.861 550.764 130.509 551.244 130.509C551.724 130.509 552.092 130.861 552.092 131.357C552.092 131.853 551.724 132.205 551.244 132.205ZM548.668 144.941V143.741H549.692C550.348 143.741 550.588 143.469 550.588 142.845V133.581H551.9V142.813C551.9 144.253 551.292 144.941 549.772 144.941H548.668ZM553.399 139.053H554.743C554.791 140.013 555.639 140.717 556.999 140.717C558.151 140.717 558.967 140.221 558.967 139.469C558.967 138.445 558.071 138.365 556.855 138.221C555.031 137.997 553.575 137.629 553.575 135.933C553.575 134.445 554.935 133.469 556.775 133.485C558.631 133.501 559.975 134.365 560.103 136.061H558.759C558.663 135.229 557.895 134.605 556.775 134.605C555.639 134.605 554.871 135.085 554.871 135.837C554.871 136.733 555.735 136.845 556.919 136.989C558.775 137.213 560.263 137.565 560.263 139.373C560.263 140.893 558.807 141.837 556.999 141.837C554.887 141.837 553.431 140.845 553.399 139.053Z" fill="#23262F"/>
<path d="M511.278 194.394H507.694V183.194H511.278C514.782 183.194 516.91 185.434 516.91 188.794C516.91 192.138 514.782 194.394 511.278 194.394ZM509.086 184.474V193.114H511.278C513.998 193.114 515.486 191.402 515.486 188.794C515.486 186.17 513.998 184.474 511.278 184.474H509.086ZM522.271 194.49C519.887 194.49 518.223 192.794 518.223 190.314C518.223 187.834 519.887 186.138 522.271 186.138C524.655 186.138 526.319 187.834 526.319 190.314C526.319 192.794 524.655 194.49 522.271 194.49ZM522.271 193.322C523.887 193.322 524.975 192.058 524.975 190.314C524.975 188.57 523.887 187.306 522.271 187.306C520.655 187.306 519.567 188.57 519.567 190.314C519.567 192.058 520.655 193.322 522.271 193.322ZM531.528 194.49C529.144 194.49 527.576 192.874 527.576 190.33C527.576 187.834 529.192 186.138 531.56 186.138C533.56 186.138 534.824 187.258 535.16 189.05H533.784C533.544 187.962 532.744 187.306 531.544 187.306C529.976 187.306 528.92 188.554 528.92 190.33C528.92 192.106 529.976 193.322 531.544 193.322C532.712 193.322 533.512 192.65 533.768 191.61H535.16C534.84 193.37 533.512 194.49 531.528 194.49ZM536.638 194.394V183.194H537.95V190.57L542.046 186.234H543.662L540.478 189.61L543.886 194.394H542.302L539.598 190.554L537.95 192.25V194.394H536.638ZM548.141 194.49C545.693 194.49 544.093 192.81 544.093 190.314C544.093 187.834 545.661 186.138 547.965 186.138C550.269 186.138 551.773 187.594 551.837 190.01C551.837 190.186 551.821 190.378 551.805 190.57H545.469V190.682C545.517 192.234 546.493 193.322 548.045 193.322C549.197 193.322 550.093 192.714 550.365 191.658H551.693C551.373 193.29 550.029 194.49 548.141 194.49ZM545.549 189.482H550.429C550.301 188.074 549.341 187.29 547.981 187.29C546.781 187.29 545.677 188.154 545.549 189.482ZM557.15 186.234H557.518V187.514H556.862C555.15 187.514 554.686 188.938 554.686 190.234V194.394H553.374V186.234H554.51L554.686 187.466C555.07 186.842 555.694 186.234 557.15 186.234ZM558.428 192.714C559.212 192.714 559.692 193.466 559.692 194.346C559.692 195.706 558.844 196.522 557.436 196.554V195.802C558.46 195.786 558.78 195.066 558.78 194.522C558.78 194.442 558.78 194.378 558.764 194.314C558.636 194.442 558.412 194.506 558.22 194.506C557.74 194.506 557.372 194.218 557.372 193.642C557.372 193.114 557.756 192.714 558.428 192.714ZM566.953 194.394H565.593V183.194H566.873L572.889 191.834V183.194H574.249V194.394H572.969L566.953 185.754V194.394ZM582.701 187.642L582.877 186.234H584.013V193.994C584.013 196.346 582.765 197.69 579.965 197.69C577.885 197.69 576.429 196.714 576.221 194.922H577.565C577.789 195.946 578.701 196.522 580.061 196.522C581.773 196.522 582.701 195.722 582.701 193.946V192.986C582.157 193.914 581.277 194.49 579.901 194.49C577.645 194.49 575.981 192.97 575.981 190.314C575.981 187.818 577.645 186.138 579.901 186.138C581.277 186.138 582.189 186.73 582.701 187.642ZM580.029 193.322C581.629 193.322 582.717 192.09 582.717 190.346C582.717 188.554 581.629 187.306 580.029 187.306C578.413 187.306 577.325 188.538 577.325 190.314C577.325 192.09 578.413 193.322 580.029 193.322ZM586.512 184.858C586.032 184.858 585.664 184.506 585.664 184.01C585.664 183.514 586.032 183.162 586.512 183.162C586.992 183.162 587.36 183.514 587.36 184.01C587.36 184.506 586.992 184.858 586.512 184.858ZM585.84 194.394V186.234H587.152V194.394H585.84ZM592.989 186.138C594.829 186.138 596.285 187.146 596.285 189.85V194.394H594.973V189.93C594.973 188.234 594.189 187.338 592.765 187.338C591.229 187.338 590.301 188.474 590.301 190.314V194.394H588.989V186.234H590.125L590.301 187.338C590.781 186.714 591.613 186.138 592.989 186.138ZM597.134 194.394L600.238 190.202L597.342 186.234H598.91L601.07 189.258L603.262 186.234H604.75L601.838 190.202L604.958 194.394H603.39L601.006 191.114L598.622 194.394H597.134ZM606.458 192.714C607.242 192.714 607.722 193.466 607.722 194.346C607.722 195.706 606.874 196.522 605.466 196.554V195.802C606.49 195.786 606.81 195.066 606.81 194.522C606.81 194.442 606.81 194.378 606.794 194.314C606.666 194.442 606.442 194.506 606.25 194.506C605.77 194.506 605.402 194.218 605.402 193.642C605.402 193.114 605.786 192.714 606.458 192.714ZM614.151 194.394H612.711L616.983 183.194H618.631L622.887 194.394H621.399L620.215 191.37H615.335L614.151 194.394ZM617.767 184.714L615.751 190.106H619.799L617.767 184.714ZM628.114 186.138C630.37 186.138 632.034 187.658 632.034 190.314C632.034 192.81 630.37 194.49 628.114 194.49C626.738 194.49 625.81 193.93 625.314 193.146V197.594H624.002V186.234H625.138L625.314 187.546C625.858 186.794 626.738 186.138 628.114 186.138ZM627.986 193.322C629.602 193.322 630.69 192.09 630.69 190.314C630.69 188.538 629.602 187.306 627.986 187.306C626.386 187.306 625.298 188.538 625.298 190.282C625.298 192.074 626.386 193.322 627.986 193.322ZM640.789 193.194H641.205V194.394H640.485C639.397 194.394 639.029 193.93 639.013 193.13C638.501 193.866 637.685 194.49 636.277 194.49C634.485 194.49 633.269 193.594 633.269 192.106C633.269 190.474 634.405 189.562 636.549 189.562H638.949V189.002C638.949 187.946 638.197 187.306 636.917 187.306C635.765 187.306 634.997 187.85 634.837 188.682H633.525C633.717 187.082 635.013 186.138 636.981 186.138C639.061 186.138 640.261 187.178 640.261 189.082V192.65C640.261 193.082 640.421 193.194 640.789 193.194ZM638.949 191.066V190.666H636.421C635.253 190.666 634.597 191.098 634.597 192.026C634.597 192.826 635.285 193.37 636.373 193.37C638.005 193.37 638.949 192.426 638.949 191.066ZM645.824 194.49C643.44 194.49 641.872 192.874 641.872 190.33C641.872 187.834 643.488 186.138 645.856 186.138C647.856 186.138 649.12 187.258 649.456 189.05H648.08C647.84 187.962 647.04 187.306 645.84 187.306C644.272 187.306 643.216 188.554 643.216 190.33C643.216 192.106 644.272 193.322 645.84 193.322C647.008 193.322 647.808 192.65 648.064 191.61H649.456C649.136 193.37 647.808 194.49 645.824 194.49ZM654.934 186.138C656.758 186.138 658.246 187.146 658.246 189.85V194.394H656.934V189.93C656.934 188.234 656.118 187.338 654.71 187.338C653.19 187.338 652.246 188.474 652.246 190.314V194.394H650.934V183.194H652.246V187.578C652.726 186.81 653.558 186.138 654.934 186.138ZM663.625 194.49C661.177 194.49 659.577 192.81 659.577 190.314C659.577 187.834 661.145 186.138 663.449 186.138C665.753 186.138 667.257 187.594 667.321 190.01C667.321 190.186 667.305 190.378 667.289 190.57H660.953V190.682C661.001 192.234 661.977 193.322 663.529 193.322C664.681 193.322 665.577 192.714 665.849 191.658H667.177C666.857 193.29 665.513 194.49 663.625 194.49ZM661.033 189.482H665.913C665.785 188.074 664.825 187.29 663.465 187.29C662.265 187.29 661.161 188.154 661.033 189.482Z" fill="#23262F"/>
<path d="M217.976 247.721L5.86938 192.015C-1.61271 190.048 -1.61271 179.429 5.86938 177.462L217.976 121.756C229.533 118.717 241.681 118.717 253.238 121.756L465.344 177.462C472.826 179.429 472.826 190.048 465.344 192.015L253.238 247.721C241.681 250.76 229.533 250.76 217.976 247.721Z" fill="#6C0B00"/>
<path d="M218.031 182.468L53.1537 139.168C45.8732 137.256 45.8732 126.916 53.1537 125.003L218.031 81.7032C229.553 78.6784 241.666 78.6784 253.189 81.7032L418.066 125.003C425.346 126.916 425.346 137.256 418.066 139.168L253.189 182.468C241.666 185.493 229.553 185.493 218.031 182.468Z" fill="#B81703"/>
<path d="M218.081 117.222L100.439 86.3275C93.3536 84.4709 93.3536 74.416 100.439 72.5524L218.081 41.6574C229.568 38.6396 241.646 38.6396 253.134 41.6574L370.775 72.5524C377.861 74.409 377.861 84.4639 370.775 86.3275L253.134 117.222C241.646 120.24 229.568 120.24 218.081 117.222Z" fill="#F71D0D"/>
<path d="M218.129 52.6233L147.724 34.1336C140.84 32.3256 140.84 22.5558 147.724 20.7479L218.129 2.25819C229.589 -0.75273 241.625 -0.75273 253.085 2.25819L323.49 20.7479C330.374 22.5558 330.374 32.3256 323.49 34.1336L253.085 52.6233C241.625 55.6342 229.589 55.6342 218.129 52.6233Z" fill="#FC3833"/>
<path d="M365.92 37.0962H364.48L368.752 25.8962H370.4L374.656 37.0962H373.168L371.984 34.0722H367.104L365.92 37.0962ZM369.536 27.4162L367.52 32.8082H371.568L369.536 27.4162ZM376.893 37.0962L374.253 28.9362H375.629L377.661 35.5762L379.805 28.9362H381.021L383.053 35.5762L385.181 28.9362H386.509L383.789 37.0962H382.349L380.381 31.0322L378.333 37.0962H376.893ZM387.1 34.4082H388.444C388.492 35.3682 389.34 36.0722 390.7 36.0722C391.852 36.0722 392.668 35.5762 392.668 34.8242C392.668 33.8002 391.772 33.7202 390.556 33.5762C388.732 33.3522 387.276 32.9842 387.276 31.2882C387.276 29.8002 388.636 28.8242 390.476 28.8402C392.332 28.8562 393.676 29.7202 393.804 31.4162H392.46C392.364 30.5842 391.596 29.9602 390.476 29.9602C389.34 29.9602 388.572 30.4402 388.572 31.1922C388.572 32.0882 389.436 32.2002 390.62 32.3442C392.476 32.5682 393.964 32.9202 393.964 34.7282C393.964 36.2482 392.508 37.1922 390.7 37.1922C388.588 37.1922 387.132 36.2002 387.1 34.4082ZM395.927 35.4162C396.711 35.4162 397.191 36.1682 397.191 37.0482C397.191 38.4082 396.343 39.2242 394.935 39.2562V38.5042C395.959 38.4882 396.279 37.7682 396.279 37.2242C396.279 37.1442 396.279 37.0802 396.263 37.0162C396.135 37.1442 395.911 37.2082 395.719 37.2082C395.239 37.2082 394.871 36.9202 394.871 36.3442C394.871 35.8162 395.255 35.4162 395.927 35.4162ZM407.94 37.1922C404.836 37.1922 402.676 34.8882 402.676 31.4962C402.676 28.1042 404.772 25.8002 408.02 25.8002C410.5 25.8002 412.372 27.2402 412.756 29.5442H411.268C410.884 27.9922 409.684 27.0802 407.988 27.0802C405.636 27.0802 404.1 28.9042 404.1 31.4962C404.1 34.0882 405.636 35.9122 407.956 35.9122C410.02 35.9122 411.508 34.6802 411.508 32.6962V32.3122H408.148V31.0322H412.868V37.0962H411.668L411.572 35.4642C411.06 36.2802 409.86 37.1922 407.94 37.1922ZM419.901 37.1922C416.685 37.1922 414.669 34.9202 414.669 31.4962C414.669 28.1042 416.765 25.8002 420.013 25.8002C422.493 25.8002 424.301 27.2402 424.717 29.5602H423.245C422.813 28.0082 421.629 27.0802 419.949 27.0802C417.597 27.0802 416.093 28.9042 416.093 31.4962C416.093 34.0722 417.533 35.9122 419.885 35.9122C421.613 35.9122 422.813 35.0002 423.229 33.4322H424.701C424.285 35.7522 422.429 37.1922 419.901 37.1922ZM426.422 37.0962V25.8962H430.726C432.966 25.8962 434.438 27.2402 434.438 29.3362C434.438 31.4322 432.966 32.7922 430.726 32.7922H427.814V37.0962H426.422ZM430.614 27.1762H427.814V31.5122H430.598C432.07 31.5122 433.014 30.6642 433.014 29.3362C433.014 28.0082 432.086 27.1762 430.614 27.1762ZM435.112 35.4162C435.896 35.4162 436.376 36.1682 436.376 37.0482C436.376 38.4082 435.528 39.2242 434.12 39.2562V38.5042C435.144 38.4882 435.464 37.7682 435.464 37.2242C435.464 37.1442 435.464 37.0802 435.448 37.0162C435.32 37.1442 435.096 37.2082 434.904 37.2082C434.424 37.2082 434.056 36.9202 434.056 36.3442C434.056 35.8162 434.44 35.4162 435.112 35.4162ZM442.276 37.0962V25.8962H443.668V30.7602H449.46V25.8962H450.852V37.0962H449.46V32.0402H443.668V37.0962H442.276ZM456.634 37.1922C454.186 37.1922 452.586 35.5122 452.586 33.0162C452.586 30.5362 454.154 28.8402 456.458 28.8402C458.762 28.8402 460.266 30.2962 460.33 32.7122C460.33 32.8882 460.314 33.0802 460.298 33.2722H453.962V33.3842C454.01 34.9362 454.986 36.0242 456.538 36.0242C457.69 36.0242 458.586 35.4162 458.858 34.3602H460.186C459.866 35.9922 458.522 37.1922 456.634 37.1922ZM454.042 32.1842H458.922C458.794 30.7762 457.834 29.9922 456.474 29.9922C455.274 29.9922 454.17 30.8562 454.042 32.1842ZM465.643 28.9362H466.011V30.2162H465.355C463.643 30.2162 463.179 31.6402 463.179 32.9362V37.0962H461.867V28.9362H463.003L463.179 30.1682C463.563 29.5442 464.187 28.9362 465.643 28.9362ZM470.48 37.1922C468.096 37.1922 466.432 35.4962 466.432 33.0162C466.432 30.5362 468.096 28.8402 470.48 28.8402C472.864 28.8402 474.528 30.5362 474.528 33.0162C474.528 35.4962 472.864 37.1922 470.48 37.1922ZM470.48 36.0242C472.096 36.0242 473.184 34.7602 473.184 33.0162C473.184 31.2722 472.096 30.0082 470.48 30.0082C468.864 30.0082 467.776 31.2722 467.776 33.0162C467.776 34.7602 468.864 36.0242 470.48 36.0242ZM476.072 37.0962V25.8962H477.384V33.2722L481.48 28.9362H483.096L479.912 32.3122L483.32 37.0962H481.736L479.032 33.2562L477.384 34.9522V37.0962H476.072ZM489.887 33.0162V28.9362H491.199V37.0962H490.063L489.887 36.0082C489.407 36.6162 488.623 37.1922 487.279 37.1922C485.487 37.1922 484.063 36.1842 484.063 33.4802V28.9362H485.375V33.4002C485.375 35.0962 486.143 35.9922 487.503 35.9922C488.991 35.9922 489.887 34.8562 489.887 33.0162Z" fill="#23262F"/>
</svg>
